  0
SECTION
  2
HEADER
  0
ENDSEC
  0
SECTION
  2
TABLES
  0
TABLE
  2
LAYER
  70
    153
  0
LAYER
  2
Plane
 70
0
 62
15
  6
CONTINUOUS
  0
ENDTAB
  0
ENDSEC
  0
SECTION
  2
ENTITIES
  0
3DFACE
  8
Plane
 10
-0.756030
 20
0.101051
 30
1.383274
 11
-0.745410
 21
0.101160
 31
2.157688
 12
0.686226
 22
0.115981
 32
2.151953
 13
0.675606
 23
0.115873
 33
1.377538
 62
0
  0
3DFACE
  8
Plane
 10
0.675606
 20
0.115873
 30
1.377538
 11
0.686226
 21
0.115981
 31
2.151953
 12
-0.745410
 22
0.101160
 32
2.157688
 13
-0.756030
 23
0.101051
 33
1.383274
 62
0
  0
3DFACE
  8
Plane
 10
-0.999927
 20
-0.999925
 30
0.714698
 11
0.999941
 21
-0.999943
 31
0.714724
 12
0.999918
 22
0.999935
 32
0.714698
 13
-0.999950
 23
0.999953
 33
0.714672
 62
1
  0
3DFACE
  8
Plane
 10
-0.999933
 20
0.038761
 30
1.285347
 11
-0.999944
 21
0.999946
 31
1.285334
 12
0.999924
 22
0.999928
 32
1.285360
 13
0.999935
 23
0.038742
 33
1.285373
 62
1
  0
3DFACE
  8
Plane
 10
0.999918
 20
0.999935
 30
0.714698
 11
0.999924
 21
0.999928
 31
1.285360
 12
-0.999944
 22
0.999946
 32
1.285334
 13
-0.999950
 23
0.999953
 33
0.714672
 62
1
  0
3DFACE
  8
Plane
 10
-0.999933
 20
0.038761
 30
1.285347
 11
-0.999926
 21
-0.999926
 31
0.809930
 12
-0.999927
 22
-0.999925
 32
0.714698
 13
-0.999927
 23
-0.999925
 33
0.714698
 62
1
  0
3DFACE
  8
Plane
 10
-0.999944
 20
0.999946
 30
1.285334
 11
-0.999933
 21
0.038761
 31
1.285347
 12
-0.999927
 22
-0.999925
 32
0.714698
 13
-0.999927
 23
-0.999925
 33
0.714698
 62
1
  0
3DFACE
  8
Plane
 10
-0.999950
 20
0.999953
 30
0.714672
 11
-0.999944
 21
0.999946
 31
1.285334
 12
-0.999927
 22
-0.999925
 32
0.714698
 13
-0.999927
 23
-0.999925
 33
0.714698
 62
1
  0
3DFACE
  8
Plane
 10
0.999935
 20
0.038742
 30
1.285373
 11
0.999941
 21
-0.999943
 31
0.714724
 12
0.999942
 22
-0.999944
 32
0.809956
 13
0.999942
 23
-0.999944
 33
0.809956
 62
1
  0
3DFACE
  8
Plane
 10
0.999924
 20
0.999928
 30
1.285360
 11
0.999941
 21
-0.999943
 31
0.714724
 12
0.999935
 22
0.038742
 32
1.285373
 13
0.999935
 23
0.038742
 33
1.285373
 62
1
  0
3DFACE
  8
Plane
 10
0.999918
 20
0.999935
 30
0.714698
 11
0.999941
 21
-0.999943
 31
0.714724
 12
0.999924
 22
0.999928
 32
1.285360
 13
0.999924
 23
0.999928
 33
1.285360
 62
1
  0
3DFACE
  8
Plane
 10
0.999942
 20
-0.999944
 30
0.809956
 11
0.999941
 21
-0.999943
 31
0.714724
 12
-0.999927
 22
-0.999925
 32
0.714698
 13
-0.999926
 23
-0.999926
 33
0.809930
 62
1
  0
3DFACE
  8
Plane
 10
0.942388
 20
-0.119398
 30
1.212990
 11
-0.999933
 21
0.038761
 31
1.285347
 12
0.999935
 22
0.038742
 32
1.285373
 13
0.999935
 23
0.038742
 33
1.285373
 62
1
  0
3DFACE
  8
Plane
 10
0.942390
 20
-0.832447
 30
0.886620
 11
0.942388
 21
-0.119398
 31
1.212990
 12
0.999935
 22
0.038742
 32
1.285373
 13
0.999935
 23
0.038742
 33
1.285373
 62
1
  0
3DFACE
  8
Plane
 10
0.999942
 20
-0.999944
 30
0.809956
 11
0.942390
 21
-0.832447
 31
0.886620
 12
0.999935
 22
0.038742
 32
1.285373
 13
0.999935
 23
0.038742
 33
1.285373
 62
1
  0
3DFACE
  8
Plane
 10
0.999942
 20
-0.999944
 30
0.809956
 11
-0.942383
 21
-0.832430
 31
0.886595
 12
0.942390
 22
-0.832447
 32
0.886620
 13
0.942390
 23
-0.832447
 33
0.886620
 62
1
  0
3DFACE
  8
Plane
 10
-0.942385
 20
-0.119382
 30
1.212965
 11
-0.999933
 21
0.038761
 31
1.285347
 12
0.942388
 22
-0.119398
 32
1.212990
 13
0.942388
 23
-0.119398
 33
1.212990
 62
1
  0
3DFACE
  8
Plane
 10
-0.942383
 20
-0.832430
 30
0.886595
 11
-0.999933
 21
0.038761
 31
1.285347
 12
-0.942385
 22
-0.119382
 32
1.212965
 13
-0.942385
 23
-0.119382
 33
1.212965
 62
1
  0
3DFACE
  8
Plane
 10
-0.999926
 20
-0.999926
 30
0.809930
 11
-0.999933
 21
0.038761
 31
1.285347
 12
-0.942383
 22
-0.832430
 32
0.886595
 13
-0.942383
 23
-0.832430
 33
0.886595
 62
1
  0
3DFACE
  8
Plane
 10
-0.999926
 20
-0.999926
 30
0.809930
 11
-0.942383
 21
-0.832430
 31
0.886595
 12
0.999942
 22
-0.999944
 32
0.809956
 13
0.999942
 23
-0.999944
 33
0.809956
 62
1
  0
3DFACE
  8
Plane
 10
-0.847234
 20
0.121793
 30
1.302634
 11
-0.847223
 21
0.121782
 31
2.254959
 12
0.789649
 22
0.121767
 32
2.254980
 13
0.789638
 23
0.121778
 33
1.302655
 62
1
  0
3DFACE
  8
Plane
 10
-0.847234
 20
0.121793
 30
1.302634
 11
0.789638
 21
0.121778
 31
1.302655
 12
0.789628
 22
0.967351
 32
1.302644
 13
-0.847243
 23
0.967366
 33
1.302623
 62
1
  0
3DFACE
  8
Plane
 10
0.789638
 20
0.121778
 30
1.302655
 11
0.789649
 21
0.121767
 31
2.254980
 12
0.789639
 22
0.967340
 32
2.254969
 13
0.789628
 23
0.967351
 33
1.302644
 62
1
  0
3DFACE
  8
Plane
 10
0.789649
 20
0.121767
 30
2.254980
 11
-0.847223
 21
0.121782
 31
2.254959
 12
-0.847233
 22
0.967355
 32
2.254948
 13
0.789639
 23
0.967340
 33
2.254969
 62
1
  0
3DFACE
  8
Plane
 10
0.789628
 20
0.967351
 30
1.302644
 11
0.789639
 21
0.967340
 31
2.254969
 12
-0.847233
 22
0.967355
 32
2.254948
 13
-0.847243
 23
0.967366
 33
1.302623
 62
1
  0
3DFACE
  8
Plane
 10
-0.847243
 20
0.967366
 30
1.302623
 11
-0.847233
 21
0.967355
 31
2.254948
 12
-0.847223
 22
0.121782
 32
2.254959
 13
-0.847234
 23
0.121793
 33
1.302634
 62
1
  0
3DFACE
  8
Plane
 10
-0.942383
 20
-0.832430
 30
0.886595
 11
-0.942383
 21
-0.860279
 31
0.947813
 12
0.942391
 22
-0.860288
 32
0.947822
 13
0.942390
 23
-0.832447
 33
0.886620
 62
1
  0
3DFACE
  8
Plane
 10
0.942391
 20
-0.860288
 30
0.947822
 11
-0.942383
 21
-0.860279
 31
0.947813
 12
-0.942385
 22
-0.146471
 32
1.272514
 13
0.942389
 23
-0.146480
 33
1.272524
 62
1
  0
3DFACE
  8
Plane
 10
-0.942385
 20
-0.119382
 30
1.212965
 11
-0.942385
 21
-0.146471
 31
1.272514
 12
-0.942383
 22
-0.860279
 32
0.947813
 13
-0.942383
 23
-0.832430
 33
0.886595
 62
1
  0
3DFACE
  8
Plane
 10
0.942388
 20
-0.119398
 30
1.212990
 11
0.942389
 21
-0.146480
 31
1.272524
 12
-0.942385
 22
-0.146471
 32
1.272514
 13
-0.942385
 23
-0.119382
 33
1.212965
 62
1
  0
3DFACE
  8
Plane
 10
0.942390
 20
-0.832447
 30
0.886620
 11
0.942391
 21
-0.860288
 31
0.947822
 12
0.942389
 22
-0.146480
 32
1.272524
 13
0.942388
 23
-0.119398
 33
1.212990
 62
1
 0
ENDSEC
 0
EOF
