  0
SECTION
  2
HEADER
  0
ENDSEC
  0
SECTION
  2
TABLES
  0
TABLE
  2
LAYER
  70
    153
  0
LAYER
  2
Cube
 70
0
 62
15
  6
CONTINUOUS
  0
ENDTAB
  0
ENDSEC
  0
SECTION
  2
ENTITIES
  0
3DFACE
  8
Cube
 10
-0.346170
 20
0.999998
 30
1.166856
 11
0.323631
 21
0.999995
 31
1.166854
 12
0.323640
 22
-1.000005
 32
1.166861
 13
-0.346161
 23
-1.000003
 33
1.166862
 62
0
  0
3DFACE
  8
Cube
 10
0.323640
 20
-1.000005
 30
1.166861
 11
0.323641
 21
-1.000001
 31
0.202356
 12
-0.346160
 22
-0.999999
 32
0.202357
 13
-0.346161
 23
-1.000003
 33
1.166862
 62
0
  0
3DFACE
  8
Cube
 10
0.323632
 20
0.914043
 30
0.361885
 11
0.323631
 21
0.999995
 31
1.166854
 12
0.323632
 22
0.999999
 32
0.202349
 13
0.323632
 23
0.999999
 33
0.202349
 62
0
  0
3DFACE
  8
Cube
 10
0.323633
 20
0.833332
 30
0.361885
 11
0.323631
 21
0.999995
 31
1.166854
 12
0.323632
 22
0.914043
 32
0.361885
 13
0.323632
 23
0.914043
 33
0.361885
 62
0
  0
3DFACE
  8
Cube
 10
0.323632
 20
0.833329
 30
1.086479
 11
0.323631
 21
0.999995
 31
1.166854
 12
0.323633
 22
0.833332
 32
0.361885
 13
0.323633
 23
0.833332
 33
0.361885
 62
0
  0
3DFACE
  8
Cube
 10
0.323633
 20
0.449496
 30
1.086480
 11
0.323631
 21
0.999995
 31
1.166854
 12
0.323632
 22
0.833329
 32
1.086479
 13
0.323632
 23
0.833329
 33
1.086479
 62
0
  0
3DFACE
  8
Cube
 10
0.323633
 20
0.449496
 30
1.138412
 11
0.323631
 21
0.999995
 31
1.166854
 12
0.323633
 22
0.449496
 32
1.086480
 13
0.323633
 23
0.449496
 33
1.086480
 62
0
  0
3DFACE
  8
Cube
 10
0.323637
 20
-0.449506
 30
1.138416
 11
0.323631
 21
0.999995
 31
1.166854
 12
0.323633
 22
0.449496
 32
1.138412
 13
0.323633
 23
0.449496
 33
1.138412
 62
0
  0
3DFACE
  8
Cube
 10
0.323639
 20
-0.833338
 30
1.086485
 11
0.323637
 21
-0.449506
 31
1.138416
 12
0.323637
 22
-0.449505
 32
1.086483
 13
0.323637
 23
-0.449505
 33
1.086483
 62
0
  0
3DFACE
  8
Cube
 10
0.323640
 20
-0.902782
 30
0.361891
 11
0.323639
 21
-0.833338
 31
1.086485
 12
0.323640
 22
-0.833335
 32
0.361891
 13
0.323640
 23
-0.833335
 33
0.361891
 62
0
  0
3DFACE
  8
Cube
 10
0.323640
 20
-1.000005
 30
1.166861
 11
0.323631
 21
0.999995
 31
1.166854
 12
0.323637
 22
-0.449506
 32
1.138416
 13
0.323637
 23
-0.449506
 33
1.138416
 62
0
  0
3DFACE
  8
Cube
 10
0.323640
 20
-1.000005
 30
1.166861
 11
0.323637
 21
-0.449506
 31
1.138416
 12
0.323639
 22
-0.833338
 32
1.086485
 13
0.323639
 23
-0.833338
 33
1.086485
 62
0
  0
3DFACE
  8
Cube
 10
0.323640
 20
-1.000005
 30
1.166861
 11
0.323639
 21
-0.833338
 31
1.086485
 12
0.323640
 22
-0.902782
 32
0.361891
 13
0.323640
 23
-0.902782
 33
0.361891
 62
0
  0
3DFACE
  8
Cube
 10
0.323640
 20
-1.000005
 30
1.166861
 11
0.323640
 21
-0.902782
 31
0.361891
 12
0.323641
 22
-0.902782
 32
0.251653
 13
0.323641
 23
-0.902782
 33
0.251653
 62
0
  0
3DFACE
  8
Cube
 10
0.323633
 20
0.914043
 30
0.251647
 11
0.323632
 21
0.914043
 31
0.361885
 12
0.323632
 22
0.999999
 32
0.202349
 13
0.323632
 23
0.999999
 33
0.202349
 62
0
  0
3DFACE
  8
Cube
 10
0.323634
 20
0.685453
 30
0.251647
 11
0.323633
 21
0.914043
 31
0.251647
 12
0.323632
 22
0.999999
 32
0.202349
 13
0.323632
 23
0.999999
 33
0.202349
 62
0
  0
3DFACE
  8
Cube
 10
0.323639
 20
-0.674192
 30
0.282730
 11
0.323634
 21
0.685453
 31
0.282725
 12
0.323634
 22
0.685453
 32
0.251647
 13
0.323634
 23
0.685453
 33
0.251647
 62
0
  0
3DFACE
  8
Cube
 10
0.323639
 20
-0.674192
 30
0.282730
 11
0.323634
 21
0.685453
 31
0.251647
 12
0.323632
 22
0.999999
 32
0.202349
 13
0.323632
 23
0.999999
 33
0.202349
 62
0
  0
3DFACE
  8
Cube
 10
0.323640
 20
-0.674192
 30
0.251652
 11
0.323639
 21
-0.674192
 31
0.282730
 12
0.323632
 22
0.999999
 32
0.202349
 13
0.323632
 23
0.999999
 33
0.202349
 62
0
  0
3DFACE
  8
Cube
 10
0.323641
 20
-0.902782
 30
0.251653
 11
0.323640
 21
-0.674192
 31
0.251652
 12
0.323632
 22
0.999999
 32
0.202349
 13
0.323632
 23
0.999999
 33
0.202349
 62
0
  0
3DFACE
  8
Cube
 10
0.323641
 20
-1.000001
 30
0.202356
 11
0.323641
 21
-0.902782
 31
0.251653
 12
0.323632
 22
0.999999
 32
0.202349
 13
0.323632
 23
0.999999
 33
0.202349
 62
0
  0
3DFACE
  8
Cube
 10
0.323641
 20
-1.000001
 30
0.202356
 11
0.323640
 21
-1.000005
 31
1.166861
 12
0.323641
 22
-0.902782
 32
0.251653
 13
0.323641
 23
-0.902782
 33
0.251653
 62
0
  0
3DFACE
  8
Cube
 10
-0.346170
 20
0.999998
 30
1.166856
 11
-0.346169
 21
1.000002
 31
0.202351
 12
0.323632
 22
0.999999
 32
0.202349
 13
0.323631
 23
0.999995
 33
1.166854
 62
0
  0
3DFACE
  8
Cube
 10
0.323632
 20
0.999999
 30
0.202349
 11
-0.346169
 21
1.000002
 31
0.202351
 12
-0.346160
 22
-0.999999
 32
0.202357
 13
0.323641
 23
-1.000001
 33
0.202356
 62
0
  0
3DFACE
  8
Cube
 10
-0.346164
 20
-0.449503
 30
1.138417
 11
-0.346162
 21
-0.833336
 31
1.086486
 12
-0.346164
 22
-0.449502
 32
1.086485
 13
-0.346164
 23
-0.449502
 33
1.086485
 62
0
  0
3DFACE
  8
Cube
 10
-0.346168
 20
0.914046
 30
0.251648
 11
-0.346169
 21
1.000002
 31
0.202351
 12
-0.346170
 22
0.999998
 32
1.166856
 13
-0.346170
 23
0.999998
 33
1.166856
 62
0
  0
3DFACE
  8
Cube
 10
-0.346168
 20
0.914045
 30
0.361887
 11
-0.346168
 21
0.914046
 31
0.251648
 12
-0.346170
 22
0.999998
 32
1.166856
 13
-0.346170
 23
0.999998
 33
1.166856
 62
0
  0
3DFACE
  8
Cube
 10
-0.346168
 20
0.833334
 30
0.361887
 11
-0.346168
 21
0.914045
 31
0.361887
 12
-0.346170
 22
0.999998
 32
1.166856
 13
-0.346170
 23
0.999998
 33
1.166856
 62
0
  0
3DFACE
  8
Cube
 10
-0.346169
 20
0.833331
 30
1.086481
 11
-0.346168
 21
0.833334
 31
0.361887
 12
-0.346170
 22
0.999998
 32
1.166856
 13
-0.346170
 23
0.999998
 33
1.166856
 62
0
  0
3DFACE
  8
Cube
 10
-0.346167
 20
0.449499
 30
1.086482
 11
-0.346169
 21
0.833331
 31
1.086481
 12
-0.346170
 22
0.999998
 32
1.166856
 13
-0.346170
 23
0.999998
 33
1.166856
 62
0
  0
3DFACE
  8
Cube
 10
-0.346168
 20
0.449499
 30
1.138413
 11
-0.346167
 21
0.449499
 31
1.086482
 12
-0.346170
 22
0.999998
 32
1.166856
 13
-0.346170
 23
0.999998
 33
1.166856
 62
0
  0
3DFACE
  8
Cube
 10
-0.346164
 20
-0.449503
 30
1.138417
 11
-0.346168
 21
0.449499
 31
1.138413
 12
-0.346170
 22
0.999998
 32
1.166856
 13
-0.346170
 23
0.999998
 33
1.166856
 62
0
  0
3DFACE
  8
Cube
 10
-0.346161
 20
-0.902780
 30
0.361893
 11
-0.346161
 21
-0.833333
 31
0.361893
 12
-0.346162
 22
-0.833336
 32
1.086486
 13
-0.346162
 23
-0.833336
 33
1.086486
 62
0
  0
3DFACE
  8
Cube
 10
-0.346161
 20
-1.000003
 30
1.166862
 11
-0.346164
 21
-0.449503
 31
1.138417
 12
-0.346170
 22
0.999998
 32
1.166856
 13
-0.346170
 23
0.999998
 33
1.166856
 62
0
  0
3DFACE
  8
Cube
 10
-0.346161
 20
-1.000003
 30
1.166862
 11
-0.346162
 21
-0.833336
 31
1.086486
 12
-0.346164
 22
-0.449503
 32
1.138417
 13
-0.346164
 23
-0.449503
 33
1.138417
 62
0
  0
3DFACE
  8
Cube
 10
-0.346161
 20
-1.000003
 30
1.166862
 11
-0.346161
 21
-0.902780
 31
0.361893
 12
-0.346162
 22
-0.833336
 32
1.086486
 13
-0.346162
 23
-0.833336
 33
1.086486
 62
0
  0
3DFACE
  8
Cube
 10
-0.346167
 20
0.685456
 30
0.251649
 11
-0.346169
 21
1.000002
 31
0.202351
 12
-0.346168
 22
0.914046
 32
0.251648
 13
-0.346168
 23
0.914046
 33
0.251648
 62
0
  0
3DFACE
  8
Cube
 10
-0.346161
 20
-0.674189
 30
0.282732
 11
-0.346167
 21
0.685456
 31
0.251649
 12
-0.346167
 22
0.685456
 32
0.282727
 13
-0.346167
 23
0.685456
 33
0.282727
 62
0
  0
3DFACE
  8
Cube
 10
-0.346161
 20
-0.674189
 30
0.282732
 11
-0.346169
 21
1.000002
 31
0.202351
 12
-0.346167
 22
0.685456
 32
0.251649
 13
-0.346167
 23
0.685456
 33
0.251649
 62
0
  0
3DFACE
  8
Cube
 10
-0.346162
 20
-0.674189
 30
0.251654
 11
-0.346169
 21
1.000002
 31
0.202351
 12
-0.346161
 22
-0.674189
 32
0.282732
 13
-0.346161
 23
-0.674189
 33
0.282732
 62
0
  0
3DFACE
  8
Cube
 10
-0.346160
 20
-0.902779
 30
0.251655
 11
-0.346169
 21
1.000002
 31
0.202351
 12
-0.346162
 22
-0.674189
 32
0.251654
 13
-0.346162
 23
-0.674189
 33
0.251654
 62
0
  0
3DFACE
  8
Cube
 10
-0.346160
 20
-0.999999
 30
0.202357
 11
-0.346169
 21
1.000002
 31
0.202351
 12
-0.346160
 22
-0.902779
 32
0.251655
 13
-0.346160
 23
-0.902779
 33
0.251655
 62
0
  0
3DFACE
  8
Cube
 10
-0.346160
 20
-0.999999
 30
0.202357
 11
-0.346160
 21
-0.902779
 31
0.251655
 12
-0.346161
 22
-0.902780
 32
0.361893
 13
-0.346161
 23
-0.902780
 33
0.361893
 62
0
  0
3DFACE
  8
Cube
 10
-0.346161
 20
-1.000003
 30
1.166862
 11
-0.346160
 21
-0.999999
 31
0.202357
 12
-0.346161
 22
-0.902780
 32
0.361893
 13
-0.346161
 23
-0.902780
 33
0.361893
 62
0
  0
3DFACE
  8
Cube
 10
0.323634
 20
0.685453
 30
0.282725
 11
0.323639
 21
-0.674192
 31
0.282730
 12
-0.346161
 22
-0.674189
 32
0.282732
 13
-0.346167
 23
0.685456
 33
0.282727
 62
0
  0
3DFACE
  8
Cube
 10
-0.346164
 20
-0.449502
 30
1.086485
 11
-0.346162
 21
-0.833336
 31
1.086486
 12
0.323639
 22
-0.833338
 32
1.086485
 13
0.323637
 23
-0.449505
 33
1.086483
 62
0
  0
3DFACE
  8
Cube
 10
-0.346168
 20
0.833334
 30
0.361887
 11
-0.346169
 21
0.833331
 31
1.086481
 12
0.323632
 22
0.833329
 32
1.086479
 13
0.323633
 23
0.833332
 33
0.361885
 62
0
  0
3DFACE
  8
Cube
 10
1.653855
 20
-1.000011
 30
1.166857
 11
1.653846
 21
0.999990
 31
1.166850
 12
2.323647
 22
0.999988
 32
1.166849
 13
2.323656
 23
-1.000013
 33
1.166855
 62
0
  0
3DFACE
  8
Cube
 10
1.653855
 20
-1.000011
 30
1.166857
 11
2.323656
 21
-1.000013
 31
1.166855
 12
2.323657
 22
-1.000009
 32
0.202350
 13
1.653856
 23
-1.000007
 33
0.202352
 62
0
  0
3DFACE
  8
Cube
 10
2.323649
 20
0.914035
 30
0.361880
 11
2.323647
 21
0.999988
 31
1.166849
 12
2.323648
 22
0.999992
 32
0.202343
 13
2.323648
 23
0.999992
 33
0.202343
 62
0
  0
3DFACE
  8
Cube
 10
2.323649
 20
0.914036
 30
0.251641
 11
2.323649
 21
0.914035
 31
0.361880
 12
2.323648
 22
0.999992
 32
0.202343
 13
2.323648
 23
0.999992
 33
0.202343
 62
0
  0
3DFACE
  8
Cube
 10
2.323650
 20
0.685446
 30
0.251642
 11
2.323649
 21
0.914036
 31
0.251641
 12
2.323648
 22
0.999992
 32
0.202343
 13
2.323648
 23
0.999992
 33
0.202343
 62
0
  0
3DFACE
  8
Cube
 10
2.323656
 20
-0.674200
 30
0.282724
 11
2.323650
 21
0.685445
 31
0.282720
 12
2.323650
 22
0.685446
 32
0.251642
 13
2.323650
 23
0.685446
 33
0.251642
 62
0
  0
3DFACE
  8
Cube
 10
2.323656
 20
-0.674200
 30
0.282724
 11
2.323650
 21
0.685446
 31
0.251642
 12
2.323648
 22
0.999992
 32
0.202343
 13
2.323648
 23
0.999992
 33
0.202343
 62
0
  0
3DFACE
  8
Cube
 10
2.323656
 20
-0.674199
 30
0.251647
 11
2.323656
 21
-0.674200
 31
0.282724
 12
2.323648
 22
0.999992
 32
0.202343
 13
2.323648
 23
0.999992
 33
0.202343
 62
0
  0
3DFACE
  8
Cube
 10
2.323657
 20
-0.902790
 30
0.251647
 11
2.323656
 21
-0.674199
 31
0.251647
 12
2.323648
 22
0.999992
 32
0.202343
 13
2.323648
 23
0.999992
 33
0.202343
 62
0
  0
3DFACE
  8
Cube
 10
2.323657
 20
-1.000009
 30
0.202350
 11
2.323657
 21
-0.902790
 31
0.251647
 12
2.323648
 22
0.999992
 32
0.202343
 13
2.323648
 23
0.999992
 33
0.202343
 62
0
  0
3DFACE
  8
Cube
 10
2.323649
 20
0.833324
 30
0.361880
 11
2.323647
 21
0.999988
 31
1.166849
 12
2.323649
 22
0.914035
 32
0.361880
 13
2.323649
 23
0.914035
 33
0.361880
 62
0
  0
3DFACE
  8
Cube
 10
2.323648
 20
0.833321
 30
1.086474
 11
2.323647
 21
0.999988
 31
1.166849
 12
2.323649
 22
0.833324
 32
0.361880
 13
2.323649
 23
0.833324
 33
0.361880
 62
0
  0
3DFACE
  8
Cube
 10
2.323656
 20
-0.833346
 30
1.086479
 11
2.323647
 21
0.999988
 31
1.166849
 12
2.323648
 22
0.833321
 32
1.086474
 13
2.323648
 23
0.833321
 33
1.086474
 62
0
  0
3DFACE
  8
Cube
 10
2.323657
 20
-1.000009
 30
0.202350
 11
2.323657
 21
-0.902790
 31
0.361886
 12
2.323657
 22
-0.902790
 32
0.251647
 13
2.323657
 23
-0.902790
 33
0.251647
 62
0
  0
3DFACE
  8
Cube
 10
2.323657
 20
-1.000009
 30
0.202350
 11
2.323656
 21
-0.833346
 31
1.086479
 12
2.323657
 22
-0.902790
 32
0.361886
 13
2.323657
 23
-0.902790
 33
0.361886
 62
0
  0
3DFACE
  8
Cube
 10
2.323656
 20
-1.000013
 30
1.166855
 11
2.323647
 21
0.999988
 31
1.166849
 12
2.323656
 22
-0.833346
 32
1.086479
 13
2.323656
 23
-0.833346
 33
1.086479
 62
0
  0
3DFACE
  8
Cube
 10
2.323656
 20
-1.000013
 30
1.166855
 11
2.323656
 21
-0.833346
 31
1.086479
 12
2.323657
 22
-1.000009
 32
0.202350
 13
2.323657
 23
-1.000009
 33
0.202350
 62
0
  0
3DFACE
  8
Cube
 10
2.323656
 20
-0.833346
 30
1.086479
 11
2.323656
 21
-0.833343
 31
0.361885
 12
2.323657
 22
-0.902790
 32
0.361886
 13
2.323657
 23
-0.902790
 33
0.361886
 62
0
  0
3DFACE
  8
Cube
 10
2.323647
 20
0.999988
 30
1.166849
 11
1.653846
 21
0.999990
 31
1.166850
 12
1.653847
 22
0.999994
 32
0.202345
 13
2.323648
 23
0.999992
 33
0.202343
 62
0
  0
3DFACE
  8
Cube
 10
2.323657
 20
-1.000009
 30
0.202350
 11
2.323648
 21
0.999992
 31
0.202343
 12
1.653847
 22
0.999994
 32
0.202345
 13
1.653856
 23
-1.000007
 33
0.202352
 62
0
  0
3DFACE
  8
Cube
 10
1.653853
 20
-0.449511
 30
1.138413
 11
1.653854
 21
-0.833344
 31
1.086481
 12
1.653852
 22
-0.449511
 32
1.086480
 13
1.653852
 23
-0.449511
 33
1.086480
 62
0
  0
3DFACE
  8
Cube
 10
1.653847
 20
0.914038
 30
0.361881
 11
1.653847
 21
0.914038
 31
0.251643
 12
1.653846
 22
0.999990
 32
1.166850
 13
1.653846
 23
0.999990
 33
1.166850
 62
0
  0
3DFACE
  8
Cube
 10
1.653848
 20
0.833327
 30
0.361882
 11
1.653847
 21
0.914038
 31
0.361881
 12
1.653846
 22
0.999990
 32
1.166850
 13
1.653846
 23
0.999990
 33
1.166850
 62
0
  0
3DFACE
  8
Cube
 10
1.653847
 20
0.833324
 30
1.086476
 11
1.653848
 21
0.833327
 31
0.361882
 12
1.653846
 22
0.999990
 32
1.166850
 13
1.653846
 23
0.999990
 33
1.166850
 62
0
  0
3DFACE
  8
Cube
 10
1.653849
 20
0.449490
 30
1.086477
 11
1.653847
 21
0.833324
 31
1.086476
 12
1.653846
 22
0.999990
 32
1.166850
 13
1.653846
 23
0.999990
 33
1.166850
 62
0
  0
3DFACE
  8
Cube
 10
1.653849
 20
0.449490
 30
1.138410
 11
1.653849
 21
0.449490
 31
1.086477
 12
1.653846
 22
0.999990
 32
1.166850
 13
1.653846
 23
0.999990
 33
1.166850
 62
0
  0
3DFACE
  8
Cube
 10
1.653853
 20
-0.449511
 30
1.138413
 11
1.653849
 21
0.449490
 31
1.138410
 12
1.653846
 22
0.999990
 32
1.166850
 13
1.653846
 23
0.999990
 33
1.166850
 62
0
  0
3DFACE
  8
Cube
 10
1.653856
 20
-1.000007
 30
0.202352
 11
1.653855
 21
-0.902787
 31
0.361887
 12
1.653854
 22
-0.833344
 32
1.086481
 13
1.653854
 23
-0.833344
 33
1.086481
 62
0
  0
3DFACE
  8
Cube
 10
1.653855
 20
-1.000011
 30
1.166857
 11
1.653853
 21
-0.449511
 31
1.138413
 12
1.653846
 22
0.999990
 32
1.166850
 13
1.653846
 23
0.999990
 33
1.166850
 62
0
  0
3DFACE
  8
Cube
 10
1.653855
 20
-1.000011
 30
1.166857
 11
1.653854
 21
-0.833344
 31
1.086481
 12
1.653853
 22
-0.449511
 32
1.138413
 13
1.653853
 23
-0.449511
 33
1.138413
 62
0
  0
3DFACE
  8
Cube
 10
1.653855
 20
-1.000011
 30
1.166857
 11
1.653856
 21
-1.000007
 31
0.202352
 12
1.653854
 22
-0.833344
 32
1.086481
 13
1.653854
 23
-0.833344
 33
1.086481
 62
0
  0
3DFACE
  8
Cube
 10
1.653855
 20
-0.902787
 30
0.361887
 11
1.653855
 21
-0.833341
 31
0.361887
 12
1.653854
 22
-0.833344
 32
1.086481
 13
1.653854
 23
-0.833344
 33
1.086481
 62
0
  0
3DFACE
  8
Cube
 10
1.653847
 20
0.914038
 30
0.251643
 11
1.653847
 21
0.999994
 31
0.202345
 12
1.653846
 22
0.999990
 32
1.166850
 13
1.653846
 23
0.999990
 33
1.166850
 62
0
  0
3DFACE
  8
Cube
 10
1.653849
 20
0.685448
 30
0.251644
 11
1.653847
 21
0.999994
 31
0.202345
 12
1.653847
 22
0.914038
 32
0.251643
 13
1.653847
 23
0.914038
 33
0.251643
 62
0
  0
3DFACE
  8
Cube
 10
1.653854
 20
-0.674197
 30
0.251648
 11
1.653849
 21
0.685448
 31
0.251644
 12
1.653849
 22
0.685448
 32
0.282722
 13
1.653849
 23
0.685448
 33
0.282722
 62
0
  0
3DFACE
  8
Cube
 10
1.653854
 20
-0.674197
 30
0.251648
 11
1.653847
 21
0.999994
 31
0.202345
 12
1.653849
 22
0.685448
 32
0.251644
 13
1.653849
 23
0.685448
 33
0.251644
 62
0
  0
3DFACE
  8
Cube
 10
1.653856
 20
-0.902787
 30
0.251649
 11
1.653847
 21
0.999994
 31
0.202345
 12
1.653854
 22
-0.674197
 32
0.251648
 13
1.653854
 23
-0.674197
 33
0.251648
 62
0
  0
3DFACE
  8
Cube
 10
1.653856
 20
-1.000007
 30
0.202352
 11
1.653847
 21
0.999994
 31
0.202345
 12
1.653856
 22
-0.902787
 32
0.251649
 13
1.653856
 23
-0.902787
 33
0.251649
 62
0
  0
3DFACE
  8
Cube
 10
1.653856
 20
-1.000007
 30
0.202352
 11
1.653856
 21
-0.902787
 31
0.251649
 12
1.653855
 22
-0.902787
 32
0.361887
 13
1.653855
 23
-0.902787
 33
0.361887
 62
0
  0
3DFACE
  8
Cube
 10
1.653849
 20
0.685448
 30
0.282722
 11
1.653854
 21
-0.674197
 31
0.282726
 12
1.653854
 22
-0.674197
 32
0.251648
 13
1.653854
 23
-0.674197
 33
0.251648
 62
0
  0
3DFACE
  8
Cube
 10
1.653848
 20
0.833327
 30
0.361882
 11
1.653847
 21
0.833324
 31
1.086476
 12
2.323648
 22
0.833321
 32
1.086474
 13
2.323649
 23
0.833324
 33
0.361880
 62
0
  0
3DFACE
  8
Cube
 10
-2.346178
 20
-0.999995
 30
1.166868
 11
-2.346186
 21
1.000005
 31
1.166861
 12
-1.676385
 22
1.000003
 32
1.166859
 13
-1.676376
 23
-0.999998
 33
1.166866
 62
0
  0
3DFACE
  8
Cube
 10
-2.346178
 20
-0.999995
 30
1.166868
 11
-1.676376
 21
-0.999998
 31
1.166866
 12
-1.676375
 22
-0.999994
 32
0.202361
 13
-2.346176
 23
-0.999991
 33
0.202363
 62
0
  0
3DFACE
  8
Cube
 10
-1.676383
 20
0.833340
 30
0.361890
 11
-1.676385
 21
1.000003
 31
1.166859
 12
-1.676384
 22
0.914051
 32
0.361890
 13
-1.676384
 23
0.914051
 33
0.361890
 62
0
  0
3DFACE
  8
Cube
 10
-1.676384
 20
0.833336
 30
1.086484
 11
-1.676385
 21
1.000003
 31
1.166859
 12
-1.676383
 22
0.833340
 32
0.361890
 13
-1.676383
 23
0.833340
 33
0.361890
 62
0
  0
3DFACE
  8
Cube
 10
-1.676382
 20
0.449504
 30
1.086486
 11
-1.676385
 21
1.000003
 31
1.166859
 12
-1.676384
 22
0.833336
 32
1.086484
 13
-1.676384
 23
0.833336
 33
1.086484
 62
0
  0
3DFACE
  8
Cube
 10
-1.676383
 20
0.449504
 30
1.138416
 11
-1.676385
 21
1.000003
 31
1.166859
 12
-1.676382
 22
0.449504
 32
1.086486
 13
-1.676382
 23
0.449504
 33
1.086486
 62
0
  0
3DFACE
  8
Cube
 10
-1.676379
 20
-0.449497
 30
1.138419
 11
-1.676385
 21
1.000003
 31
1.166859
 12
-1.676383
 22
0.449504
 32
1.138416
 13
-1.676383
 23
0.449504
 33
1.138416
 62
0
  0
3DFACE
  8
Cube
 10
-1.676375
 20
-0.999994
 30
0.202361
 11
-1.676376
 21
-0.902775
 31
0.361896
 12
-1.676375
 22
-0.902774
 32
0.251658
 13
-1.676375
 23
-0.902774
 33
0.251658
 62
0
  0
3DFACE
  8
Cube
 10
-1.676375
 20
-0.999994
 30
0.202361
 11
-1.676377
 21
-0.833331
 31
1.086490
 12
-1.676376
 22
-0.902775
 32
0.361896
 13
-1.676376
 23
-0.902775
 33
0.361896
 62
0
  0
3DFACE
  8
Cube
 10
-1.676376
 20
-0.999998
 30
1.166866
 11
-1.676385
 21
1.000003
 31
1.166859
 12
-1.676379
 22
-0.449497
 32
1.138419
 13
-1.676379
 23
-0.449497
 33
1.138419
 62
0
  0
3DFACE
  8
Cube
 10
-1.676376
 20
-0.999998
 30
1.166866
 11
-1.676379
 21
-0.449497
 31
1.138419
 12
-1.676377
 22
-0.833331
 32
1.086490
 13
-1.676377
 23
-0.833331
 33
1.086490
 62
0
  0
3DFACE
  8
Cube
 10
-1.676376
 20
-0.999998
 30
1.166866
 11
-1.676377
 21
-0.833331
 31
1.086490
 12
-1.676375
 22
-0.999994
 32
0.202361
 13
-1.676375
 23
-0.999994
 33
0.202361
 62
0
  0
3DFACE
  8
Cube
 10
-1.676384
 20
0.914051
 30
0.361890
 11
-1.676385
 21
1.000003
 31
1.166859
 12
-1.676384
 22
1.000007
 32
0.202354
 13
-1.676384
 23
1.000007
 33
0.202354
 62
0
  0
3DFACE
  8
Cube
 10
-1.676383
 20
0.914051
 30
0.251652
 11
-1.676384
 21
0.914051
 31
0.361890
 12
-1.676384
 22
1.000007
 32
0.202354
 13
-1.676384
 23
1.000007
 33
0.202354
 62
0
  0
3DFACE
  8
Cube
 10
-1.676382
 20
0.685461
 30
0.251653
 11
-1.676383
 21
0.914051
 31
0.251652
 12
-1.676384
 22
1.000007
 32
0.202354
 13
-1.676384
 23
1.000007
 33
0.202354
 62
0
  0
3DFACE
  8
Cube
 10
-1.676377
 20
-0.674184
 30
0.282735
 11
-1.676382
 21
0.685461
 31
0.282731
 12
-1.676382
 22
0.685461
 32
0.251653
 13
-1.676382
 23
0.685461
 33
0.251653
 62
0
  0
3DFACE
  8
Cube
 10
-1.676377
 20
-0.674184
 30
0.282735
 11
-1.676382
 21
0.685461
 31
0.251653
 12
-1.676384
 22
1.000007
 32
0.202354
 13
-1.676384
 23
1.000007
 33
0.202354
 62
0
  0
3DFACE
  8
Cube
 10
-1.676377
 20
-0.674184
 30
0.251657
 11
-1.676377
 21
-0.674184
 31
0.282735
 12
-1.676384
 22
1.000007
 32
0.202354
 13
-1.676384
 23
1.000007
 33
0.202354
 62
0
  0
3DFACE
  8
Cube
 10
-1.676375
 20
-0.902774
 30
0.251658
 11
-1.676377
 21
-0.674184
 31
0.251657
 12
-1.676384
 22
1.000007
 32
0.202354
 13
-1.676384
 23
1.000007
 33
0.202354
 62
0
  0
3DFACE
  8
Cube
 10
-1.676375
 20
-0.999994
 30
0.202361
 11
-1.676375
 21
-0.902774
 31
0.251658
 12
-1.676384
 22
1.000007
 32
0.202354
 13
-1.676384
 23
1.000007
 33
0.202354
 62
0
  0
3DFACE
  8
Cube
 10
-1.676377
 20
-0.833331
 30
1.086490
 11
-1.676376
 21
-0.833328
 31
0.361896
 12
-1.676376
 22
-0.902775
 32
0.361896
 13
-1.676376
 23
-0.902775
 33
0.361896
 62
0
  0
3DFACE
  8
Cube
 10
-1.676379
 20
-0.449497
 30
1.138419
 11
-1.676379
 21
-0.449497
 31
1.086489
 12
-1.676377
 22
-0.833331
 32
1.086490
 13
-1.676377
 23
-0.833331
 33
1.086490
 62
0
  0
3DFACE
  8
Cube
 10
-1.676385
 20
1.000003
 30
1.166859
 11
-2.346186
 21
1.000005
 31
1.166861
 12
-2.346185
 22
1.000010
 32
0.202356
 13
-1.676384
 23
1.000007
 33
0.202354
 62
0
  0
3DFACE
  8
Cube
 10
-1.676375
 20
-0.999994
 30
0.202361
 11
-1.676384
 21
1.000007
 31
0.202354
 12
-2.346185
 22
1.000010
 32
0.202356
 13
-2.346176
 23
-0.999991
 33
0.202363
 62
0
  0
3DFACE
  8
Cube
 10
-2.346185
 20
0.914053
 30
0.361892
 11
-2.346185
 21
0.914054
 31
0.251654
 12
-2.346186
 22
1.000005
 32
1.166861
 13
-2.346186
 23
1.000005
 33
1.166861
 62
0
  0
3DFACE
  8
Cube
 10
-2.346184
 20
0.833342
 30
0.361892
 11
-2.346185
 21
0.914053
 31
0.361892
 12
-2.346186
 22
1.000005
 32
1.166861
 13
-2.346186
 23
1.000005
 33
1.166861
 62
0
  0
3DFACE
  8
Cube
 10
-2.346185
 20
0.833339
 30
1.086486
 11
-2.346184
 21
0.833342
 31
0.361892
 12
-2.346186
 22
1.000005
 32
1.166861
 13
-2.346186
 23
1.000005
 33
1.166861
 62
0
  0
3DFACE
  8
Cube
 10
-2.346178
 20
-0.833328
 30
1.086492
 11
-2.346185
 21
0.833339
 31
1.086486
 12
-2.346186
 22
1.000005
 32
1.166861
 13
-2.346186
 23
1.000005
 33
1.166861
 62
0
  0
3DFACE
  8
Cube
 10
-2.346176
 20
-0.999991
 30
0.202363
 11
-2.346177
 21
-0.902772
 31
0.361898
 12
-2.346178
 22
-0.833328
 32
1.086492
 13
-2.346178
 23
-0.833328
 33
1.086492
 62
0
  0
3DFACE
  8
Cube
 10
-2.346178
 20
-0.999995
 30
1.166868
 11
-2.346178
 21
-0.833328
 31
1.086492
 12
-2.346186
 22
1.000005
 32
1.166861
 13
-2.346186
 23
1.000005
 33
1.166861
 62
0
  0
3DFACE
  8
Cube
 10
-2.346178
 20
-0.999995
 30
1.166868
 11
-2.346176
 21
-0.999991
 31
0.202363
 12
-2.346178
 22
-0.833328
 32
1.086492
 13
-2.346178
 23
-0.833328
 33
1.086492
 62
0
  0
3DFACE
  8
Cube
 10
-2.346177
 20
-0.902772
 30
0.361898
 11
-2.346177
 21
-0.833325
 31
0.361898
 12
-2.346178
 22
-0.833328
 32
1.086492
 13
-2.346178
 23
-0.833328
 33
1.086492
 62
0
  0
3DFACE
  8
Cube
 10
-2.346185
 20
0.914054
 30
0.251654
 11
-2.346185
 21
1.000010
 31
0.202356
 12
-2.346186
 22
1.000005
 32
1.166861
 13
-2.346186
 23
1.000005
 33
1.166861
 62
0
  0
3DFACE
  8
Cube
 10
-2.346184
 20
0.685464
 30
0.251655
 11
-2.346185
 21
1.000010
 31
0.202356
 12
-2.346185
 22
0.914054
 32
0.251654
 13
-2.346185
 23
0.914054
 33
0.251654
 62
0
  0
3DFACE
  8
Cube
 10
-2.346178
 20
-0.674181
 30
0.251659
 11
-2.346184
 21
0.685464
 31
0.251655
 12
-2.346184
 22
0.685463
 32
0.282732
 13
-2.346184
 23
0.685463
 33
0.282732
 62
0
  0
3DFACE
  8
Cube
 10
-2.346178
 20
-0.674181
 30
0.251659
 11
-2.346185
 21
1.000010
 31
0.202356
 12
-2.346184
 22
0.685464
 32
0.251655
 13
-2.346184
 23
0.685464
 33
0.251655
 62
0
  0
3DFACE
  8
Cube
 10
-2.346177
 20
-0.902772
 30
0.251660
 11
-2.346185
 21
1.000010
 31
0.202356
 12
-2.346178
 22
-0.674181
 32
0.251659
 13
-2.346178
 23
-0.674181
 33
0.251659
 62
0
  0
3DFACE
  8
Cube
 10
-2.346176
 20
-0.999991
 30
0.202363
 11
-2.346185
 21
1.000010
 31
0.202356
 12
-2.346177
 22
-0.902772
 32
0.251660
 13
-2.346177
 23
-0.902772
 33
0.251660
 62
0
  0
3DFACE
  8
Cube
 10
-2.346176
 20
-0.999991
 30
0.202363
 11
-2.346177
 21
-0.902772
 31
0.251660
 12
-2.346177
 22
-0.902772
 32
0.361898
 13
-2.346177
 23
-0.902772
 33
0.361898
 62
0
  0
3DFACE
  8
Cube
 10
-2.346184
 20
0.685463
 30
0.282732
 11
-2.346178
 21
-0.674182
 31
0.282737
 12
-2.346178
 22
-0.674181
 32
0.251659
 13
-2.346178
 23
-0.674181
 33
0.251659
 62
0
  0
3DFACE
  8
Cube
 10
-2.346184
 20
0.833342
 30
0.361892
 11
-2.346185
 21
0.833339
 31
1.086486
 12
-1.676384
 22
0.833336
 32
1.086484
 13
-1.676383
 23
0.833340
 33
0.361890
 62
0
  0
3DFACE
  8
Cube
 10
-1.676382
 20
0.685461
 30
0.282731
 11
-1.676377
 21
-0.674184
 31
0.282735
 12
-2.346178
 22
-0.674182
 32
0.282737
 13
-2.346184
 23
0.685463
 33
0.282732
 62
0
  0
3DFACE
  8
Cube
 10
0.323640
 20
-0.833335
 30
0.361891
 11
0.323639
 21
-0.833338
 31
1.086485
 12
-0.346162
 22
-0.833336
 32
1.086486
 13
-0.346161
 23
-0.833333
 33
0.361893
 62
0
  0
3DFACE
  8
Cube
 10
-1.676376
 20
-0.833328
 30
0.361896
 11
-1.676377
 21
-0.833331
 31
1.086490
 12
-2.346178
 22
-0.833328
 32
1.086492
 13
-2.346177
 23
-0.833325
 33
0.361898
 62
0
  0
3DFACE
  8
Cube
 10
2.323656
 20
-0.833343
 30
0.361885
 11
2.323656
 21
-0.833346
 31
1.086479
 12
1.653854
 22
-0.833344
 32
1.086481
 13
1.653855
 23
-0.833341
 33
0.361887
 62
0
  0
3DFACE
  8
Cube
 10
2.323650
 20
0.685445
 30
0.282720
 11
2.323656
 21
-0.674200
 31
0.282724
 12
1.653854
 22
-0.674197
 32
0.282726
 13
1.653849
 23
0.685448
 33
0.282722
 62
0
  0
3DFACE
  8
Cube
 10
2.677739
 20
0.685444
 30
0.361879
 11
2.677738
 21
0.914034
 31
0.361879
 12
2.677739
 22
0.914034
 32
0.251640
 13
2.677740
 23
0.685444
 33
0.251641
 62
0
  0
3DFACE
  8
Cube
 10
-2.346185
 20
0.914053
 30
0.361892
 11
-2.660222
 21
0.914054
 31
0.361893
 12
-2.660222
 22
0.914055
 32
0.251655
 13
-2.346185
 23
0.914054
 33
0.251654
 62
0
  0
3DFACE
  8
Cube
 10
-2.346185
 20
0.914054
 30
0.251654
 11
-2.660222
 21
0.914055
 31
0.251655
 12
-2.660221
 22
0.685465
 32
0.251655
 13
-2.346184
 23
0.685464
 33
0.251655
 62
0
  0
3DFACE
  8
Cube
 10
-2.660221
 20
0.685465
 30
0.251655
 11
-2.660222
 21
0.914055
 31
0.251655
 12
-2.660222
 22
0.914054
 32
0.361893
 13
-2.660221
 23
0.685464
 33
0.361894
 62
0
  0
3DFACE
  8
Cube
 10
2.323657
 20
-0.902790
 30
0.361886
 11
2.677746
 21
-0.902791
 31
0.361885
 12
2.677747
 22
-0.902791
 32
0.251646
 13
2.323657
 23
-0.902790
 33
0.251647
 62
0
  0
3DFACE
  8
Cube
 10
2.677746
 20
-0.902791
 30
0.361885
 11
2.677745
 21
-0.674201
 31
0.361884
 12
2.677746
 22
-0.674201
 32
0.251646
 13
2.677747
 23
-0.902791
 33
0.251646
 62
0
  0
3DFACE
  8
Cube
 10
-2.346178
 20
-0.674181
 30
0.251659
 11
-2.660215
 21
-0.674180
 31
0.251660
 12
-2.660214
 22
-0.902770
 32
0.251661
 13
-2.346177
 23
-0.902772
 33
0.251660
 62
0
  0
3DFACE
  8
Cube
 10
-2.660214
 20
-0.902770
 30
0.251661
 11
-2.660215
 21
-0.674180
 31
0.251660
 12
-2.660215
 22
-0.674181
 32
0.361898
 13
-2.660214
 23
-0.902771
 33
0.361899
 62
0
  0
3DFACE
  8
Cube
 10
-0.346162
 20
-0.674189
 30
0.251654
 11
-1.676377
 21
-0.674184
 31
0.251657
 12
-1.676375
 22
-0.902774
 32
0.251658
 13
-0.346160
 23
-0.902779
 33
0.251655
 62
0
  0
3DFACE
  8
Cube
 10
1.653854
 20
-0.674197
 30
0.282726
 11
0.323640
 21
-0.674192
 31
0.251652
 12
1.653854
 22
-0.674197
 32
0.251648
 13
1.653854
 23
-0.674197
 33
0.251648
 62
0
  0
3DFACE
  8
Cube
 10
0.323639
 20
-0.674192
 30
0.282730
 11
0.323640
 21
-0.674192
 31
0.251652
 12
1.653854
 22
-0.674197
 32
0.282726
 13
1.653854
 23
-0.674197
 33
0.282726
 62
0
  0
3DFACE
  8
Cube
 10
2.323656
 20
-0.674200
 30
0.282724
 11
0.323639
 21
-0.674192
 31
0.282730
 12
1.653854
 22
-0.674197
 32
0.282726
 13
1.653854
 23
-0.674197
 33
0.282726
 62
0
  0
3DFACE
  8
Cube
 10
-2.346178
 20
-0.674182
 30
0.282737
 11
-2.660215
 21
-0.674180
 31
0.251660
 12
-2.346178
 22
-0.674181
 32
0.251659
 13
-2.346178
 23
-0.674181
 33
0.251659
 62
0
  0
3DFACE
  8
Cube
 10
-0.346161
 20
-0.674189
 30
0.282732
 11
-2.346178
 21
-0.674182
 31
0.282737
 12
-1.676377
 22
-0.674184
 32
0.282735
 13
-1.676377
 23
-0.674184
 33
0.282735
 62
0
  0
3DFACE
  8
Cube
 10
2.323656
 20
-0.674200
 30
0.282724
 11
-0.346161
 21
-0.674189
 31
0.282732
 12
0.323639
 22
-0.674192
 32
0.282730
 13
0.323639
 23
-0.674192
 33
0.282730
 62
0
  0
3DFACE
  8
Cube
 10
-2.660215
 20
-0.674181
 30
0.361898
 11
-2.660215
 21
-0.674180
 31
0.251660
 12
-2.346178
 22
-0.674182
 32
0.282737
 13
-2.346178
 23
-0.674182
 33
0.282737
 62
0
  0
3DFACE
  8
Cube
 10
-2.660215
 20
-0.674181
 30
0.361898
 11
-2.346178
 21
-0.674182
 31
0.282737
 12
-0.346161
 22
-0.674189
 32
0.282732
 13
-0.346161
 23
-0.674189
 33
0.282732
 62
0
  0
3DFACE
  8
Cube
 10
-2.660215
 20
-0.674181
 30
0.361898
 11
-0.346161
 21
-0.674189
 31
0.282732
 12
2.323656
 22
-0.674200
 32
0.282724
 13
2.323656
 23
-0.674200
 33
0.282724
 62
0
  0
3DFACE
  8
Cube
 10
-1.676377
 20
-0.674184
 30
0.282735
 11
-1.676377
 21
-0.674184
 31
0.251657
 12
-0.346162
 22
-0.674189
 32
0.251654
 13
-0.346162
 23
-0.674189
 33
0.251654
 62
0
  0
3DFACE
  8
Cube
 10
-0.346161
 20
-0.674189
 30
0.282732
 11
-1.676377
 21
-0.674184
 31
0.282735
 12
-0.346162
 22
-0.674189
 32
0.251654
 13
-0.346162
 23
-0.674189
 33
0.251654
 62
0
  0
3DFACE
  8
Cube
 10
2.323656
 20
-0.674200
 30
0.282724
 11
2.323656
 21
-0.674199
 31
0.251647
 12
2.677746
 22
-0.674201
 32
0.251646
 13
2.677746
 23
-0.674201
 33
0.251646
 62
0
  0
3DFACE
  8
Cube
 10
2.677745
 20
-0.674201
 30
0.361884
 11
2.323656
 21
-0.674200
 31
0.282724
 12
2.677746
 22
-0.674201
 32
0.251646
 13
2.677746
 23
-0.674201
 33
0.251646
 62
0
  0
3DFACE
  8
Cube
 10
2.677745
 20
-0.674201
 30
0.361884
 11
-2.660215
 21
-0.674181
 31
0.361898
 12
2.323656
 22
-0.674200
 32
0.282724
 13
2.323656
 23
-0.674200
 33
0.282724
 62
0
  0
3DFACE
  8
Cube
 10
2.323649
 20
0.833324
 30
0.361880
 11
2.677738
 21
0.914034
 31
0.361879
 12
2.677739
 22
0.685444
 32
0.361879
 13
2.677739
 23
0.685444
 33
0.361879
 62
0
  0
3DFACE
  8
Cube
 10
1.653848
 20
0.833327
 30
0.361882
 11
2.323649
 21
0.833324
 31
0.361880
 12
2.677739
 22
0.685444
 32
0.361879
 13
2.677739
 23
0.685444
 33
0.361879
 62
0
  0
3DFACE
  8
Cube
 10
0.323632
 20
0.914043
 30
0.361885
 11
1.653847
 21
0.914038
 31
0.361881
 12
1.653848
 22
0.833327
 32
0.361882
 13
1.653848
 23
0.833327
 33
0.361882
 62
0
  0
3DFACE
  8
Cube
 10
0.323632
 20
0.914043
 30
0.361885
 11
1.653848
 21
0.833327
 31
0.361882
 12
2.677739
 22
0.685444
 32
0.361879
 13
2.677739
 23
0.685444
 33
0.361879
 62
0
  0
3DFACE
  8
Cube
 10
0.323633
 20
0.833332
 30
0.361885
 11
0.323632
 21
0.914043
 31
0.361885
 12
2.677739
 22
0.685444
 32
0.361879
 13
2.677739
 23
0.685444
 33
0.361879
 62
0
  0
3DFACE
  8
Cube
 10
-0.346168
 20
0.833334
 30
0.361887
 11
0.323633
 21
0.833332
 31
0.361885
 12
2.677739
 22
0.685444
 32
0.361879
 13
2.677739
 23
0.685444
 33
0.361879
 62
0
  0
3DFACE
  8
Cube
 10
-1.676383
 20
0.833340
 30
0.361890
 11
-0.346168
 21
0.914045
 31
0.361887
 12
-0.346168
 22
0.833334
 32
0.361887
 13
-0.346168
 23
0.833334
 33
0.361887
 62
0
  0
3DFACE
  8
Cube
 10
-1.676383
 20
0.833340
 30
0.361890
 11
-0.346168
 21
0.833334
 31
0.361887
 12
2.677739
 22
0.685444
 32
0.361879
 13
2.677739
 23
0.685444
 33
0.361879
 62
0
  0
3DFACE
  8
Cube
 10
-2.346184
 20
0.833342
 30
0.361892
 11
-1.676383
 21
0.833340
 31
0.361890
 12
2.677739
 22
0.685444
 32
0.361879
 13
2.677739
 23
0.685444
 33
0.361879
 62
0
  0
3DFACE
  8
Cube
 10
-2.660222
 20
0.914054
 30
0.361893
 11
-2.346185
 21
0.914053
 31
0.361892
 12
-2.346184
 22
0.833342
 32
0.361892
 13
-2.346184
 23
0.833342
 33
0.361892
 62
0
  0
3DFACE
  8
Cube
 10
-2.660221
 20
0.685464
 30
0.361894
 11
-2.346184
 21
0.833342
 31
0.361892
 12
2.677739
 22
0.685444
 32
0.361879
 13
2.677739
 23
0.685444
 33
0.361879
 62
0
  0
3DFACE
  8
Cube
 10
-2.660221
 20
0.685464
 30
0.361894
 11
-2.660222
 21
0.914054
 31
0.361893
 12
-2.346184
 22
0.833342
 32
0.361892
 13
-2.346184
 23
0.833342
 33
0.361892
 62
0
  0
3DFACE
  8
Cube
 10
-1.676383
 20
0.833340
 30
0.361890
 11
-1.676384
 21
0.914051
 31
0.361890
 12
-0.346168
 22
0.914045
 32
0.361887
 13
-0.346168
 23
0.914045
 33
0.361887
 62
0
  0
3DFACE
  8
Cube
 10
2.323649
 20
0.833324
 30
0.361880
 11
2.323649
 21
0.914035
 31
0.361880
 12
2.677738
 22
0.914034
 32
0.361879
 13
2.677738
 23
0.914034
 33
0.361879
 62
0
  0
3DFACE
  8
Cube
 10
2.323656
 20
-0.833343
 30
0.361885
 11
2.677745
 21
-0.674201
 31
0.361884
 12
2.677746
 22
-0.902791
 32
0.361885
 13
2.677746
 23
-0.902791
 33
0.361885
 62
0
  0
3DFACE
  8
Cube
 10
2.323657
 20
-0.902790
 30
0.361886
 11
2.323656
 21
-0.833343
 31
0.361885
 12
2.677746
 22
-0.902791
 32
0.361885
 13
2.677746
 23
-0.902791
 33
0.361885
 62
0
  0
3DFACE
  8
Cube
 10
1.653855
 20
-0.833341
 30
0.361887
 11
2.677745
 21
-0.674201
 31
0.361884
 12
2.323656
 22
-0.833343
 32
0.361885
 13
2.323656
 23
-0.833343
 33
0.361885
 62
0
  0
3DFACE
  8
Cube
 10
0.323640
 20
-0.902782
 30
0.361891
 11
1.653855
 21
-0.833341
 31
0.361887
 12
1.653855
 22
-0.902787
 32
0.361887
 13
1.653855
 23
-0.902787
 33
0.361887
 62
0
  0
3DFACE
  8
Cube
 10
0.323640
 20
-0.902782
 30
0.361891
 11
2.677745
 21
-0.674201
 31
0.361884
 12
1.653855
 22
-0.833341
 32
0.361887
 13
1.653855
 23
-0.833341
 33
0.361887
 62
0
  0
3DFACE
  8
Cube
 10
0.323640
 20
-0.833335
 30
0.361891
 11
2.677745
 21
-0.674201
 31
0.361884
 12
0.323640
 22
-0.902782
 32
0.361891
 13
0.323640
 23
-0.902782
 33
0.361891
 62
0
  0
3DFACE
  8
Cube
 10
-0.346161
 20
-0.833333
 30
0.361893
 11
2.677745
 21
-0.674201
 31
0.361884
 12
0.323640
 22
-0.833335
 32
0.361891
 13
0.323640
 23
-0.833335
 33
0.361891
 62
0
  0
3DFACE
  8
Cube
 10
-1.676376
 20
-0.833328
 30
0.361896
 11
-0.346161
 21
-0.833333
 31
0.361893
 12
-0.346161
 22
-0.902780
 32
0.361893
 13
-0.346161
 23
-0.902780
 33
0.361893
 62
0
  0
3DFACE
  8
Cube
 10
-1.676376
 20
-0.833328
 30
0.361896
 11
2.677745
 21
-0.674201
 31
0.361884
 12
-0.346161
 22
-0.833333
 32
0.361893
 13
-0.346161
 23
-0.833333
 33
0.361893
 62
0
  0
3DFACE
  8
Cube
 10
-2.346177
 20
-0.833325
 30
0.361898
 11
2.677745
 21
-0.674201
 31
0.361884
 12
-1.676376
 22
-0.833328
 32
0.361896
 13
-1.676376
 23
-0.833328
 33
0.361896
 62
0
  0
3DFACE
  8
Cube
 10
-2.660215
 20
-0.674181
 30
0.361898
 11
2.677745
 21
-0.674201
 31
0.361884
 12
-2.346177
 22
-0.833325
 32
0.361898
 13
-2.346177
 23
-0.833325
 33
0.361898
 62
0
  0
3DFACE
  8
Cube
 10
-2.660215
 20
-0.674181
 30
0.361898
 11
-2.346177
 21
-0.833325
 31
0.361898
 12
-2.346177
 22
-0.902772
 32
0.361898
 13
-2.346177
 23
-0.902772
 33
0.361898
 62
0
  0
3DFACE
  8
Cube
 10
-2.660214
 20
-0.902771
 30
0.361899
 11
-2.660215
 21
-0.674181
 31
0.361898
 12
-2.346177
 22
-0.902772
 32
0.361898
 13
-2.346177
 23
-0.902772
 33
0.361898
 62
0
  0
3DFACE
  8
Cube
 10
-0.346161
 20
-0.902780
 30
0.361893
 11
-1.676376
 21
-0.902775
 31
0.361896
 12
-1.676376
 22
-0.833328
 32
0.361896
 13
-1.676376
 23
-0.833328
 33
0.361896
 62
0
  0
3DFACE
  8
Cube
 10
-1.977166
 20
-0.449496
 30
1.086490
 11
-1.676377
 21
-0.833331
 31
1.086490
 12
-1.676379
 22
-0.449497
 32
1.086489
 13
-1.676379
 23
-0.449497
 33
1.086489
 62
0
  0
3DFACE
  8
Cube
 10
-2.346178
 20
-0.833328
 30
1.086492
 11
-1.676377
 21
-0.833331
 31
1.086490
 12
-1.977166
 22
-0.449496
 32
1.086490
 13
-1.977166
 23
-0.449496
 33
1.086490
 62
0
  0
3DFACE
  8
Cube
 10
-1.977168
 20
0.449506
 30
1.086487
 11
-1.676382
 21
0.449504
 31
1.086486
 12
-1.676384
 22
0.833336
 32
1.086484
 13
-1.676384
 23
0.833336
 33
1.086484
 62
0
  0
3DFACE
  8
Cube
 10
-2.346178
 20
-0.833328
 30
1.086492
 11
-1.977166
 21
-0.449496
 31
1.086490
 12
-1.977168
 22
0.449506
 32
1.086487
 13
-1.977168
 23
0.449506
 33
1.086487
 62
0
  0
3DFACE
  8
Cube
 10
-2.346185
 20
0.833339
 30
1.086486
 11
-1.977168
 21
0.449506
 31
1.086487
 12
-1.676384
 22
0.833336
 32
1.086484
 13
-1.676384
 23
0.833336
 33
1.086484
 62
0
  0
3DFACE
  8
Cube
 10
-2.346185
 20
0.833339
 30
1.086486
 11
-2.346178
 21
-0.833328
 31
1.086492
 12
-1.977168
 22
0.449506
 32
1.086487
 13
-1.977168
 23
0.449506
 33
1.086487
 62
0
  0
3DFACE
  8
Cube
 10
1.653847
 20
0.914038
 30
0.251643
 11
0.323633
 21
0.914043
 31
0.251647
 12
0.323634
 22
0.685453
 32
0.251647
 13
1.653849
 23
0.685448
 33
0.251644
 62
0
  0
3DFACE
  8
Cube
 10
2.323650
 20
0.685445
 30
0.282720
 11
2.677740
 21
0.685444
 31
0.251641
 12
2.323650
 22
0.685446
 32
0.251642
 13
2.323650
 23
0.685446
 33
0.251642
 62
0
  0
3DFACE
  8
Cube
 10
-2.660221
 20
0.685464
 30
0.361894
 11
0.323634
 21
0.685453
 31
0.282725
 12
-0.346167
 22
0.685456
 32
0.282727
 13
-0.346167
 23
0.685456
 33
0.282727
 62
0
  0
3DFACE
  8
Cube
 10
-2.660221
 20
0.685464
 30
0.361894
 11
2.323650
 21
0.685445
 31
0.282720
 12
0.323634
 22
0.685453
 32
0.282725
 13
0.323634
 23
0.685453
 33
0.282725
 62
0
  0
3DFACE
  8
Cube
 10
2.677739
 20
0.685444
 30
0.361879
 11
2.677740
 21
0.685444
 31
0.251641
 12
2.323650
 22
0.685445
 32
0.282720
 13
2.323650
 23
0.685445
 33
0.282720
 62
0
  0
3DFACE
  8
Cube
 10
2.677739
 20
0.685444
 30
0.361879
 11
2.323650
 21
0.685445
 31
0.282720
 12
-2.660221
 22
0.685464
 32
0.361894
 13
-2.660221
 23
0.685464
 33
0.361894
 62
0
  0
3DFACE
  8
Cube
 10
-2.346184
 20
0.685463
 30
0.282732
 11
-2.346184
 21
0.685464
 31
0.251655
 12
-2.660221
 22
0.685465
 32
0.251655
 13
-2.660221
 23
0.685465
 33
0.251655
 62
0
  0
3DFACE
  8
Cube
 10
-0.346167
 20
0.685456
 30
0.282727
 11
-1.676382
 21
0.685461
 31
0.282731
 12
-2.346184
 22
0.685463
 32
0.282732
 13
-2.346184
 23
0.685463
 33
0.282732
 62
0
  0
3DFACE
  8
Cube
 10
-2.660221
 20
0.685464
 30
0.361894
 11
-2.346184
 21
0.685463
 31
0.282732
 12
-2.660221
 22
0.685465
 32
0.251655
 13
-2.660221
 23
0.685465
 33
0.251655
 62
0
  0
3DFACE
  8
Cube
 10
-2.660221
 20
0.685464
 30
0.361894
 11
-0.346167
 21
0.685456
 31
0.282727
 12
-2.346184
 22
0.685463
 32
0.282732
 13
-2.346184
 23
0.685463
 33
0.282732
 62
0
  0
3DFACE
  8
Cube
 10
-1.676382
 20
0.685461
 30
0.282731
 11
-0.346167
 21
0.685456
 31
0.251649
 12
-1.676382
 22
0.685461
 32
0.251653
 13
-1.676382
 23
0.685461
 33
0.251653
 62
0
  0
3DFACE
  8
Cube
 10
-0.346167
 20
0.685456
 30
0.282727
 11
-0.346167
 21
0.685456
 31
0.251649
 12
-1.676382
 22
0.685461
 32
0.282731
 13
-1.676382
 23
0.685461
 33
0.282731
 62
0
  0
3DFACE
  8
Cube
 10
1.653849
 20
0.685448
 30
0.282722
 11
1.653849
 21
0.685448
 31
0.251644
 12
0.323634
 22
0.685453
 32
0.251647
 13
0.323634
 23
0.685453
 33
0.251647
 62
0
  0
3DFACE
  8
Cube
 10
0.323634
 20
0.685453
 30
0.282725
 11
1.653849
 21
0.685448
 31
0.282722
 12
0.323634
 22
0.685453
 32
0.251647
 13
0.323634
 23
0.685453
 33
0.251647
 62
0
  0
3DFACE
  8
Cube
 10
0.323634
 20
0.685453
 30
0.282725
 11
2.323650
 21
0.685445
 31
0.282720
 12
1.653849
 22
0.685448
 32
0.282722
 13
1.653849
 23
0.685448
 33
0.282722
 62
0
  0
3DFACE
  8
Cube
 10
-2.346177
 20
-0.902772
 30
0.251660
 11
-2.660214
 21
-0.902770
 31
0.251661
 12
-2.660214
 22
-0.902771
 32
0.361899
 13
-2.346177
 23
-0.902772
 33
0.361898
 62
0
  0
3DFACE
  8
Cube
 10
-0.346168
 20
0.914046
 30
0.251648
 11
-1.676383
 21
0.914051
 31
0.251652
 12
-1.676382
 22
0.685461
 32
0.251653
 13
-0.346167
 23
0.685456
 33
0.251649
 62
0
  0
3DFACE
  8
Cube
 10
-0.346168
 20
0.914045
 30
0.361887
 11
-1.676384
 21
0.914051
 31
0.361890
 12
-1.676383
 22
0.914051
 32
0.251652
 13
-0.346168
 23
0.914046
 33
0.251648
 62
0
  0
3DFACE
  8
Cube
 10
1.653854
 20
-0.674197
 30
0.251648
 11
0.323640
 21
-0.674192
 31
0.251652
 12
0.323641
 22
-0.902782
 32
0.251653
 13
1.653856
 23
-0.902787
 33
0.251649
 62
0
  0
3DFACE
  8
Cube
 10
-0.346160
 20
-0.902779
 30
0.251655
 11
-1.676375
 21
-0.902774
 31
0.251658
 12
-1.676376
 22
-0.902775
 32
0.361896
 13
-0.346161
 23
-0.902780
 33
0.361893
 62
0
  0
3DFACE
  8
Cube
 10
2.323649
 20
0.914036
 30
0.251641
 11
2.677739
 21
0.914034
 31
0.251640
 12
2.677738
 22
0.914034
 32
0.361879
 13
2.323649
 23
0.914035
 33
0.361880
 62
0
  0
3DFACE
  8
Cube
 10
1.977164
 20
0.449489
 30
1.086476
 11
2.323656
 21
-0.833346
 31
1.086479
 12
2.323648
 22
0.833321
 32
1.086474
 13
2.323648
 23
0.833321
 33
1.086474
 62
0
  0
3DFACE
  8
Cube
 10
1.977167
 20
-0.449512
 30
1.086479
 11
2.323656
 21
-0.833346
 31
1.086479
 12
1.977164
 22
0.449489
 32
1.086476
 13
1.977164
 23
0.449489
 33
1.086476
 62
0
  0
3DFACE
  8
Cube
 10
1.653854
 20
-0.833344
 30
1.086481
 11
2.323656
 21
-0.833346
 31
1.086479
 12
1.977167
 22
-0.449512
 32
1.086479
 13
1.977167
 23
-0.449512
 33
1.086479
 62
0
  0
3DFACE
  8
Cube
 10
1.653852
 20
-0.449511
 30
1.086480
 11
1.653854
 21
-0.833344
 31
1.086481
 12
1.977167
 22
-0.449512
 32
1.086479
 13
1.977167
 23
-0.449512
 33
1.086479
 62
0
  0
3DFACE
  8
Cube
 10
1.653849
 20
0.449490
 30
1.086477
 11
1.977164
 21
0.449489
 31
1.086476
 12
2.323648
 22
0.833321
 32
1.086474
 13
2.323648
 23
0.833321
 33
1.086474
 62
0
  0
3DFACE
  8
Cube
 10
1.653847
 20
0.833324
 30
1.086476
 11
1.653849
 21
0.449490
 31
1.086477
 12
2.323648
 22
0.833321
 32
1.086474
 13
2.323648
 23
0.833321
 33
1.086474
 62
0
  0
3DFACE
  8
Cube
 10
1.653847
 20
0.914038
 30
0.361881
 11
0.323632
 21
0.914043
 31
0.361885
 12
0.323633
 22
0.914043
 32
0.251647
 13
1.653847
 23
0.914038
 33
0.251643
 62
0
  0
3DFACE
  8
Cube
 10
1.653856
 20
-0.902787
 30
0.251649
 11
0.323641
 21
-0.902782
 31
0.251653
 12
0.323640
 22
-0.902782
 32
0.361891
 13
1.653855
 23
-0.902787
 33
0.361887
 62
0
  0
3DFACE
  8
Cube
 10
0.323633
 20
0.449496
 30
1.086480
 11
0.323632
 21
0.833329
 31
1.086479
 12
-0.346169
 22
0.833331
 32
1.086481
 13
-0.346167
 23
0.449499
 33
1.086482
 62
0
  0
3DFACE
  8
Cube
 10
2.323657
 20
-0.902790
 30
0.251647
 11
2.677747
 21
-0.902791
 31
0.251646
 12
2.677746
 22
-0.674201
 32
0.251646
 13
2.323656
 23
-0.674199
 33
0.251647
 62
0
  0
3DFACE
  8
Cube
 10
2.323650
 20
0.685446
 30
0.251642
 11
2.677740
 21
0.685444
 31
0.251641
 12
2.677739
 22
0.914034
 32
0.251640
 13
2.323649
 23
0.914036
 33
0.251641
 62
0
  0
3DFACE
  8
Cube
 10
-1.977165
 20
-0.449495
 30
1.021271
 11
1.977167
 21
-0.449512
 31
1.021264
 12
1.977164
 22
0.449489
 32
1.021260
 13
-1.977168
 23
0.449506
 33
1.021267
 62
0
  0
3DFACE
  8
Cube
 10
-1.977166
 20
-0.449496
 30
1.086490
 11
-1.977165
 21
-0.449495
 31
1.021271
 12
-1.977168
 22
0.449506
 32
1.021267
 13
-1.977168
 23
0.449506
 33
1.086487
 62
0
  0
3DFACE
  8
Cube
 10
-1.977168
 20
0.449506
 30
1.086487
 11
-1.977168
 21
0.449506
 31
1.021267
 12
1.977164
 22
0.449489
 32
1.021260
 13
1.977164
 23
0.449489
 33
1.021260
 62
0
  0
3DFACE
  8
Cube
 10
-1.676382
 20
0.449504
 30
1.086486
 11
-1.977168
 21
0.449506
 31
1.086487
 12
1.977164
 22
0.449489
 32
1.021260
 13
1.977164
 23
0.449489
 33
1.021260
 62
0
  0
3DFACE
  8
Cube
 10
-0.346167
 20
0.449499
 30
1.086482
 11
-1.676382
 21
0.449504
 31
1.086486
 12
1.977164
 22
0.449489
 32
1.021260
 13
1.977164
 23
0.449489
 33
1.021260
 62
0
  0
3DFACE
  8
Cube
 10
0.323633
 20
0.449496
 30
1.086480
 11
-0.346167
 21
0.449499
 31
1.086482
 12
1.977164
 22
0.449489
 32
1.021260
 13
1.977164
 23
0.449489
 33
1.021260
 62
0
  0
3DFACE
  8
Cube
 10
1.653849
 20
0.449490
 30
1.086477
 11
0.323633
 21
0.449496
 31
1.086480
 12
1.977164
 22
0.449489
 32
1.021260
 13
1.977164
 23
0.449489
 33
1.021260
 62
0
  0
3DFACE
  8
Cube
 10
1.977164
 20
0.449489
 30
1.086476
 11
1.653849
 21
0.449490
 31
1.086477
 12
1.977164
 22
0.449489
 32
1.021260
 13
1.977164
 23
0.449489
 33
1.021260
 62
0
  0
3DFACE
  8
Cube
 10
-1.676383
 20
0.449504
 30
1.138416
 11
-1.676382
 21
0.449504
 31
1.086486
 12
-0.346167
 22
0.449499
 32
1.086482
 13
-0.346167
 23
0.449499
 33
1.086482
 62
0
  0
3DFACE
  8
Cube
 10
-0.346168
 20
0.449499
 30
1.138413
 11
-1.676383
 21
0.449504
 31
1.138416
 12
-0.346167
 22
0.449499
 32
1.086482
 13
-0.346167
 23
0.449499
 33
1.086482
 62
0
  0
3DFACE
  8
Cube
 10
0.323633
 20
0.449496
 30
1.138412
 11
0.323633
 21
0.449496
 31
1.086480
 12
1.653849
 22
0.449490
 32
1.086477
 13
1.653849
 23
0.449490
 33
1.086477
 62
0
  0
3DFACE
  8
Cube
 10
1.653849
 20
0.449490
 30
1.138410
 11
0.323633
 21
0.449496
 31
1.138412
 12
1.653849
 22
0.449490
 32
1.086477
 13
1.653849
 23
0.449490
 33
1.086477
 62
0
  0
3DFACE
  8
Cube
 10
-1.977166
 20
-0.449496
 30
1.086490
 11
1.977167
 21
-0.449512
 31
1.021264
 12
-1.977165
 22
-0.449495
 32
1.021271
 13
-1.977165
 23
-0.449495
 33
1.021271
 62
0
  0
3DFACE
  8
Cube
 10
-1.676379
 20
-0.449497
 30
1.086489
 11
1.977167
 21
-0.449512
 31
1.021264
 12
-1.977166
 22
-0.449496
 32
1.086490
 13
-1.977166
 23
-0.449496
 33
1.086490
 62
0
  0
3DFACE
  8
Cube
 10
0.323637
 20
-0.449505
 30
1.086483
 11
1.977167
 21
-0.449512
 31
1.021264
 12
-1.676379
 22
-0.449497
 32
1.086489
 13
-1.676379
 23
-0.449497
 33
1.086489
 62
0
  0
3DFACE
  8
Cube
 10
1.653852
 20
-0.449511
 30
1.086480
 11
1.977167
 21
-0.449512
 31
1.021264
 12
0.323637
 22
-0.449505
 32
1.086483
 13
0.323637
 23
-0.449505
 33
1.086483
 62
0
  0
3DFACE
  8
Cube
 10
1.977167
 20
-0.449512
 30
1.086479
 11
1.977167
 21
-0.449512
 31
1.021264
 12
1.653852
 22
-0.449511
 32
1.086480
 13
1.653852
 23
-0.449511
 33
1.086480
 62
0
  0
3DFACE
  8
Cube
 10
0.323637
 20
-0.449506
 30
1.138416
 11
1.653852
 21
-0.449511
 31
1.086480
 12
0.323637
 22
-0.449505
 32
1.086483
 13
0.323637
 23
-0.449505
 33
1.086483
 62
0
  0
3DFACE
  8
Cube
 10
1.653853
 20
-0.449511
 30
1.138413
 11
1.653852
 21
-0.449511
 31
1.086480
 12
0.323637
 22
-0.449506
 32
1.138416
 13
0.323637
 23
-0.449506
 33
1.138416
 62
0
  0
3DFACE
  8
Cube
 10
-0.346164
 20
-0.449502
 30
1.086485
 11
0.323637
 21
-0.449505
 31
1.086483
 12
-1.676379
 22
-0.449497
 32
1.086489
 13
-1.676379
 23
-0.449497
 33
1.086489
 62
0
  0
3DFACE
  8
Cube
 10
-1.676379
 20
-0.449497
 30
1.138419
 11
-0.346164
 21
-0.449502
 31
1.086485
 12
-1.676379
 22
-0.449497
 32
1.086489
 13
-1.676379
 23
-0.449497
 33
1.086489
 62
0
  0
3DFACE
  8
Cube
 10
-0.346164
 20
-0.449503
 30
1.138417
 11
-0.346164
 21
-0.449502
 31
1.086485
 12
-1.676379
 22
-0.449497
 32
1.138419
 13
-1.676379
 23
-0.449497
 33
1.138419
 62
0
  0
3DFACE
  8
Cube
 10
-0.346164
 20
-0.449503
 30
1.138417
 11
-1.676379
 21
-0.449497
 31
1.138419
 12
-1.676383
 22
0.449504
 32
1.138416
 13
-0.346168
 23
0.449499
 33
1.138413
 62
0
  0
3DFACE
  8
Cube
 10
1.653853
 20
-0.449511
 30
1.138413
 11
0.323637
 21
-0.449506
 31
1.138416
 12
0.323633
 22
0.449496
 32
1.138412
 13
1.653849
 23
0.449490
 33
1.138410
 62
0
  0
3DFACE
  8
Cube
 10
1.977164
 20
0.449489
 30
1.086476
 11
1.977164
 21
0.449489
 31
1.021260
 12
1.977167
 22
-0.449512
 32
1.021264
 13
1.977167
 23
-0.449512
 33
1.086479
 62
0
 0
ENDSEC
 0
EOF
