<?xml version="1.0" encoding="iso-8859-1"?>
<!-- Generator: Adobe Illustrator 18.1.1, SVG Export Plug-In . SVG Version: 6.00 Build 0)  -->
<svg version="1.1" id="Capa_1" xmlns="http://www.w3.org/2000/svg" xmlns:xlink="http://www.w3.org/1999/xlink" x="0px" y="0px"
	 viewBox="0 0 14.363 14.363" style="enable-background:new 0 0 14.363 14.363;" xml:space="preserve">
		<path style="fill:#030104;" d="M11.363,2.37H3.074c-0.331,0-0.599,0.268-0.599,0.599v8.392c0,0.331,0.269,0.6,0.599,0.6h8.289
			c0.33,0,0.599-0.269,0.599-0.6V2.97C11.961,2.639,11.693,2.37,11.363,2.37z M11.067,11.068H3.369V3.264h7.698V11.068z"/>
		<rect x="12.611" y="3.574" style="fill:#030104;" width="1.752" height="0.849"/>
		<rect x="12.611" y="5.221" style="fill:#030104;" width="1.752" height="0.849"/>
		<rect x="12.611" y="6.819" style="fill:#030104;" width="1.752" height="0.849"/>
		<rect x="12.611" y="8.467" style="fill:#030104;" width="1.752" height="0.849"/>
		<rect x="12.611" y="10.19" style="fill:#030104;" width="1.752" height="0.85"/>
		<rect x="10.102" y="0.049" style="fill:#030104;" width="0.849" height="1.752"/>
		<rect x="8.454" y="0.049" style="fill:#030104;" width="0.85" height="1.752"/>
		<rect x="6.857" y="0.049" style="fill:#030104;" width="0.849" height="1.752"/>
		<rect x="5.209" y="0.049" style="fill:#030104;" width="0.849" height="1.752"/>
		<rect x="3.486" y="0.049" style="fill:#030104;" width="0.849" height="1.752"/>
		<rect x="0" y="10.126" style="fill:#030104;" width="1.752" height="0.85"/>
		<rect x="0" y="8.48" style="fill:#030104;" width="1.752" height="0.849"/>
		<rect x="0" y="6.882" style="fill:#030104;" width="1.752" height="0.85"/>
		<rect x="0" y="5.234" style="fill:#030104;" width="1.752" height="0.849"/>
		<rect x="0" y="3.511" style="fill:#030104;" width="1.752" height="0.849"/>
		<rect x="3.549" y="12.561" style="fill:#030104;" width="0.849" height="1.753"/>
		<rect x="5.196" y="12.561" style="fill:#030104;" width="0.85" height="1.753"/>
		<rect x="6.794" y="12.561" style="fill:#030104;" width="0.848" height="1.753"/>
		<rect x="8.442" y="12.561" style="fill:#030104;" width="0.849" height="1.753"/>
		<rect x="10.165" y="12.561" style="fill:#030104;" width="0.849" height="1.753"/>
		<circle style="fill:#030104;" cx="9.34" cy="9.316" r="0.824"/>
</svg>
