<?xml version="1.0" ?><!DOCTYPE svg  PUBLIC '-//W3C//DTD SVG 1.1//EN'  'http://www.w3.org/Graphics/SVG/1.1/DTD/svg11.dtd'><svg height="93.000" viewBox="-504.000 -80.000 517.000 93.000" width="517.000" xmlns="http://www.w3.org/2000/svg"><line fill="none" stroke="none" stroke-linecap="round" stroke-width="2.0" x1="0.0" x2="0.0" y1="0.0" y2="0.0"/><polygon fill="none" fill-rule="evenodd" points="0.0,0.0 0.0,0.0 0.0,0.0" stroke-linejoin="round"/><polyline fill="none" points="-492.592592593,-3.5527136788e-15 -483.950617284,-3.5527136788e-15 -483.950617284,-8.64197530864 -483.950617284,-3.5527136788e-15 -475.308641975,-3.5527136788e-15 -475.308641975,-8.64197530864 -483.950617284,-8.64197530864 -475.308641975,-8.64197530864 -475.308641975,-17.2839506173 -475.308641975,-8.64197530864 -466.666666667,-8.64197530864 -475.308641975,-8.64197530864 -475.308641975,-1.7763568394e-15 -466.666666667,-1.7763568394e-15 -466.666666667,-8.64197530864 -466.666666667,-1.7763568394e-15 -458.024691358,-1.7763568394e-15 -458.024691358,-8.64197530864 -466.666666667,-8.64197530864 -458.024691358,-8.64197530864 -458.024691358,-17.2839506173 -466.666666667,-17.2839506173 -466.666666667,-8.64197530864 -466.666666667,-17.2839506173 -475.308641975,-17.2839506173 -466.666666667,-17.2839506173 -466.666666667,-25.9259259259 -466.666666667,-17.2839506173 -458.024691358,-17.2839506173 -458.024691358,-25.9259259259 -466.666666667,-25.9259259259 -458.024691358,-25.9259259259 -458.024691358,-34.5679012346 -458.024691358,-25.9259259259 -449.382716049,-25.9259259259 -458.024691358,-25.9259259259 -458.024691358,-17.2839506173 -449.382716049,-17.2839506173 -449.382716049,-25.9259259259 -449.382716049,-17.2839506173 -440.740740741,-17.2839506173 -449.382716049,-17.2839506173 -449.382716049,-8.64197530864" stroke="#000" stroke-linecap="round" stroke-linejoin="round"/><polyline fill="none" points="-449.382716049,-8.64197530864 -449.382716049,-17.2839506173 -458.024691358,-17.2839506173 -458.024691358,-8.64197530864 -449.382716049,-8.64197530864 -458.024691358,-8.64197530864 -458.024691358,-1.7763568394e-15 -449.382716049,-1.7763568394e-15 -449.382716049,-8.64197530864 -449.382716049,-1.7763568394e-15 -440.740740741,-1.7763568394e-15 -440.740740741,-8.64197530864 -449.382716049,-8.64197530864 -440.740740741,-8.64197530864 -440.740740741,-17.2839506173 -440.740740741,-8.64197530864 -432.098765432,-8.64197530864 -440.740740741,-8.64197530864 -440.740740741,-1.7763568394e-15 -432.098765432,-1.7763568394e-15 -432.098765432,-8.64197530864 -432.098765432,-1.7763568394e-15 -423.456790123,-1.7763568394e-15 -423.456790123,-8.64197530864 -432.098765432,-8.64197530864 -423.456790123,-8.64197530864 -423.456790123,-17.2839506173 -432.098765432,-17.2839506173 -432.098765432,-8.64197530864 -432.098765432,-17.2839506173 -440.740740741,-17.2839506173 -432.098765432,-17.2839506173 -432.098765432,-25.9259259259 -432.098765432,-17.2839506173 -423.456790123,-17.2839506173 -423.456790123,-25.9259259259 -432.098765432,-25.9259259259 -423.456790123,-25.9259259259 -423.456790123,-34.5679012346 -432.098765432,-34.5679012346 -432.098765432,-25.9259259259 -432.098765432,-34.5679012346 -440.740740741,-34.5679012346" stroke="#000" stroke-linecap="round" stroke-linejoin="round"/><polyline fill="none" points="-440.740740741,-34.5679012346 -440.740740741,-25.9259259259 -432.098765432,-25.9259259259 -440.740740741,-25.9259259259 -440.740740741,-17.2839506173 -440.740740741,-25.9259259259 -449.382716049,-25.9259259259 -440.740740741,-25.9259259259 -440.740740741,-34.5679012346 -449.382716049,-34.5679012346 -449.382716049,-25.9259259259 -449.382716049,-34.5679012346 -458.024691358,-34.5679012346 -449.382716049,-34.5679012346 -449.382716049,-43.2098765432 -449.382716049,-34.5679012346 -440.740740741,-34.5679012346 -440.740740741,-43.2098765432 -449.382716049,-43.2098765432 -440.740740741,-43.2098765432 -440.740740741,-51.8518518519 -440.740740741,-43.2098765432 -432.098765432,-43.2098765432 -440.740740741,-43.2098765432 -440.740740741,-34.5679012346 -432.098765432,-34.5679012346 -432.098765432,-43.2098765432 -432.098765432,-34.5679012346 -423.456790123,-34.5679012346 -423.456790123,-43.2098765432 -432.098765432,-43.2098765432 -423.456790123,-43.2098765432 -423.456790123,-51.8518518519 -432.098765432,-51.8518518519 -432.098765432,-43.2098765432 -432.098765432,-51.8518518519 -440.740740741,-51.8518518519 -432.098765432,-51.8518518519 -432.098765432,-60.4938271605 -432.098765432,-51.8518518519 -423.456790123,-51.8518518519 -423.456790123,-60.4938271605 -432.098765432,-60.4938271605" stroke="#000" stroke-linecap="round" stroke-linejoin="round"/><polyline fill="none" points="-432.098765432,-60.4938271605 -423.456790123,-60.4938271605 -423.456790123,-69.1358024691 -423.456790123,-60.4938271605 -414.814814815,-60.4938271605 -423.456790123,-60.4938271605 -423.456790123,-51.8518518519 -414.814814815,-51.8518518519 -414.814814815,-60.4938271605 -414.814814815,-51.8518518519 -406.172839506,-51.8518518519 -414.814814815,-51.8518518519 -414.814814815,-43.2098765432 -414.814814815,-51.8518518519 -423.456790123,-51.8518518519 -423.456790123,-43.2098765432 -414.814814815,-43.2098765432 -423.456790123,-43.2098765432 -423.456790123,-34.5679012346 -414.814814815,-34.5679012346 -414.814814815,-43.2098765432 -414.814814815,-34.5679012346 -406.172839506,-34.5679012346 -406.172839506,-43.2098765432 -414.814814815,-43.2098765432 -406.172839506,-43.2098765432 -406.172839506,-51.8518518519 -406.172839506,-43.2098765432 -397.530864198,-43.2098765432 -406.172839506,-43.2098765432 -406.172839506,-34.5679012346 -397.530864198,-34.5679012346 -397.530864198,-43.2098765432 -397.530864198,-34.5679012346 -388.888888889,-34.5679012346 -397.530864198,-34.5679012346 -397.530864198,-25.9259259259 -397.530864198,-34.5679012346 -406.172839506,-34.5679012346 -406.172839506,-25.9259259259 -397.530864198,-25.9259259259 -406.172839506,-25.9259259259 -406.172839506,-17.2839506173" stroke="#000" stroke-linecap="round" stroke-linejoin="round"/><polyline fill="none" points="-406.172839506,-17.2839506173 -406.172839506,-25.9259259259 -414.814814815,-25.9259259259 -406.172839506,-25.9259259259 -406.172839506,-34.5679012346 -414.814814815,-34.5679012346 -414.814814815,-25.9259259259 -414.814814815,-34.5679012346 -423.456790123,-34.5679012346 -423.456790123,-25.9259259259 -414.814814815,-25.9259259259 -423.456790123,-25.9259259259 -423.456790123,-17.2839506173 -414.814814815,-17.2839506173 -414.814814815,-25.9259259259 -414.814814815,-17.2839506173 -406.172839506,-17.2839506173 -414.814814815,-17.2839506173 -414.814814815,-8.64197530864 -414.814814815,-17.2839506173 -423.456790123,-17.2839506173 -423.456790123,-8.64197530864 -414.814814815,-8.64197530864 -423.456790123,-8.64197530864 -423.456790123,-1.7763568394e-15 -414.814814815,-1.7763568394e-15 -414.814814815,-8.64197530864 -414.814814815,-1.7763568394e-15 -406.172839506,-1.7763568394e-15 -406.172839506,-8.64197530864 -414.814814815,-8.64197530864 -406.172839506,-8.64197530864 -406.172839506,-17.2839506173 -406.172839506,-8.64197530864 -397.530864198,-8.64197530864 -406.172839506,-8.64197530864 -406.172839506,-1.7763568394e-15 -397.530864198,-1.7763568394e-15 -397.530864198,-8.64197530864 -397.530864198,-1.7763568394e-15 -388.888888889,-1.7763568394e-15 -388.888888889,-8.64197530864 -397.530864198,-8.64197530864" stroke="#000" stroke-linecap="round" stroke-linejoin="round"/><polyline fill="none" points="-397.530864198,-8.64197530864 -388.888888889,-8.64197530864 -388.888888889,-17.2839506173 -397.530864198,-17.2839506173 -397.530864198,-8.64197530864 -397.530864198,-17.2839506173 -406.172839506,-17.2839506173 -397.530864198,-17.2839506173 -397.530864198,-25.9259259259 -397.530864198,-17.2839506173 -388.888888889,-17.2839506173 -388.888888889,-25.9259259259 -397.530864198,-25.9259259259 -388.888888889,-25.9259259259 -388.888888889,-34.5679012346 -388.888888889,-25.9259259259 -380.24691358,-25.9259259259 -388.888888889,-25.9259259259 -388.888888889,-17.2839506173 -380.24691358,-17.2839506173 -380.24691358,-25.9259259259 -380.24691358,-17.2839506173 -371.604938272,-17.2839506173 -380.24691358,-17.2839506173 -380.24691358,-8.64197530864 -380.24691358,-17.2839506173 -388.888888889,-17.2839506173 -388.888888889,-8.64197530864 -380.24691358,-8.64197530864 -388.888888889,-8.64197530864 -388.888888889,-1.7763568394e-15 -380.24691358,-1.7763568394e-15 -380.24691358,-8.64197530864 -380.24691358,-1.7763568394e-15 -371.604938272,-1.7763568394e-15 -371.604938272,-8.64197530864 -380.24691358,-8.64197530864 -371.604938272,-8.64197530864 -371.604938272,-17.2839506173 -371.604938272,-8.64197530864 -362.962962963,-8.64197530864 -371.604938272,-8.64197530864 -371.604938272,-1.7763568394e-15" stroke="#000" stroke-linecap="round" stroke-linejoin="round"/><polyline fill="none" points="-371.604938272,-1.7763568394e-15 -362.962962963,-1.7763568394e-15 -362.962962963,-8.64197530864 -362.962962963,-1.7763568394e-15 -354.320987654,-1.7763568394e-15" stroke="#000" stroke-linecap="round" stroke-linejoin="round"/></svg>