<?xml version="1.0" ?><!DOCTYPE svg  PUBLIC '-//W3C//DTD SVG 1.1//EN'  'http://www.w3.org/Graphics/SVG/1.1/DTD/svg11.dtd'><svg height="226.000" viewBox="-13.000 -213.000 1075.000 226.000" width="1075.000" xmlns="http://www.w3.org/2000/svg"><line fill="none" stroke="none" stroke-linecap="round" stroke-width="2.0" x1="0.0" x2="0.0" y1="0.0" y2="0.0"/><polygon fill="none" fill-rule="evenodd" points="0.0,0.0 0.0,0.0 0.0,0.0" stroke-linejoin="round"/><polyline fill="none" points="350.0,1.4504172897e-14 352.880658436,1.48239902292e-14 354.320987654,-2.49472338539 355.761316872,1.50990331349e-14 358.641975309,1.54188504671e-14 360.082304527,-2.49472338539 358.641975309,-4.98944677077 361.522633745,-4.98944677077 362.962962963,-7.48417015616 364.403292181,-4.98944677077 367.283950617,-4.98944677077 365.843621399,-2.49472338539 367.283950617,1.7763568394e-14 370.164609053,1.82432943923e-14 371.604938272,-2.49472338539 373.04526749,1.86517468137e-14 375.925925926,1.89715641459e-14 377.366255144,-2.49472338539 375.925925926,-4.98944677077 378.806584362,-4.98944677077 380.24691358,-7.48417015616 378.806584362,-9.97889354155 375.925925926,-9.97889354155 377.366255144,-12.4736169269 375.925925926,-14.9683403123 378.806584362,-14.9683403123 380.24691358,-17.4630636977 381.687242798,-14.9683403123 384.567901235,-14.9683403123 386.008230453,-17.4630636977 384.567901235,-19.9577870831 387.448559671,-19.9577870831 388.888888889,-22.4525104685 390.329218107,-19.9577870831 393.209876543,-19.9577870831 391.769547325,-17.4630636977 393.209876543,-14.9683403123 396.090534979,-14.9683403123 397.530864198,-17.4630636977 398.971193416,-14.9683403123 401.851851852,-14.9683403123 400.411522634,-12.4736169269 401.851851852,-9.97889354155" stroke="#000" stroke-linecap="round" stroke-linejoin="round"/><polyline fill="none" points="401.851851852,-9.97889354155 398.971193416,-9.97889354155 397.530864198,-7.48417015616 398.971193416,-4.98944677077 401.851851852,-4.98944677077 400.411522634,-2.49472338539 401.851851852,2.22044604925e-14 404.732510288,2.26841864908e-14 406.172839506,-2.49472338539 407.613168724,2.30926389122e-14 410.49382716,2.34124562444e-14 411.934156379,-2.49472338539 410.49382716,-4.98944677077 413.374485597,-4.98944677077 414.814814815,-7.48417015616 416.255144033,-4.98944677077 419.135802469,-4.98944677077 417.695473251,-2.49472338539 419.135802469,2.48689957516e-14 422.016460905,2.53487217499e-14 423.456790123,-2.49472338539 424.897119342,2.57571741713e-14 427.777777778,2.60769915035e-14 429.218106996,-2.49472338539 427.777777778,-4.98944677077 430.658436214,-4.98944677077 432.098765432,-7.48417015616 430.658436214,-9.97889354155 427.777777778,-9.97889354155 429.218106996,-12.4736169269 427.777777778,-14.9683403123 430.658436214,-14.9683403123 432.098765432,-17.4630636977 433.53909465,-14.9683403123 436.419753086,-14.9683403123 437.860082305,-17.4630636977 436.419753086,-19.9577870831 439.300411523,-19.9577870831 440.740740741,-22.4525104685 439.300411523,-24.9472338539 436.419753086,-24.9472338539 437.860082305,-27.4419572393 436.419753086,-29.9366806246" stroke="#000" stroke-linecap="round" stroke-linejoin="round"/><polyline fill="none" points="436.419753086,-29.9366806246 433.53909465,-29.9366806246 432.098765432,-27.4419572393 430.658436214,-29.9366806246 427.777777778,-29.9366806246 429.218106996,-32.43140401 427.777777778,-34.9261273954 430.658436214,-34.9261273954 432.098765432,-37.4208507808 430.658436214,-39.9155741662 427.777777778,-39.9155741662 429.218106996,-42.4102975516 427.777777778,-44.905020937 430.658436214,-44.905020937 432.098765432,-47.3997443224 433.53909465,-44.905020937 436.419753086,-44.905020937 437.860082305,-47.3997443224 436.419753086,-49.8944677077 439.300411523,-49.8944677077 440.740740741,-52.3891910931 442.181069959,-49.8944677077 445.061728395,-49.8944677077 443.621399177,-47.3997443224 445.061728395,-44.905020937 447.942386831,-44.905020937 449.382716049,-47.3997443224 450.823045267,-44.905020937 453.703703704,-44.905020937 455.144032922,-47.3997443224 453.703703704,-49.8944677077 456.58436214,-49.8944677077 458.024691358,-52.3891910931 456.58436214,-54.8839144785 453.703703704,-54.8839144785 455.144032922,-57.3786378639 453.703703704,-59.8733612493 456.58436214,-59.8733612493 458.024691358,-62.3680846347 459.465020576,-59.8733612493 462.345679012,-59.8733612493 463.78600823,-62.3680846347 462.345679012,-64.8628080201" stroke="#000" stroke-linecap="round" stroke-linejoin="round"/><polyline fill="none" points="462.345679012,-64.8628080201 465.226337449,-64.8628080201 466.666666667,-67.3575314055 468.106995885,-64.8628080201 470.987654321,-64.8628080201 469.547325103,-62.3680846347 470.987654321,-59.8733612493 473.868312757,-59.8733612493 475.308641975,-62.3680846347 476.748971193,-59.8733612493 479.62962963,-59.8733612493 478.189300412,-57.3786378639 479.62962963,-54.8839144785 476.748971193,-54.8839144785 475.308641975,-52.3891910931 476.748971193,-49.8944677077 479.62962963,-49.8944677077 478.189300412,-47.3997443224 479.62962963,-44.905020937 482.510288066,-44.905020937 483.950617284,-47.3997443224 485.390946502,-44.905020937 488.271604938,-44.905020937 489.711934156,-47.3997443224 488.271604938,-49.8944677077 491.152263374,-49.8944677077 492.592592593,-52.3891910931 494.032921811,-49.8944677077 496.913580247,-49.8944677077 495.473251029,-47.3997443224 496.913580247,-44.905020937 499.794238683,-44.905020937 501.234567901,-47.3997443224 502.674897119,-44.905020937 505.555555556,-44.905020937 504.115226337,-42.4102975516 505.555555556,-39.9155741662 502.674897119,-39.9155741662 501.234567901,-37.4208507808 502.674897119,-34.9261273954 505.555555556,-34.9261273954 504.115226337,-32.43140401 505.555555556,-29.9366806246" stroke="#000" stroke-linecap="round" stroke-linejoin="round"/><polyline fill="none" points="505.555555556,-29.9366806246 502.674897119,-29.9366806246 501.234567901,-27.4419572393 499.794238683,-29.9366806246 496.913580247,-29.9366806246 495.473251029,-27.4419572393 496.913580247,-24.9472338539 494.032921811,-24.9472338539 492.592592593,-22.4525104685 494.032921811,-19.9577870831 496.913580247,-19.9577870831 495.473251029,-17.4630636977 496.913580247,-14.9683403123 499.794238683,-14.9683403123 501.234567901,-17.4630636977 502.674897119,-14.9683403123 505.555555556,-14.9683403123 504.115226337,-12.4736169269 505.555555556,-9.97889354155 502.674897119,-9.97889354155 501.234567901,-7.48417015616 502.674897119,-4.98944677077 505.555555556,-4.98944677077 504.115226337,-2.49472338539 505.555555556,1.25233157178e-13 508.436213992,1.25712883176e-13 509.87654321,-2.49472338539 511.316872428,1.26121335597e-13 514.197530864,1.2644115293e-13 515.637860082,-2.49472338539 514.197530864,-4.98944677077 517.0781893,-4.98944677077 518.518518519,-7.48417015616 519.958847737,-4.98944677077 522.839506173,-4.98944677077 521.399176955,-2.49472338539 522.839506173,1.27897692437e-13 525.720164609,1.28377418435e-13 527.160493827,-2.49472338539 528.600823045,1.28785870857e-13 531.481481481,1.29105688189e-13 532.9218107,-2.49472338539 531.481481481,-4.98944677077" stroke="#000" stroke-linecap="round" stroke-linejoin="round"/><polyline fill="none" points="531.481481481,-4.98944677077 534.362139918,-4.98944677077 535.802469136,-7.48417015616 534.362139918,-9.97889354155 531.481481481,-9.97889354155 532.9218107,-12.4736169269 531.481481481,-14.9683403123 534.362139918,-14.9683403123 535.802469136,-17.4630636977 537.242798354,-14.9683403123 540.12345679,-14.9683403123 541.563786008,-17.4630636977 540.12345679,-19.9577870831 543.004115226,-19.9577870831 544.444444444,-22.4525104685 545.884773663,-19.9577870831 548.765432099,-19.9577870831 547.325102881,-17.4630636977 548.765432099,-14.9683403123 551.646090535,-14.9683403123 553.086419753,-17.4630636977 554.526748971,-14.9683403123 557.407407407,-14.9683403123 555.967078189,-12.4736169269 557.407407407,-9.97889354155 554.526748971,-9.97889354155 553.086419753,-7.48417015616 554.526748971,-4.98944677077 557.407407407,-4.98944677077 555.967078189,-2.49472338539 557.407407407,1.32338584535e-13 560.288065844,1.32818310534e-13 561.728395062,-2.49472338539 563.16872428,1.33226762955e-13 566.049382716,1.33546580287e-13 567.489711934,-2.49472338539 566.049382716,-4.98944677077 568.930041152,-4.98944677077 570.37037037,-7.48417015616 571.810699588,-4.98944677077 574.691358025,-4.98944677077 573.251028807,-2.49472338539 574.691358025,1.35003119794e-13" stroke="#000" stroke-linecap="round" stroke-linejoin="round"/><polyline fill="none" points="574.691358025,1.35003119794e-13 577.572016461,1.35482845793e-13 579.012345679,-2.49472338539 580.452674897,1.35891298214e-13 583.333333333,1.36211115546e-13 584.773662551,-2.49472338539 583.333333333,-4.98944677077 586.21399177,-4.98944677077 587.654320988,-7.48417015616 586.21399177,-9.97889354155 583.333333333,-9.97889354155 584.773662551,-12.4736169269 583.333333333,-14.9683403123 586.21399177,-14.9683403123 587.654320988,-17.4630636977 589.094650206,-14.9683403123 591.975308642,-14.9683403123 593.41563786,-17.4630636977 591.975308642,-19.9577870831 594.855967078,-19.9577870831 596.296296296,-22.4525104685 594.855967078,-24.9472338539 591.975308642,-24.9472338539 593.41563786,-27.4419572393 591.975308642,-29.9366806246 589.094650206,-29.9366806246 587.654320988,-27.4419572393 586.21399177,-29.9366806246 583.333333333,-29.9366806246 584.773662551,-32.43140401 583.333333333,-34.9261273954 586.21399177,-34.9261273954 587.654320988,-37.4208507808 586.21399177,-39.9155741662 583.333333333,-39.9155741662 584.773662551,-42.4102975516 583.333333333,-44.905020937 586.21399177,-44.905020937 587.654320988,-47.3997443224 589.094650206,-44.905020937 591.975308642,-44.905020937 593.41563786,-47.3997443224 591.975308642,-49.8944677077" stroke="#000" stroke-linecap="round" stroke-linejoin="round"/><polyline fill="none" points="591.975308642,-49.8944677077 594.855967078,-49.8944677077 596.296296296,-52.3891910931 597.736625514,-49.8944677077 600.617283951,-49.8944677077 599.176954733,-47.3997443224 600.617283951,-44.905020937 603.497942387,-44.905020937 604.938271605,-47.3997443224 606.378600823,-44.905020937 609.259259259,-44.905020937 610.699588477,-47.3997443224 609.259259259,-49.8944677077 612.139917695,-49.8944677077 613.580246914,-52.3891910931 612.139917695,-54.8839144785 609.259259259,-54.8839144785 610.699588477,-57.3786378639 609.259259259,-59.8733612493 612.139917695,-59.8733612493 613.580246914,-62.3680846347 615.020576132,-59.8733612493 617.901234568,-59.8733612493 619.341563786,-62.3680846347 617.901234568,-64.8628080201 620.781893004,-64.8628080201 622.222222222,-67.3575314055 620.781893004,-69.8522547908 617.901234568,-69.8522547908 619.341563786,-72.3469781762 617.901234568,-74.8417015616 615.020576132,-74.8417015616 613.580246914,-72.3469781762 612.139917695,-74.8417015616 609.259259259,-74.8417015616 610.699588477,-77.336424947 609.259259259,-79.8311483324 612.139917695,-79.8311483324 613.580246914,-82.3258717178 612.139917695,-84.8205951032 609.259259259,-84.8205951032 610.699588477,-87.3153184886 609.259259259,-89.8100418739" stroke="#000" stroke-linecap="round" stroke-linejoin="round"/><polyline fill="none" points="609.259259259,-89.8100418739 606.378600823,-89.8100418739 604.938271605,-87.3153184886 603.497942387,-89.8100418739 600.617283951,-89.8100418739 599.176954733,-87.3153184886 600.617283951,-84.8205951032 597.736625514,-84.8205951032 596.296296296,-82.3258717178 594.855967078,-84.8205951032 591.975308642,-84.8205951032 593.41563786,-87.3153184886 591.975308642,-89.8100418739 589.094650206,-89.8100418739 587.654320988,-87.3153184886 586.21399177,-89.8100418739 583.333333333,-89.8100418739 584.773662551,-92.3047652593 583.333333333,-94.7994886447 586.21399177,-94.7994886447 587.654320988,-97.2942120301 586.21399177,-99.7889354155 583.333333333,-99.7889354155 584.773662551,-102.283658801 583.333333333,-104.778382186 586.21399177,-104.778382186 587.654320988,-107.273105572 589.094650206,-104.778382186 591.975308642,-104.778382186 593.41563786,-107.273105572 591.975308642,-109.767828957 594.855967078,-109.767828957 596.296296296,-112.262552342 594.855967078,-114.757275728 591.975308642,-114.757275728 593.41563786,-117.251999113 591.975308642,-119.746722499 589.094650206,-119.746722499 587.654320988,-117.251999113 586.21399177,-119.746722499 583.333333333,-119.746722499 584.773662551,-122.241445884 583.333333333,-124.736169269" stroke="#000" stroke-linecap="round" stroke-linejoin="round"/><polyline fill="none" points="583.333333333,-124.736169269 586.21399177,-124.736169269 587.654320988,-127.230892655 586.21399177,-129.72561604 583.333333333,-129.72561604 584.773662551,-132.220339426 583.333333333,-134.715062811 586.21399177,-134.715062811 587.654320988,-137.209786196 589.094650206,-134.715062811 591.975308642,-134.715062811 593.41563786,-137.209786196 591.975308642,-139.704509582 594.855967078,-139.704509582 596.296296296,-142.199232967 597.736625514,-139.704509582 600.617283951,-139.704509582 599.176954733,-137.209786196 600.617283951,-134.715062811 603.497942387,-134.715062811 604.938271605,-137.209786196 606.378600823,-134.715062811 609.259259259,-134.715062811 610.699588477,-137.209786196 609.259259259,-139.704509582 612.139917695,-139.704509582 613.580246914,-142.199232967 612.139917695,-144.693956352 609.259259259,-144.693956352 610.699588477,-147.188679738 609.259259259,-149.683403123 612.139917695,-149.683403123 613.580246914,-152.178126509 615.020576132,-149.683403123 617.901234568,-149.683403123 619.341563786,-152.178126509 617.901234568,-154.672849894 620.781893004,-154.672849894 622.222222222,-157.167573279 623.66255144,-154.672849894 626.543209877,-154.672849894 625.102880658,-152.178126509 626.543209877,-149.683403123" stroke="#000" stroke-linecap="round" stroke-linejoin="round"/><polyline fill="none" points="626.543209877,-149.683403123 629.423868313,-149.683403123 630.864197531,-152.178126509 632.304526749,-149.683403123 635.185185185,-149.683403123 633.744855967,-147.188679738 635.185185185,-144.693956352 632.304526749,-144.693956352 630.864197531,-142.199232967 632.304526749,-139.704509582 635.185185185,-139.704509582 633.744855967,-137.209786196 635.185185185,-134.715062811 638.065843621,-134.715062811 639.50617284,-137.209786196 640.946502058,-134.715062811 643.827160494,-134.715062811 645.267489712,-137.209786196 643.827160494,-139.704509582 646.70781893,-139.704509582 648.148148148,-142.199232967 649.588477366,-139.704509582 652.469135802,-139.704509582 651.028806584,-137.209786196 652.469135802,-134.715062811 655.349794239,-134.715062811 656.790123457,-137.209786196 658.230452675,-134.715062811 661.111111111,-134.715062811 662.551440329,-137.209786196 661.111111111,-139.704509582 663.991769547,-139.704509582 665.432098765,-142.199232967 663.991769547,-144.693956352 661.111111111,-144.693956352 662.551440329,-147.188679738 661.111111111,-149.683403123 663.991769547,-149.683403123 665.432098765,-152.178126509 666.872427984,-149.683403123 669.75308642,-149.683403123 671.193415638,-152.178126509 669.75308642,-154.672849894" stroke="#000" stroke-linecap="round" stroke-linejoin="round"/><polyline fill="none" points="669.75308642,-154.672849894 672.633744856,-154.672849894 674.074074074,-157.167573279 672.633744856,-159.662296665 669.75308642,-159.662296665 671.193415638,-162.15702005 669.75308642,-164.651743436 666.872427984,-164.651743436 665.432098765,-162.15702005 663.991769547,-164.651743436 661.111111111,-164.651743436 662.551440329,-167.146466821 661.111111111,-169.641190206 663.991769547,-169.641190206 665.432098765,-172.135913592 663.991769547,-174.630636977 661.111111111,-174.630636977 662.551440329,-177.125360362 661.111111111,-179.620083748 663.991769547,-179.620083748 665.432098765,-182.114807133 666.872427984,-179.620083748 669.75308642,-179.620083748 671.193415638,-182.114807133 669.75308642,-184.609530519 672.633744856,-184.609530519 674.074074074,-187.104253904 675.514403292,-184.609530519 678.395061728,-184.609530519 676.95473251,-182.114807133 678.395061728,-179.620083748 681.275720165,-179.620083748 682.716049383,-182.114807133 684.156378601,-179.620083748 687.037037037,-179.620083748 688.477366255,-182.114807133 687.037037037,-184.609530519 689.917695473,-184.609530519 691.358024691,-187.104253904 689.917695473,-189.598977289 687.037037037,-189.598977289 688.477366255,-192.093700675 687.037037037,-194.58842406" stroke="#000" stroke-linecap="round" stroke-linejoin="round"/><polyline fill="none" points="687.037037037,-194.58842406 689.917695473,-194.58842406 691.358024691,-197.083147446 692.798353909,-194.58842406 695.679012346,-194.58842406 697.119341564,-197.083147446 695.679012346,-199.577870831 698.559670782,-199.577870831 700.0,-202.072594216 701.440329218,-199.577870831 704.320987654,-199.577870831 702.880658436,-197.083147446 704.320987654,-194.58842406 707.201646091,-194.58842406 708.641975309,-197.083147446 710.082304527,-194.58842406 712.962962963,-194.58842406 711.522633745,-192.093700675 712.962962963,-189.598977289 710.082304527,-189.598977289 708.641975309,-187.104253904 710.082304527,-184.609530519 712.962962963,-184.609530519 711.522633745,-182.114807133 712.962962963,-179.620083748 715.843621399,-179.620083748 717.283950617,-182.114807133 718.724279835,-179.620083748 721.604938272,-179.620083748 723.04526749,-182.114807133 721.604938272,-184.609530519 724.485596708,-184.609530519 725.925925926,-187.104253904 727.366255144,-184.609530519 730.24691358,-184.609530519 728.806584362,-182.114807133 730.24691358,-179.620083748 733.127572016,-179.620083748 734.567901235,-182.114807133 736.008230453,-179.620083748 738.888888889,-179.620083748 737.448559671,-177.125360362 738.888888889,-174.630636977" stroke="#000" stroke-linecap="round" stroke-linejoin="round"/><polyline fill="none" points="738.888888889,-174.630636977 736.008230453,-174.630636977 734.567901235,-172.135913592 736.008230453,-169.641190206 738.888888889,-169.641190206 737.448559671,-167.146466821 738.888888889,-164.651743436 736.008230453,-164.651743436 734.567901235,-162.15702005 733.127572016,-164.651743436 730.24691358,-164.651743436 728.806584362,-162.15702005 730.24691358,-159.662296665 727.366255144,-159.662296665 725.925925926,-157.167573279 727.366255144,-154.672849894 730.24691358,-154.672849894 728.806584362,-152.178126509 730.24691358,-149.683403123 733.127572016,-149.683403123 734.567901235,-152.178126509 736.008230453,-149.683403123 738.888888889,-149.683403123 737.448559671,-147.188679738 738.888888889,-144.693956352 736.008230453,-144.693956352 734.567901235,-142.199232967 736.008230453,-139.704509582 738.888888889,-139.704509582 737.448559671,-137.209786196 738.888888889,-134.715062811 741.769547325,-134.715062811 743.209876543,-137.209786196 744.650205761,-134.715062811 747.530864198,-134.715062811 748.971193416,-137.209786196 747.530864198,-139.704509582 750.411522634,-139.704509582 751.851851852,-142.199232967 753.29218107,-139.704509582 756.172839506,-139.704509582 754.732510288,-137.209786196 756.172839506,-134.715062811" stroke="#000" stroke-linecap="round" stroke-linejoin="round"/><polyline fill="none" points="756.172839506,-134.715062811 759.053497942,-134.715062811 760.49382716,-137.209786196 761.934156379,-134.715062811 764.814814815,-134.715062811 766.255144033,-137.209786196 764.814814815,-139.704509582 767.695473251,-139.704509582 769.135802469,-142.199232967 767.695473251,-144.693956352 764.814814815,-144.693956352 766.255144033,-147.188679738 764.814814815,-149.683403123 767.695473251,-149.683403123 769.135802469,-152.178126509 770.576131687,-149.683403123 773.456790123,-149.683403123 774.897119342,-152.178126509 773.456790123,-154.672849894 776.33744856,-154.672849894 777.777777778,-157.167573279 779.218106996,-154.672849894 782.098765432,-154.672849894 780.658436214,-152.178126509 782.098765432,-149.683403123 784.979423868,-149.683403123 786.419753086,-152.178126509 787.860082305,-149.683403123 790.740740741,-149.683403123 789.300411523,-147.188679738 790.740740741,-144.693956352 787.860082305,-144.693956352 786.419753086,-142.199232967 787.860082305,-139.704509582 790.740740741,-139.704509582 789.300411523,-137.209786196 790.740740741,-134.715062811 793.621399177,-134.715062811 795.061728395,-137.209786196 796.502057613,-134.715062811 799.382716049,-134.715062811 800.823045267,-137.209786196 799.382716049,-139.704509582" stroke="#000" stroke-linecap="round" stroke-linejoin="round"/><polyline fill="none" points="799.382716049,-139.704509582 802.263374486,-139.704509582 803.703703704,-142.199232967 805.144032922,-139.704509582 808.024691358,-139.704509582 806.58436214,-137.209786196 808.024691358,-134.715062811 810.905349794,-134.715062811 812.345679012,-137.209786196 813.78600823,-134.715062811 816.666666667,-134.715062811 815.226337449,-132.220339426 816.666666667,-129.72561604 813.78600823,-129.72561604 812.345679012,-127.230892655 813.78600823,-124.736169269 816.666666667,-124.736169269 815.226337449,-122.241445884 816.666666667,-119.746722499 813.78600823,-119.746722499 812.345679012,-117.251999113 810.905349794,-119.746722499 808.024691358,-119.746722499 806.58436214,-117.251999113 808.024691358,-114.757275728 805.144032922,-114.757275728 803.703703704,-112.262552342 805.144032922,-109.767828957 808.024691358,-109.767828957 806.58436214,-107.273105572 808.024691358,-104.778382186 810.905349794,-104.778382186 812.345679012,-107.273105572 813.78600823,-104.778382186 816.666666667,-104.778382186 815.226337449,-102.283658801 816.666666667,-99.7889354155 813.78600823,-99.7889354155 812.345679012,-97.2942120301 813.78600823,-94.7994886447 816.666666667,-94.7994886447 815.226337449,-92.3047652593 816.666666667,-89.8100418739" stroke="#000" stroke-linecap="round" stroke-linejoin="round"/><polyline fill="none" points="816.666666667,-89.8100418739 813.78600823,-89.8100418739 812.345679012,-87.3153184886 810.905349794,-89.8100418739 808.024691358,-89.8100418739 806.58436214,-87.3153184886 808.024691358,-84.8205951032 805.144032922,-84.8205951032 803.703703704,-82.3258717178 802.263374486,-84.8205951032 799.382716049,-84.8205951032 800.823045267,-87.3153184886 799.382716049,-89.8100418739 796.502057613,-89.8100418739 795.061728395,-87.3153184886 793.621399177,-89.8100418739 790.740740741,-89.8100418739 789.300411523,-87.3153184886 790.740740741,-84.8205951032 787.860082305,-84.8205951032 786.419753086,-82.3258717178 787.860082305,-79.8311483324 790.740740741,-79.8311483324 789.300411523,-77.336424947 790.740740741,-74.8417015616 787.860082305,-74.8417015616 786.419753086,-72.3469781762 784.979423868,-74.8417015616 782.098765432,-74.8417015616 780.658436214,-72.3469781762 782.098765432,-69.8522547908 779.218106996,-69.8522547908 777.777777778,-67.3575314055 779.218106996,-64.8628080201 782.098765432,-64.8628080201 780.658436214,-62.3680846347 782.098765432,-59.8733612493 784.979423868,-59.8733612493 786.419753086,-62.3680846347 787.860082305,-59.8733612493 790.740740741,-59.8733612493 789.300411523,-57.3786378639 790.740740741,-54.8839144785" stroke="#000" stroke-linecap="round" stroke-linejoin="round"/><polyline fill="none" points="790.740740741,-54.8839144785 787.860082305,-54.8839144785 786.419753086,-52.3891910931 787.860082305,-49.8944677077 790.740740741,-49.8944677077 789.300411523,-47.3997443224 790.740740741,-44.905020937 793.621399177,-44.905020937 795.061728395,-47.3997443224 796.502057613,-44.905020937 799.382716049,-44.905020937 800.823045267,-47.3997443224 799.382716049,-49.8944677077 802.263374486,-49.8944677077 803.703703704,-52.3891910931 805.144032922,-49.8944677077 808.024691358,-49.8944677077 806.58436214,-47.3997443224 808.024691358,-44.905020937 810.905349794,-44.905020937 812.345679012,-47.3997443224 813.78600823,-44.905020937 816.666666667,-44.905020937 815.226337449,-42.4102975516 816.666666667,-39.9155741662 813.78600823,-39.9155741662 812.345679012,-37.4208507808 813.78600823,-34.9261273954 816.666666667,-34.9261273954 815.226337449,-32.43140401 816.666666667,-29.9366806246 813.78600823,-29.9366806246 812.345679012,-27.4419572393 810.905349794,-29.9366806246 808.024691358,-29.9366806246 806.58436214,-27.4419572393 808.024691358,-24.9472338539 805.144032922,-24.9472338539 803.703703704,-22.4525104685 805.144032922,-19.9577870831 808.024691358,-19.9577870831 806.58436214,-17.4630636977 808.024691358,-14.9683403123" stroke="#000" stroke-linecap="round" stroke-linejoin="round"/><polyline fill="none" points="808.024691358,-14.9683403123 810.905349794,-14.9683403123 812.345679012,-17.4630636977 813.78600823,-14.9683403123 816.666666667,-14.9683403123 815.226337449,-12.4736169269 816.666666667,-9.97889354155 813.78600823,-9.97889354155 812.345679012,-7.48417015616 813.78600823,-4.98944677077 816.666666667,-4.98944677077 815.226337449,-2.49472338539 816.666666667,2.24709140184e-13 819.547325103,2.25188866182e-13 820.987654321,-2.49472338539 822.427983539,2.25597318604e-13 825.308641975,2.25917135936e-13 826.748971193,-2.49472338539 825.308641975,-4.98944677077 828.189300412,-4.98944677077 829.62962963,-7.48417015616 831.069958848,-4.98944677077 833.950617284,-4.98944677077 832.510288066,-2.49472338539 833.950617284,2.27373675443e-13 836.83127572,2.27853401442e-13 838.271604938,-2.49472338539 839.711934156,2.28261853863e-13 842.592592593,2.28581671195e-13 844.032921811,-2.49472338539 842.592592593,-4.98944677077 845.473251029,-4.98944677077 846.913580247,-7.48417015616 845.473251029,-9.97889354155 842.592592593,-9.97889354155 844.032921811,-12.4736169269 842.592592593,-14.9683403123 845.473251029,-14.9683403123 846.913580247,-17.4630636977 848.353909465,-14.9683403123 851.234567901,-14.9683403123 852.674897119,-17.4630636977 851.234567901,-19.9577870831" stroke="#000" stroke-linecap="round" stroke-linejoin="round"/><polyline fill="none" points="851.234567901,-19.9577870831 854.115226337,-19.9577870831 855.555555556,-22.4525104685 856.995884774,-19.9577870831 859.87654321,-19.9577870831 858.436213992,-17.4630636977 859.87654321,-14.9683403123 862.757201646,-14.9683403123 864.197530864,-17.4630636977 865.637860082,-14.9683403123 868.518518519,-14.9683403123 867.0781893,-12.4736169269 868.518518519,-9.97889354155 865.637860082,-9.97889354155 864.197530864,-7.48417015616 865.637860082,-4.98944677077 868.518518519,-4.98944677077 867.0781893,-2.49472338539 868.518518519,2.31814567542e-13 871.399176955,2.3229429354e-13 872.839506173,-2.49472338539 874.279835391,2.32702745961e-13 877.160493827,2.33022563294e-13 878.600823045,-2.49472338539 877.160493827,-4.98944677077 880.041152263,-4.98944677077 881.481481481,-7.48417015616 882.9218107,-4.98944677077 885.802469136,-4.98944677077 884.362139918,-2.49472338539 885.802469136,2.34479102801e-13 888.683127572,2.34958828799e-13 890.12345679,-2.49472338539 891.563786008,2.35367281221e-13 894.444444444,2.35687098553e-13 895.884773663,-2.49472338539 894.444444444,-4.98944677077 897.325102881,-4.98944677077 898.765432099,-7.48417015616 897.325102881,-9.97889354155 894.444444444,-9.97889354155 895.884773663,-12.4736169269 894.444444444,-14.9683403123" stroke="#000" stroke-linecap="round" stroke-linejoin="round"/><polyline fill="none" points="894.444444444,-14.9683403123 897.325102881,-14.9683403123 898.765432099,-17.4630636977 900.205761317,-14.9683403123 903.086419753,-14.9683403123 904.526748971,-17.4630636977 903.086419753,-19.9577870831 905.967078189,-19.9577870831 907.407407407,-22.4525104685 905.967078189,-24.9472338539 903.086419753,-24.9472338539 904.526748971,-27.4419572393 903.086419753,-29.9366806246 900.205761317,-29.9366806246 898.765432099,-27.4419572393 897.325102881,-29.9366806246 894.444444444,-29.9366806246 895.884773663,-32.43140401 894.444444444,-34.9261273954 897.325102881,-34.9261273954 898.765432099,-37.4208507808 897.325102881,-39.9155741662 894.444444444,-39.9155741662 895.884773663,-42.4102975516 894.444444444,-44.905020937 897.325102881,-44.905020937 898.765432099,-47.3997443224 900.205761317,-44.905020937 903.086419753,-44.905020937 904.526748971,-47.3997443224 903.086419753,-49.8944677077 905.967078189,-49.8944677077 907.407407407,-52.3891910931 908.847736626,-49.8944677077 911.728395062,-49.8944677077 910.288065844,-47.3997443224 911.728395062,-44.905020937 914.609053498,-44.905020937 916.049382716,-47.3997443224 917.489711934,-44.905020937 920.37037037,-44.905020937 921.810699588,-47.3997443224 920.37037037,-49.8944677077" stroke="#000" stroke-linecap="round" stroke-linejoin="round"/><polyline fill="none" points="920.37037037,-49.8944677077 923.251028807,-49.8944677077 924.691358025,-52.3891910931 923.251028807,-54.8839144785 920.37037037,-54.8839144785 921.810699588,-57.3786378639 920.37037037,-59.8733612493 923.251028807,-59.8733612493 924.691358025,-62.3680846347 926.131687243,-59.8733612493 929.012345679,-59.8733612493 930.452674897,-62.3680846347 929.012345679,-64.8628080201 931.893004115,-64.8628080201 933.333333333,-67.3575314055 934.773662551,-64.8628080201 937.654320988,-64.8628080201 936.21399177,-62.3680846347 937.654320988,-59.8733612493 940.534979424,-59.8733612493 941.975308642,-62.3680846347 943.41563786,-59.8733612493 946.296296296,-59.8733612493 944.855967078,-57.3786378639 946.296296296,-54.8839144785 943.41563786,-54.8839144785 941.975308642,-52.3891910931 943.41563786,-49.8944677077 946.296296296,-49.8944677077 944.855967078,-47.3997443224 946.296296296,-44.905020937 949.176954733,-44.905020937 950.617283951,-47.3997443224 952.057613169,-44.905020937 954.938271605,-44.905020937 956.378600823,-47.3997443224 954.938271605,-49.8944677077 957.818930041,-49.8944677077 959.259259259,-52.3891910931 960.699588477,-49.8944677077 963.580246914,-49.8944677077 962.139917695,-47.3997443224 963.580246914,-44.905020937" stroke="#000" stroke-linecap="round" stroke-linejoin="round"/><polyline fill="none" points="963.580246914,-44.905020937 966.46090535,-44.905020937 967.901234568,-47.3997443224 969.341563786,-44.905020937 972.222222222,-44.905020937 970.781893004,-42.4102975516 972.222222222,-39.9155741662 969.341563786,-39.9155741662 967.901234568,-37.4208507808 969.341563786,-34.9261273954 972.222222222,-34.9261273954 970.781893004,-32.43140401 972.222222222,-29.9366806246 969.341563786,-29.9366806246 967.901234568,-27.4419572393 966.46090535,-29.9366806246 963.580246914,-29.9366806246 962.139917695,-27.4419572393 963.580246914,-24.9472338539 960.699588477,-24.9472338539 959.259259259,-22.4525104685 960.699588477,-19.9577870831 963.580246914,-19.9577870831 962.139917695,-17.4630636977 963.580246914,-14.9683403123 966.46090535,-14.9683403123 967.901234568,-17.4630636977 969.341563786,-14.9683403123 972.222222222,-14.9683403123 970.781893004,-12.4736169269 972.222222222,-9.97889354155 969.341563786,-9.97889354155 967.901234568,-7.48417015616 969.341563786,-4.98944677077 972.222222222,-4.98944677077 970.781893004,-2.49472338539 972.222222222,3.24185123191e-13 975.102880658,3.24664849189e-13 976.543209877,-2.49472338539 977.983539095,3.2507330161e-13 980.864197531,3.25393118942e-13 982.304526749,-2.49472338539 980.864197531,-4.98944677077" stroke="#000" stroke-linecap="round" stroke-linejoin="round"/><polyline fill="none" points="980.864197531,-4.98944677077 983.744855967,-4.98944677077 985.185185185,-7.48417015616 986.625514403,-4.98944677077 989.506172839,-4.98944677077 988.065843621,-2.49472338539 989.506172839,3.2684965845e-13 992.386831276,3.27329384448e-13 993.827160494,-2.49472338539 995.267489712,3.27737836869e-13 998.148148148,3.28057654202e-13 999.588477366,-2.49472338539 998.148148148,-4.98944677077 1001.02880658,-4.98944677077 1002.4691358,-7.48417015616 1001.02880658,-9.97889354155 998.148148148,-9.97889354155 999.588477366,-12.4736169269 998.148148148,-14.9683403123 1001.02880658,-14.9683403123 1002.4691358,-17.4630636977 1003.90946502,-14.9683403123 1006.79012346,-14.9683403123 1008.23045267,-17.4630636977 1006.79012346,-19.9577870831 1009.67078189,-19.9577870831 1011.11111111,-22.4525104685 1012.55144033,-19.9577870831 1015.43209877,-19.9577870831 1013.99176955,-17.4630636977 1015.43209877,-14.9683403123 1018.3127572,-14.9683403123 1019.75308642,-17.4630636977 1021.19341564,-14.9683403123 1024.07407407,-14.9683403123 1022.63374486,-12.4736169269 1024.07407407,-9.97889354155 1021.19341564,-9.97889354155 1019.75308642,-7.48417015616 1021.19341564,-4.98944677077 1024.07407407,-4.98944677077 1022.63374486,-2.49472338539 1024.07407407,3.31290550548e-13" stroke="#000" stroke-linecap="round" stroke-linejoin="round"/><polyline fill="none" points="1024.07407407,3.31290550548e-13 1026.95473251,3.31770276546e-13 1028.39506173,-2.49472338539 1029.83539095,3.32178728968e-13 1032.71604938,3.324985463e-13 1034.1563786,-2.49472338539 1032.71604938,-4.98944677077 1035.59670782,-4.98944677077 1037.03703704,-7.48417015616 1038.47736626,-4.98944677077 1041.35802469,-4.98944677077 1039.91769547,-2.49472338539 1041.35802469,3.33955085807e-13 1044.23868313,3.34434811806e-13 1045.67901235,-2.49472338539 1047.11934156,3.34843264227e-13 1050.0,3.35163081559e-13" stroke="#000" stroke-linecap="round" stroke-linejoin="round"/></svg>