<?xml version="1.0" ?><!DOCTYPE svg  PUBLIC '-//W3C//DTD SVG 1.1//EN'  'http://www.w3.org/Graphics/SVG/1.1/DTD/svg11.dtd'><svg height="833.000" viewBox="-237.000 -167.000 779.000 833.000" width="779.000" xmlns="http://www.w3.org/2000/svg"><line fill="none" stroke="none" stroke-linecap="round" stroke-width="2.0" x1="0.0" x2="0.0" y1="0.0" y2="0.0"/><polygon fill="none" fill-rule="evenodd" points="0.0,0.0 0.0,0.0 0.0,0.0" stroke-linejoin="round"/><polyline fill="none" points="-225.0,-0.0 -219.444444444,-0.0 -215.516073438,-3.92837100659 -211.587702431,4.4408920985e-16 -206.032146876,1.67767034832e-15 -202.103775869,-3.92837100659 -202.103775869,-9.48392656215 -196.548220314,-9.48392656215 -192.619849307,-13.4122975687 -188.6914783,-9.48392656215 -183.135922745,-9.48392656215 -183.135922745,-3.92837100659 -179.207551738,9.32587340685e-15 -173.651996183,1.08678498299e-14 -169.723625176,-3.92837100659 -165.795254169,1.37667655054e-14 -160.239698614,1.62339277823e-14 -156.311327607,-3.92837100659 -156.311327607,-9.48392656215 -150.755772052,-9.48392656215 -146.827401045,-13.4122975687 -146.827401045,-18.9678531243 -150.755772052,-22.8962241309 -146.827401045,-26.8245951375 -146.827401045,-32.380150693 -141.27184549,-32.380150693 -137.343474483,-36.3085216996 -133.415103476,-32.380150693 -127.859547921,-32.380150693 -123.931176914,-36.3085216996 -123.931176914,-41.8640772552 -118.375621359,-41.8640772552 -114.447250352,-45.7924482618 -110.518879346,-41.8640772552 -104.96332379,-41.8640772552 -104.96332379,-36.3085216996 -101.034952783,-32.380150693 -95.4793972279,-32.380150693 -91.5510262213,-36.3085216996 -87.6226552147,-32.380150693 -82.0670996591,-32.380150693 -82.0670996591,-26.8245951375 -78.1387286525,-22.8962241309" stroke="#000" stroke-linecap="round" stroke-linejoin="round"/><polyline fill="none" points="-78.1387286525,-22.8962241309 -82.0670996591,-18.9678531243 -82.0670996591,-13.4122975687 -78.1387286525,-9.48392656215 -72.583173097,-9.48392656215 -72.583173097,-3.92837100659 -68.6548020904,1.52322598979e-13 -63.0992465348,1.62499643371e-13 -59.1708755282,-3.92837100659 -55.2425045216,1.7807977315e-13 -49.6869489661,1.89490398681e-13 -45.7585779595,-3.92837100659 -45.7585779595,-9.48392656215 -40.2030224039,-9.48392656215 -36.2746513973,-13.4122975687 -32.3462803908,-9.48392656215 -26.7907248352,-9.48392656215 -26.7907248352,-3.92837100659 -22.8623538286,2.50466314355e-13 -17.3067982731,2.64344102163e-13 -13.3784272665,-3.92837100659 -9.45005625987,2.84661183514e-13 -3.89450070431,2.99464157176e-13 0.033870302277,-3.92837100659 0.033870302277,-9.48392656215 5.58942585783,-9.48392656215 9.51779686442,-13.4122975687 9.51779686442,-18.9678531243 5.58942585783,-22.8962241309 9.51779686442,-26.8245951375 9.51779686442,-32.380150693 15.07335242,-32.380150693 19.0017234266,-36.3085216996 22.9300944332,-32.380150693 28.4856499887,-32.380150693 32.4140209953,-36.3085216996 32.4140209953,-41.8640772552 37.9695765509,-41.8640772552 41.8979475575,-45.7924482618 41.8979475575,-51.3480038173 37.9695765509,-55.2763748239 41.8979475575,-59.2047458305 41.8979475575,-64.7603013861" stroke="#000" stroke-linecap="round" stroke-linejoin="round"/><polyline fill="none" points="41.8979475575,-64.7603013861 37.9695765509,-68.6886723927 32.4140209953,-68.6886723927 32.4140209953,-74.2442279482 28.4856499887,-78.1725989548 32.4140209953,-82.1009699614 32.4140209953,-87.656525517 37.9695765509,-87.656525517 41.8979475575,-91.5848965235 41.8979475575,-97.1404520791 37.9695765509,-101.068823086 41.8979475575,-104.997194092 41.8979475575,-110.552749648 47.453503113,-110.552749648 51.3818741196,-114.481120654 55.3102451262,-110.552749648 60.8658006818,-110.552749648 64.7941716883,-114.481120654 64.7941716883,-120.03667621 70.3497272439,-120.03667621 74.2780982505,-123.965047217 78.2064692571,-120.03667621 83.7620248126,-120.03667621 83.7620248126,-114.481120654 87.6903958192,-110.552749648 93.2459513748,-110.552749648 97.1743223814,-114.481120654 101.102693388,-110.552749648 106.658248944,-110.552749648 110.58661995,-114.481120654 110.58661995,-120.03667621 116.142175506,-120.03667621 120.070546512,-123.965047217 120.070546512,-129.520602772 116.142175506,-133.448973779 120.070546512,-137.377344785 120.070546512,-142.932900341 125.626102068,-142.932900341 129.554473074,-146.861271347 133.482844081,-142.932900341 139.038399637,-142.932900341 142.966770643,-146.861271347 142.966770643,-152.416826903" stroke="#000" stroke-linecap="round" stroke-linejoin="round"/><polyline fill="none" points="142.966770643,-152.416826903 148.522326199,-152.416826903 152.450697205,-156.34519791 156.379068212,-152.416826903 161.934623767,-152.416826903 161.934623767,-146.861271347 165.862994774,-142.932900341 171.41855033,-142.932900341 175.346921336,-146.861271347 179.275292343,-142.932900341 184.830847898,-142.932900341 184.830847898,-137.377344785 188.759218905,-133.448973779 184.830847898,-129.520602772 184.830847898,-123.965047217 188.759218905,-120.03667621 194.31477446,-120.03667621 194.31477446,-114.481120654 198.243145467,-110.552749648 203.798701023,-110.552749648 207.727072029,-114.481120654 211.655443036,-110.552749648 217.210998591,-110.552749648 221.139369598,-114.481120654 221.139369598,-120.03667621 226.694925154,-120.03667621 230.62329616,-123.965047217 234.551667167,-120.03667621 240.107222722,-120.03667621 240.107222722,-114.481120654 244.035593729,-110.552749648 249.591149284,-110.552749648 253.519520291,-114.481120654 257.447891298,-110.552749648 263.003446853,-110.552749648 263.003446853,-104.997194092 266.93181786,-101.068823086 263.003446853,-97.1404520791 263.003446853,-91.5848965235 266.93181786,-87.656525517 272.487373415,-87.656525517 272.487373415,-82.1009699614 276.415744422,-78.1725989548" stroke="#000" stroke-linecap="round" stroke-linejoin="round"/><polyline fill="none" points="276.415744422,-78.1725989548 272.487373415,-74.2442279482 272.487373415,-68.6886723927 266.93181786,-68.6886723927 263.003446853,-64.7603013861 263.003446853,-59.2047458305 266.93181786,-55.2763748239 263.003446853,-51.3480038173 263.003446853,-45.7924482618 266.93181786,-41.8640772552 272.487373415,-41.8640772552 272.487373415,-36.3085216996 276.415744422,-32.380150693 281.971299977,-32.380150693 285.899670984,-36.3085216996 289.828041991,-32.380150693 295.383597546,-32.380150693 295.383597546,-26.8245951375 299.311968553,-22.8962241309 295.383597546,-18.9678531243 295.383597546,-13.4122975687 299.311968553,-9.48392656215 304.867524108,-9.48392656215 304.867524108,-3.92837100659 308.795895115,2.09698924891e-12 314.35145067,2.14263175104e-12 318.279821677,-3.92837100659 322.208192684,2.20756746216e-12 327.763748239,2.25351835957e-12 331.692119246,-3.92837100659 331.692119246,-9.48392656215 337.247674801,-9.48392656215 341.176045808,-13.4122975687 345.104416815,-9.48392656215 350.65997237,-9.48392656215 350.65997237,-3.92837100659 354.588343377,2.48334686148e-12 360.143898932,2.53238171174e-12 364.072269939,-3.92837100659 368.000640945,2.60191868051e-12 373.556196501,2.65157032134e-12 377.484567508,-3.92837100659 377.484567508,-9.48392656214" stroke="#000" stroke-linecap="round" stroke-linejoin="round"/><polyline fill="none" points="377.484567508,-9.48392656214 383.040123063,-9.48392656214 386.96849407,-13.4122975687 386.96849407,-18.9678531243 383.040123063,-22.8962241309 386.96849407,-26.8245951375 386.96849407,-32.380150693 392.524049625,-32.380150693 396.452420632,-36.3085216996 400.380791638,-32.380150693 405.936347194,-32.380150693 409.864718201,-36.3085216996 409.864718201,-41.8640772552 415.420273756,-41.8640772552 419.348644763,-45.7924482618 423.277015769,-41.8640772552 428.832571325,-41.8640772552 428.832571325,-36.3085216996 432.760942331,-32.380150693 438.316497887,-32.380150693 442.244868894,-36.3085216996 446.1732399,-32.380150693 451.728795456,-32.380150693 451.728795456,-26.8245951375 455.657166462,-22.8962241309 451.728795456,-18.9678531243 451.728795456,-13.4122975687 455.657166462,-9.48392656214 461.212722018,-9.48392656214 461.212722018,-3.92837100659 465.141093025,3.50119933046e-12 470.69664858,3.55794406283e-12 474.625019587,-3.92837100659 478.553390593,3.63886698551e-12 484.108946149,3.69684529902e-12 488.037317155,-3.92837100659 488.037317155,-9.48392656214 493.592872711,-9.48392656214 497.521243718,-13.4122975687 501.449614724,-9.48392656214 507.00517028,-9.48392656214 507.00517028,-3.92837100659 510.933541286,3.97859523105e-12" stroke="#000" stroke-linecap="round" stroke-linejoin="round"/><polyline fill="none" points="510.933541286,3.97859523105e-12 516.489096842,4.03688193984e-12 520.417467848,-3.92837100659 524.345838855,4.11981559978e-12 529.901394411,4.17902749443e-12 527.123616633,4.81125224325 528.561500217,10.1775068337 523.195245626,11.6153904176 520.417467848,16.4266426609 521.855351432,21.7928972514 526.666603676,24.5706750292 523.888825898,29.3819272724 525.326709482,34.7481818629 519.960454891,36.1860654468 517.182677113,40.9973176901 512.37142487,38.2195399123 507.00517028,39.6574234962 504.227392502,44.4686757394 505.665276086,49.8349303299 500.299021495,51.2728139138 497.521243718,56.0840661571 498.959127301,61.4503207476 503.770379545,64.2280985253 500.992601767,69.0393507686 502.430485351,74.4056053591 507.241737594,77.1833831369 512.607992185,75.745499553 514.045875768,81.1117541435 518.857128012,83.8895319212 516.079350234,88.7007841645 517.517233818,94.067038755 512.150979227,95.5049223389 509.37320145,100.316174582 510.811085033,105.682429173 515.622337277,108.46020695 512.844559499,113.271459194 514.282443083,118.637713784 508.916188492,120.075597368 506.138410715,124.886849611 501.327158471,122.109071834 495.960903881,123.546955417 493.183126103,128.358207661 494.621009687,133.724462251" stroke="#000" stroke-linecap="round" stroke-linejoin="round"/><polyline fill="none" points="494.621009687,133.724462251 489.254755096,135.162345835 486.476977319,139.973598078 481.665725075,137.195820301 476.299470485,138.633703884 474.861586901,133.267449294 470.050334658,130.489671516 464.684080067,131.9275551 461.90630229,136.738807343 457.095050046,133.961029566 451.728795456,135.398913149 448.951017678,140.210165393 450.388901262,145.576419983 445.022646671,147.014303567 442.244868894,151.82555581 443.682752478,157.191810401 448.494004721,159.969588179 445.716226943,164.780840422 447.154110527,170.147095012 441.787855936,171.584978596 439.010078159,176.396230839 434.198825915,173.618453062 428.832571325,175.056336646 426.054793547,179.867588889 427.492677131,185.233843479 422.126422541,186.671727063 419.348644763,191.482979307 420.786528347,196.849233897 425.59778059,199.627011675 422.820002812,204.438263918 424.257886396,209.804518509 429.069138639,212.582296286 434.43539323,211.144412702 435.873276814,216.510667293 440.684529057,219.288445071 437.906751279,224.099697314 439.344634863,229.465951904 433.978380273,230.903835488 431.200602495,235.715087732 432.638486079,241.081342322 437.449738322,243.8591201 434.671960544,248.670372343 436.109844128,254.036626934" stroke="#000" stroke-linecap="round" stroke-linejoin="round"/><polyline fill="none" points="436.109844128,254.036626934 440.921096371,256.814404711 446.287350962,255.376521127 447.725234546,260.742775718 452.536486789,263.520553496 457.902741379,262.082669912 460.680519157,257.271417669 465.4917714,260.049195446 470.858025991,258.611311862 472.295909575,263.977566453 477.107161818,266.755344231 474.32938404,271.566596474 475.767267624,276.932851064 480.578519867,279.710628842 485.944774458,278.272745258 487.382658042,283.638999849 492.193910285,286.416777627 489.416132507,291.22802987 490.854016091,296.59428446 485.487761501,298.032168044 482.709983723,302.843420288 484.147867307,308.209674878 488.95911955,310.987452656 486.181341772,315.798704899 487.619225356,321.16495949 482.252970766,322.602843073 479.475192988,327.414095317 474.663940745,324.636317539 469.297686154,326.074201123 466.519908376,330.885453366 467.95779196,336.251707957 462.59153737,337.68959154 459.813759592,342.500843784 461.251643176,347.867098374 466.062895419,350.644876152 463.285117641,355.456128395 464.723001225,360.822382986 469.534253469,363.600160763 474.900508059,362.16227718 476.338391643,367.52853177 481.149643886,370.306309548 478.371866108,375.117561791 479.809749692,380.483816382" stroke="#000" stroke-linecap="round" stroke-linejoin="round"/><polyline fill="none" points="479.809749692,380.483816382 474.443495102,381.921699965 471.665717324,386.732952209 473.103600908,392.099206799 477.914853151,394.876984577 475.137075373,399.68823682 476.574958957,405.054491411 471.208704367,406.492374995 468.430926589,411.303627238 463.619674346,408.52584946 458.253419755,409.963733044 455.475641978,414.774985287 456.913525561,420.141239878 451.547270971,421.579123462 448.769493193,426.390375705 443.95824095,423.612597927 438.591986359,425.050481511 437.154102776,419.684226921 432.342850532,416.906449143 426.976595942,418.344332727 424.198818164,423.15558497 419.387565921,420.377807192 414.02131133,421.815690776 411.243533553,426.626943019 412.681417136,431.99319761 407.315162546,433.431081194 404.537384768,438.242333437 405.975268352,443.608588027 410.786520595,446.386365805 408.008742818,451.197618048 409.446626401,456.563872639 404.080371811,458.001756223 401.302594033,462.813008466 396.49134179,460.035230688 391.125087199,461.473114272 388.347309422,466.284366515 389.785193006,471.650621106 384.418938415,473.08850469 381.641160637,477.899756933 376.829908394,475.121979155 371.463653804,476.559862739 370.02577022,471.193608149 365.214517976,468.415830371" stroke="#000" stroke-linecap="round" stroke-linejoin="round"/><polyline fill="none" points="365.214517976,468.415830371 359.848263386,469.853713955 357.070485608,474.664966198 352.259233365,471.88718842 346.892978774,473.325072004 345.45509519,467.958817414 340.643842947,465.181039636 343.421620725,460.369787393 341.983737141,455.003532802 337.172484898,452.225755024 331.806230307,453.663638608 330.368346723,448.297384018 325.55709448,445.51960624 320.19083989,446.957489824 317.413062112,451.768742067 312.601809869,448.990964289 307.235555278,450.428847873 304.4577775,455.240100117 305.895661084,460.606354707 300.529406494,462.044238291 297.751628716,466.855490534 292.940376473,464.077712756 287.574121882,465.51559634 286.136238298,460.14934175 281.324986055,457.371563972 275.958731465,458.809447556 273.180953687,463.620699799 268.369701444,460.842922021 263.003446853,462.280805605 260.225669075,467.092057849 261.663552659,472.458312439 256.297298069,473.896196023 253.519520291,478.707448266 254.957403875,484.073702857 259.768656118,486.851480635 256.99087834,491.662732878 258.428761924,497.028987468 253.062507334,498.466871052 250.284729556,503.278123295 245.473477313,500.500345518 240.107222722,501.938229102 237.329444944,506.749481345 238.767328528,512.115735935" stroke="#000" stroke-linecap="round" stroke-linejoin="round"/><polyline fill="none" points="238.767328528,512.115735935 233.401073938,513.553619519 230.62329616,518.364871762 232.061179744,523.731126353 236.872431987,526.508904131 234.094654209,531.320156374 235.532537793,536.686410964 240.343790037,539.464188742 245.710044627,538.026305158 247.147928211,543.392559749 251.959180454,546.170337527 249.181402676,550.98158977 250.61928626,556.34784436 245.25303167,557.785727944 242.475253892,562.596980187 243.913137476,567.963234778 248.724389719,570.741012556 245.946611941,575.552264799 247.384495525,580.91851939 242.018240935,582.356402973 239.240463157,587.167655217 234.429210914,584.389877439 229.062956323,585.827761023 226.285178546,590.639013266 227.72306213,596.005267857 222.356807539,597.44315144 219.579029761,602.254403684 214.767777518,599.476625906 209.401522927,600.91450949 207.963639344,595.548254899 203.1523871,592.770477122 197.78613251,594.208360705 195.008354732,599.019612949 190.197102489,596.241835171 184.830847898,597.679718755 182.053070121,602.490970998 183.490953704,607.857225589 178.124699114,609.295109172 175.346921336,614.106361416 176.78480492,619.472616006 181.596057163,622.250393784 178.818279386,627.061646027 180.256162969,632.427900618" stroke="#000" stroke-linecap="round" stroke-linejoin="round"/><polyline fill="none" points="180.256162969,632.427900618 174.889908379,633.865784202 172.112130601,638.677036445 167.300878358,635.899258667 161.934623767,637.337142251 159.15684599,642.148394494 160.594729574,647.514649085 155.228474983,648.952532669 152.450697205,653.763784912 149.672919428,648.952532669 144.306664837,647.514649085 145.744548421,642.148394494 142.966770643,637.337142251 137.600516053,635.899258667 132.789263809,638.677036445 130.011486032,633.865784202 124.645231441,632.427900618 126.083115025,627.061646027 123.305337247,622.250393784 128.116589491,619.472616006 129.554473074,614.106361416 126.776695297,609.295109172 121.410440706,607.857225589 122.84832429,602.490970998 120.070546512,597.679718755 114.704291922,596.241835171 109.893039679,599.019612949 107.115261901,594.208360705 101.74900731,592.770477122 96.937755067,595.548254899 95.4998714831,600.91450949 90.1336168926,599.476625906 85.3223646494,602.254403684 82.5445868716,597.44315144 77.1783322811,596.005267857 78.616215865,590.639013266 75.8384380872,585.827761023 70.4721834967,584.389877439 65.6609312535,587.167655217 62.8831534757,582.356402973 57.5168988852,580.91851939 58.9547824691,575.552264799 56.1770046913,570.741012556" stroke="#000" stroke-linecap="round" stroke-linejoin="round"/><polyline fill="none" points="56.1770046913,570.741012556 60.9882569346,567.963234778 62.4261405185,562.596980187 59.6483627407,557.785727944 54.2821081502,556.34784436 55.7199917341,550.98158977 52.9422139563,546.170337527 57.7534661996,543.392559749 59.1913497835,538.026305158 64.557604374,539.464188742 69.3688566172,536.686410964 70.8067402011,531.320156374 68.0289624233,526.508904131 72.8402146666,523.731126353 74.2780982505,518.364871762 71.5003204727,513.553619519 66.1340658822,512.115735935 67.5719494661,506.749481345 64.7941716883,501.938229102 59.4279170978,500.500345518 54.6166648546,503.278123295 51.8388870768,498.466871052 46.4726324863,497.028987468 47.9105160702,491.662732878 45.1327382924,486.851480635 49.9439905357,484.073702857 51.3818741196,478.707448266 48.6040963418,473.896196023 43.2378417513,472.458312439 44.6757253352,467.092057849 41.8979475575,462.280805605 36.531692967,460.842922021 31.7204407237,463.620699799 28.9426629459,458.809447556 23.5764083554,457.371563972 18.7651561122,460.14934175 17.3272725283,465.51559634 11.9610179378,464.077712756 7.14976569455,466.855490534 4.37198791677,462.044238291 -0.994266673726,460.606354707 0.443616910177,455.240100117 -2.3341608676,450.428847873" stroke="#000" stroke-linecap="round" stroke-linejoin="round"/><polyline fill="none" points="-2.3341608676,450.428847873 -7.7004154581,448.990964289 -12.5116677013,451.768742067 -15.2894454791,446.957489824 -20.6557000696,445.51960624 -25.4669523129,448.297384018 -26.9048358968,453.663638608 -32.2710904873,452.225755024 -37.0823427305,455.003532802 -38.5202263144,460.369787393 -35.7424485366,465.181039636 -40.5537007799,467.958817414 -41.9915843638,473.325072004 -47.3578389543,471.88718842 -52.1690911975,474.664966198 -54.9468689753,469.853713955 -60.3131235658,468.415830371 -65.124375809,471.193608149 -66.5622593929,476.559862739 -71.9285139834,475.121979155 -76.7397662267,477.899756933 -79.5175440045,473.08850469 -84.883798595,471.650621106 -83.4459150111,466.284366515 -86.2236927888,461.473114272 -91.5899473793,460.035230688 -96.4011996226,462.813008466 -99.1789774004,458.001756223 -104.545231991,456.563872639 -103.107348407,451.197618048 -105.885126185,446.386365805 -101.073873941,443.608588027 -99.6359903576,438.242333437 -102.413768135,433.431081194 -107.780022726,431.99319761 -106.342139142,426.626943019 -109.11991692,421.815690776 -114.48617151,420.377807192 -119.297423753,423.15558497 -122.075201531,418.344332727 -127.441456122,416.906449143 -132.252708365,419.684226921 -133.690591949,425.050481511" stroke="#000" stroke-linecap="round" stroke-linejoin="round"/><polyline fill="none" points="-133.690591949,425.050481511 -139.056846539,423.612597927 -143.868098783,426.390375705 -146.64587656,421.579123462 -152.012131151,420.141239878 -150.574247567,414.774985287 -153.352025345,409.963733044 -158.718279935,408.52584946 -163.529532179,411.303627238 -166.307309956,406.492374995 -171.673564547,405.054491411 -170.235680963,399.68823682 -173.013458741,394.876984577 -168.202206497,392.099206799 -166.764322914,386.732952209 -169.542100691,381.921699965 -174.908355282,380.483816382 -173.470471698,375.117561791 -176.248249476,370.306309548 -171.436997232,367.52853177 -169.999113649,362.16227718 -164.632859058,363.600160763 -159.821606815,360.822382986 -158.383723231,355.456128395 -161.161501009,350.644876152 -156.350248765,347.867098374 -154.912365181,342.500843784 -157.690142959,337.68959154 -163.05639755,336.251707957 -161.618513966,330.885453366 -164.396291744,326.074201123 -169.762546334,324.636317539 -174.573798577,327.414095317 -177.351576355,322.602843073 -182.717830946,321.16495949 -181.279947362,315.798704899 -184.05772514,310.987452656 -179.246472896,308.209674878 -177.808589312,302.843420287 -180.58636709,298.032168044 -185.952621681,296.59428446 -184.514738097,291.22802987 -187.292515875,286.416777627" stroke="#000" stroke-linecap="round" stroke-linejoin="round"/><polyline fill="none" points="-187.292515875,286.416777627 -182.481263631,283.638999849 -181.043380047,278.272745258 -175.677125457,279.710628842 -170.865873214,276.932851064 -169.42798963,271.566596474 -172.205767408,266.755344231 -167.394515164,263.977566453 -165.95663158,258.611311862 -160.59037699,260.049195446 -155.779124747,257.271417669 -153.001346969,262.082669912 -147.635092378,263.520553496 -142.823840135,260.742775718 -141.385956551,255.376521127 -136.019701961,256.814404711 -131.208449717,254.036626934 -129.770566134,248.670372343 -132.548343911,243.8591201 -127.737091668,241.081342322 -126.299208084,235.715087732 -129.076985862,230.903835488 -134.443240452,229.465951904 -133.005356869,224.099697314 -135.783134646,219.288445071 -130.971882403,216.510667293 -129.533998819,211.144412702 -124.167744229,212.582296286 -119.356491985,209.804518509 -117.918608402,204.438263918 -120.696386179,199.627011675 -115.885133936,196.849233897 -114.447250352,191.482979306 -117.22502813,186.671727063 -122.59128272,185.233843479 -121.153399137,179.867588889 -123.931176914,175.056336646 -129.297431505,173.618453062 -134.108683748,176.396230839 -136.886461526,171.584978596 -142.252716116,170.147095012 -140.814832532,164.780840422 -143.59261031,159.969588179" stroke="#000" stroke-linecap="round" stroke-linejoin="round"/><polyline fill="none" points="-143.59261031,159.969588179 -138.781358067,157.191810401 -137.343474483,151.82555581 -140.121252261,147.014303567 -145.487506851,145.576419983 -144.049623267,140.210165393 -146.827401045,135.398913149 -152.193655636,133.961029566 -157.004907879,136.738807343 -159.782685657,131.9275551 -165.148940247,130.489671516 -169.96019249,133.267449294 -171.398076074,138.633703884 -176.764330665,137.195820301 -181.575582908,139.973598078 -184.353360686,135.162345835 -189.719615276,133.724462251 -188.281731692,128.358207661 -191.05950947,123.546955417 -196.425764061,122.109071834 -201.237016304,124.886849611 -204.014794082,120.075597368 -209.381048672,118.637713784 -207.943165088,113.271459194 -210.720942866,108.46020695 -205.909690623,105.682429173 -204.471807039,100.316174582 -207.249584817,95.5049223389 -212.615839407,94.067038755 -211.177955823,88.7007841645 -213.955733601,83.8895319212 -209.144481358,81.1117541434 -207.706597774,75.745499553 -202.340343183,77.1833831369 -197.52909094,74.4056053591 -196.091207356,69.0393507686 -198.868985134,64.2280985253 -194.057732891,61.4503207476 -192.619849307,56.0840661571 -195.397627085,51.2728139138 -200.763881675,49.8349303299 -199.325998091,44.4686757394 -202.103775869,39.6574234962" stroke="#000" stroke-linecap="round" stroke-linejoin="round"/><polyline fill="none" points="-202.103775869,39.6574234962 -207.47003046,38.2195399123 -212.281282703,40.99731769 -215.059060481,36.1860654468 -220.425315071,34.7481818629 -218.987431487,29.3819272724 -221.765209265,24.5706750292 -216.953957022,21.7928972514 -215.516073438,16.4266426609 -218.293851216,11.6153904176 -223.660105806,10.1775068337 -222.222222222,4.81125224324 -225.0,-7.5290884638e-12" stroke="#000" stroke-linecap="round" stroke-linejoin="round"/></svg>