<?xml version="1.0" ?><!DOCTYPE svg  PUBLIC '-//W3C//DTD SVG 1.1//EN'  'http://www.w3.org/Graphics/SVG/1.1/DTD/svg11.dtd'><svg height="128.000" viewBox="-362.000 -115.000 375.000 128.000" width="375.000" xmlns="http://www.w3.org/2000/svg"><line fill="none" stroke="none" stroke-linecap="round" stroke-width="2.0" x1="0.0" x2="0.0" y1="0.0" y2="0.0"/><polygon fill="none" fill-rule="evenodd" points="0.0,0.0 0.0,0.0 0.0,0.0" stroke-linejoin="round"/><polyline fill="none" points="-350.0,-0.0 -324.074074074,-0.0 -324.074074074,-25.9259259259 -324.074074074,-0.0 -298.148148148,-0.0 -298.148148148,-25.9259259259 -324.074074074,-25.9259259259 -298.148148148,-25.9259259259 -298.148148148,-51.8518518519 -298.148148148,-25.9259259259 -272.222222222,-25.9259259259 -298.148148148,-25.9259259259 -298.148148148,-3.5527136788e-15 -272.222222222,-3.5527136788e-15 -272.222222222,-25.9259259259 -272.222222222,-3.5527136788e-15 -246.296296296,-3.5527136788e-15 -246.296296296,-25.9259259259 -272.222222222,-25.9259259259 -246.296296296,-25.9259259259 -246.296296296,-51.8518518519 -272.222222222,-51.8518518519 -272.222222222,-25.9259259259 -272.222222222,-51.8518518519 -298.148148148,-51.8518518519 -272.222222222,-51.8518518519 -272.222222222,-77.7777777778 -272.222222222,-51.8518518519 -246.296296296,-51.8518518519 -246.296296296,-77.7777777778 -272.222222222,-77.7777777778 -246.296296296,-77.7777777778 -246.296296296,-103.703703704 -246.296296296,-77.7777777778 -220.37037037,-77.7777777778 -246.296296296,-77.7777777778 -246.296296296,-51.8518518519 -220.37037037,-51.8518518519 -220.37037037,-77.7777777778 -220.37037037,-51.8518518519 -194.444444444,-51.8518518519 -220.37037037,-51.8518518519 -220.37037037,-25.9259259259" stroke="#000" stroke-linecap="round" stroke-linejoin="round"/><polyline fill="none" points="-220.37037037,-25.9259259259 -220.37037037,-51.8518518519 -246.296296296,-51.8518518519 -246.296296296,-25.9259259259 -220.37037037,-25.9259259259 -246.296296296,-25.9259259259 -246.296296296,-3.5527136788e-15 -220.37037037,-3.5527136788e-15 -220.37037037,-25.9259259259 -220.37037037,-3.5527136788e-15 -194.444444444,-3.5527136788e-15 -194.444444444,-25.9259259259 -220.37037037,-25.9259259259 -194.444444444,-25.9259259259 -194.444444444,-51.8518518519 -194.444444444,-25.9259259259 -168.518518519,-25.9259259259 -194.444444444,-25.9259259259 -194.444444444,-3.5527136788e-15 -168.518518519,-3.5527136788e-15 -168.518518519,-25.9259259259 -168.518518519,-3.5527136788e-15 -142.592592593,-3.5527136788e-15" stroke="#000" stroke-linecap="round" stroke-linejoin="round"/></svg>