<?xml version="1.0" ?><!DOCTYPE svg  PUBLIC '-//W3C//DTD SVG 1.1//EN'  'http://www.w3.org/Graphics/SVG/1.1/DTD/svg11.dtd'><svg height="369.000" viewBox="-212.000 -157.000 424.000 369.000" width="424.000" xmlns="http://www.w3.org/2000/svg"><line fill="none" stroke="none" stroke-linecap="round" stroke-width="2.0" x1="0.0" x2="0.0" y1="0.0" y2="0.0"/><polygon fill="none" fill-rule="evenodd" points="0.0,0.0 0.0,0.0 0.0,0.0" stroke-linejoin="round"/><polyline fill="none" points="-200.0,200.0 -150.0,200.0 -175.0,156.698729811 -125.0,156.698729811 -150.0,200.0 -100.0,200.0 -125.0,156.698729811 -150.0,113.397459622 -100.0,113.397459622 -125.0,70.0961894323 -75.0,70.0961894323 -100.0,113.397459622 -50.0,113.397459622 -75.0,156.698729811 -100.0,200.0 -50.0,200.0 -75.0,156.698729811 -25.0,156.698729811 -50.0,200.0 1.13686837722e-13,200.0 -25.0,156.698729811 -50.0,113.397459622 -75.0,70.0961894323 -100.0,26.7949192431 -50.0,26.7949192431 -75.0,-16.5063509461 -25.0,-16.5063509461 -50.0,26.7949192431 1.84741111298e-13,26.7949192431 -25.0,-16.5063509461 -50.0,-59.8076211353 2.0605739337e-13,-59.8076211353 -25.0,-103.108891325 25.0,-103.108891325 2.27373675443e-13,-59.8076211353 50.0,-59.8076211353 25.0,-16.5063509461 2.48689957516e-13,26.7949192431 50.0,26.7949192431 25.0,-16.5063509461 75.0,-16.5063509461 50.0,26.7949192431 100.0,26.7949192431" stroke="#000" stroke-linecap="round" stroke-linejoin="round"/><polygon fill="none" fill-rule="evenodd" points="0.0,0.0 0.0,0.0 0.0,0.0" stroke-linejoin="round"/><polygon fill="none" fill-rule="evenodd" points="0.0,0.0 0.0,0.0 0.0,0.0" stroke-linejoin="round"/><line fill="none" stroke="none" stroke-linecap="round" stroke-width="2.0" x1="0.0" x2="0.0" y1="0.0" y2="0.0"/><polyline fill="none" points="100.0,26.7949192431 75.0,70.0961894323 50.0,113.397459622 25.0,156.698729811 3.19744231092e-13,200.0 50.0,200.0 25.0,156.698729811 75.0,156.698729811 50.0,200.0 100.0,200.0 75.0,156.698729811 50.0,113.397459622 100.0,113.397459622 75.0,70.0961894323 125.0,70.0961894323 100.0,113.397459622 150.0,113.397459622 125.0,156.698729811 100.0,200.0 150.0,200.0 125.0,156.698729811 175.0,156.698729811 150.0,200.0 200.0,200.0 175.0,156.698729811 150.0,113.397459622 125.0,70.0961894323 100.0,26.7949192431 75.0,-16.5063509461 50.0,-59.8076211353 25.0,-103.108891325 5.3290705182e-13,-146.410161514 -25.0,-103.108891325 -50.0,-59.8076211353 -75.0,-16.5063509461 -100.0,26.7949192431 -125.0,70.0961894323 -150.0,113.397459622 -175.0,156.698729811 -200.0,200.0" stroke="#000" stroke-linecap="round" stroke-linejoin="round"/></svg>