<?xml version="1.0" ?><!DOCTYPE svg  PUBLIC '-//W3C//DTD SVG 1.1//EN'  'http://www.w3.org/Graphics/SVG/1.1/DTD/svg11.dtd'><svg height="369.000" viewBox="-611.000 -157.000 624.000 369.000" width="624.000" xmlns="http://www.w3.org/2000/svg"><line fill="none" stroke="none" stroke-linecap="round" stroke-width="2.0" x1="0.0" x2="0.0" y1="0.0" y2="0.0"/><polygon fill="none" fill-rule="evenodd" points="0.0,0.0 0.0,0.0 0.0,0.0" stroke-linejoin="round"/><polygon fill="none" fill-rule="evenodd" points="0.0,0.0 0.0,0.0 0.0,0.0" stroke-linejoin="round"/><polygon fill="none" fill-rule="evenodd" points="0.0,0.0 0.0,0.0 0.0,0.0" stroke-linejoin="round"/><line fill="none" stroke="none" stroke-linecap="round" stroke-width="2.0" x1="0.0" x2="0.0" y1="0.0" y2="0.0"/><polygon fill="none" fill-rule="evenodd" points="0.0,0.0 0.0,0.0 0.0,0.0" stroke-linejoin="round"/><polygon fill="none" fill-rule="evenodd" points="0.0,0.0 0.0,0.0 0.0,0.0" stroke-linejoin="round"/><line fill="none" stroke="none" stroke-linecap="round" stroke-width="2.0" x1="0.0" x2="0.0" y1="0.0" y2="0.0"/><polyline fill="none" points="-200.0,200.0 -206.25,189.174682453 -212.5,200.0 -218.75,189.174682453 -206.25,189.174682453 -212.5,178.349364905 -218.75,189.174682453 -225.0,200.0 -231.25,189.174682453 -237.5,200.0 -243.75,189.174682453 -231.25,189.174682453 -237.5,178.349364905 -225.0,178.349364905 -212.5,178.349364905 -218.75,167.524047358 -225.0,178.349364905 -231.25,167.524047358 -218.75,167.524047358 -225.0,156.698729811 -231.25,167.524047358 -237.5,178.349364905 -243.75,189.174682453 -250.0,200.0 -256.25,189.174682453 -262.5,200.0 -268.75,189.174682453 -256.25,189.174682453 -262.5,178.349364905 -268.75,189.174682453 -275.0,200.0 -281.25,189.174682453 -287.5,200.0 -293.75,189.174682453 -281.25,189.174682453 -287.5,178.349364905 -275.0,178.349364905 -262.5,178.349364905 -268.75,167.524047358 -275.0,178.349364905 -281.25,167.524047358 -268.75,167.524047358 -275.0,156.698729811" stroke="#000" stroke-linecap="round" stroke-linejoin="round"/><polygon fill="none" fill-rule="evenodd" points="0.0,0.0 0.0,0.0 0.0,0.0" stroke-linejoin="round"/><polygon fill="none" fill-rule="evenodd" points="0.0,0.0 0.0,0.0 0.0,0.0" stroke-linejoin="round"/><line fill="none" stroke="none" stroke-linecap="round" stroke-width="2.0" x1="0.0" x2="0.0" y1="0.0" y2="0.0"/><polyline fill="none" points="-275.0,156.698729811 -262.5,156.698729811 -250.0,156.698729811 -237.5,156.698729811 -225.0,156.698729811 -231.25,145.873412263 -237.5,156.698729811 -243.75,145.873412263 -231.25,145.873412263 -237.5,135.048094716 -243.75,145.873412263 -250.0,156.698729811 -256.25,145.873412263 -262.5,156.698729811 -268.75,145.873412263 -256.25,145.873412263 -262.5,135.048094716 -250.0,135.048094716 -237.5,135.048094716 -243.75,124.222777169 -250.0,135.048094716 -256.25,124.222777169 -243.75,124.222777169 -250.0,113.397459622 -256.25,124.222777169 -262.5,135.048094716 -268.75,145.873412263 -275.0,156.698729811 -281.25,167.524047358 -287.5,178.349364905 -293.75,189.174682453 -300.0,200.0 -306.25,189.174682453 -312.5,200.0 -318.75,189.174682453 -306.25,189.174682453 -312.5,178.349364905 -318.75,189.174682453 -325.0,200.0 -331.25,189.174682453 -337.5,200.0 -343.75,189.174682453 -331.25,189.174682453" stroke="#000" stroke-linecap="round" stroke-linejoin="round"/><polyline fill="none" points="-331.25,189.174682453 -337.5,178.349364905 -325.0,178.349364905 -312.5,178.349364905 -318.75,167.524047358 -325.0,178.349364905 -331.25,167.524047358 -318.75,167.524047358 -325.0,156.698729811 -331.25,167.524047358 -337.5,178.349364905 -343.75,189.174682453 -350.0,200.0 -356.25,189.174682453 -362.5,200.0 -368.75,189.174682453 -356.25,189.174682453 -362.5,178.349364905 -368.75,189.174682453 -375.0,200.0 -381.25,189.174682453 -387.5,200.0 -393.75,189.174682453 -381.25,189.174682453 -387.5,178.349364905 -375.0,178.349364905 -362.5,178.349364905 -368.75,167.524047358 -375.0,178.349364905 -381.25,167.524047358 -368.75,167.524047358 -375.0,156.698729811 -362.5,156.698729811 -350.0,156.698729811 -337.5,156.698729811 -325.0,156.698729811 -331.25,145.873412263 -337.5,156.698729811 -343.75,145.873412263 -331.25,145.873412263 -337.5,135.048094716 -343.75,145.873412263 -350.0,156.698729811" stroke="#000" stroke-linecap="round" stroke-linejoin="round"/><polyline fill="none" points="-350.0,156.698729811 -356.25,145.873412263 -362.5,156.698729811 -368.75,145.873412263 -356.25,145.873412263 -362.5,135.048094716 -350.0,135.048094716 -337.5,135.048094716 -343.75,124.222777169 -350.0,135.048094716 -356.25,124.222777169 -343.75,124.222777169 -350.0,113.397459622 -337.5,113.397459622 -325.0,113.397459622 -312.5,113.397459622 -300.0,113.397459622 -287.5,113.397459622 -275.0,113.397459622 -262.5,113.397459622 -250.0,113.397459622 -256.25,102.572142074 -262.5,113.397459622 -268.75,102.572142074 -256.25,102.572142074 -262.5,91.7468245269 -268.75,102.572142074 -275.0,113.397459622 -281.25,102.572142074 -287.5,113.397459622 -293.75,102.572142074 -281.25,102.572142074 -287.5,91.7468245269 -275.0,91.7468245269 -262.5,91.7468245269 -268.75,80.9215069796 -275.0,91.7468245269 -281.25,80.9215069796 -268.75,80.9215069796 -275.0,70.0961894323 -281.25,80.9215069796 -287.5,91.7468245269 -293.75,102.572142074" stroke="#000" stroke-linecap="round" stroke-linejoin="round"/><polyline fill="none" points="-293.75,102.572142074 -300.0,113.397459622 -306.25,102.572142074 -312.5,113.397459622 -318.75,102.572142074 -306.25,102.572142074 -312.5,91.7468245269 -318.75,102.572142074 -325.0,113.397459622 -331.25,102.572142074 -337.5,113.397459622 -343.75,102.572142074 -331.25,102.572142074 -337.5,91.7468245269 -325.0,91.7468245269 -312.5,91.7468245269 -318.75,80.9215069796 -325.0,91.7468245269 -331.25,80.9215069796 -318.75,80.9215069796 -325.0,70.0961894323 -312.5,70.0961894323 -300.0,70.0961894323 -287.5,70.0961894323 -275.0,70.0961894323 -281.25,59.270871885 -287.5,70.0961894323 -293.75,59.270871885 -281.25,59.270871885 -287.5,48.4455543377 -293.75,59.270871885 -300.0,70.0961894323 -306.25,59.270871885 -312.5,70.0961894323 -318.75,59.270871885 -306.25,59.270871885 -312.5,48.4455543377 -300.0,48.4455543377 -287.5,48.4455543377 -293.75,37.6202367904 -300.0,48.4455543377 -306.25,37.6202367904 -293.75,37.6202367904" stroke="#000" stroke-linecap="round" stroke-linejoin="round"/><polyline fill="none" points="-293.75,37.6202367904 -300.0,26.7949192431 -306.25,37.6202367904 -312.5,48.4455543377 -318.75,59.270871885 -325.0,70.0961894323 -331.25,80.9215069796 -337.5,91.7468245269 -343.75,102.572142074 -350.0,113.397459622 -356.25,124.222777169 -362.5,135.048094716 -368.75,145.873412263 -375.0,156.698729811 -381.25,167.524047358 -387.5,178.349364905 -393.75,189.174682453 -400.0,200.0 -406.25,189.174682453 -412.5,200.0 -418.75,189.174682453 -406.25,189.174682453 -412.5,178.349364905 -418.75,189.174682453 -425.0,200.0 -431.25,189.174682453 -437.5,200.0 -443.75,189.174682453 -431.25,189.174682453 -437.5,178.349364905 -425.0,178.349364905 -412.5,178.349364905 -418.75,167.524047358 -425.0,178.349364905 -431.25,167.524047358 -418.75,167.524047358 -425.0,156.698729811 -431.25,167.524047358 -437.5,178.349364905 -443.75,189.174682453 -450.0,200.0 -456.25,189.174682453 -462.5,200.0" stroke="#000" stroke-linecap="round" stroke-linejoin="round"/><polyline fill="none" points="-462.5,200.0 -468.75,189.174682453 -456.25,189.174682453 -462.5,178.349364905 -468.75,189.174682453 -475.0,200.0 -481.25,189.174682453 -487.5,200.0 -493.75,189.174682453 -481.25,189.174682453 -487.5,178.349364905 -475.0,178.349364905 -462.5,178.349364905 -468.75,167.524047358 -475.0,178.349364905 -481.25,167.524047358 -468.75,167.524047358 -475.0,156.698729811 -462.5,156.698729811 -450.0,156.698729811 -437.5,156.698729811 -425.0,156.698729811 -431.25,145.873412263 -437.5,156.698729811 -443.75,145.873412263 -431.25,145.873412263 -437.5,135.048094716 -443.75,145.873412263 -450.0,156.698729811 -456.25,145.873412263 -462.5,156.698729811 -468.75,145.873412263 -456.25,145.873412263 -462.5,135.048094716 -450.0,135.048094716 -437.5,135.048094716 -443.75,124.222777169 -450.0,135.048094716 -456.25,124.222777169 -443.75,124.222777169 -450.0,113.397459622 -456.25,124.222777169 -462.5,135.048094716" stroke="#000" stroke-linecap="round" stroke-linejoin="round"/><polyline fill="none" points="-462.5,135.048094716 -468.75,145.873412263 -475.0,156.698729811 -481.25,167.524047358 -487.5,178.349364905 -493.75,189.174682453 -500.0,200.0 -506.25,189.174682453 -512.5,200.0 -518.75,189.174682453 -506.25,189.174682453 -512.5,178.349364905 -518.75,189.174682453 -525.0,200.0 -531.25,189.174682453 -537.5,200.0 -543.75,189.174682453 -531.25,189.174682453 -537.5,178.349364905 -525.0,178.349364905 -512.5,178.349364905 -518.75,167.524047358 -525.0,178.349364905 -531.25,167.524047358 -518.75,167.524047358 -525.0,156.698729811 -531.25,167.524047358 -537.5,178.349364905 -543.75,189.174682453 -550.0,200.0 -556.25,189.174682453 -562.5,200.0 -568.75,189.174682453 -556.25,189.174682453 -562.5,178.349364905 -568.75,189.174682453 -575.0,200.0 -581.25,189.174682453 -587.5,200.0 -593.75,189.174682453 -581.25,189.174682453 -587.5,178.349364905 -575.0,178.349364905" stroke="#000" stroke-linecap="round" stroke-linejoin="round"/><polyline fill="none" points="-575.0,178.349364905 -562.5,178.349364905 -568.75,167.524047358 -575.0,178.349364905 -581.25,167.524047358 -568.75,167.524047358 -575.0,156.698729811 -562.5,156.698729811 -550.0,156.698729811 -537.5,156.698729811 -525.0,156.698729811 -531.25,145.873412263 -537.5,156.698729811 -543.75,145.873412263 -531.25,145.873412263 -537.5,135.048094716 -543.75,145.873412263 -550.0,156.698729811 -556.25,145.873412263 -562.5,156.698729811 -568.75,145.873412263 -556.25,145.873412263 -562.5,135.048094716 -550.0,135.048094716 -537.5,135.048094716 -543.75,124.222777169 -550.0,135.048094716 -556.25,124.222777169 -543.75,124.222777169 -550.0,113.397459622 -537.5,113.397459622 -525.0,113.397459622 -512.5,113.397459622 -500.0,113.397459622 -487.5,113.397459622 -475.0,113.397459622 -462.5,113.397459622 -450.0,113.397459622 -456.25,102.572142074 -462.5,113.397459622 -468.75,102.572142074 -456.25,102.572142074 -462.5,91.7468245269" stroke="#000" stroke-linecap="round" stroke-linejoin="round"/><polyline fill="none" points="-462.5,91.7468245269 -468.75,102.572142074 -475.0,113.397459622 -481.25,102.572142074 -487.5,113.397459622 -493.75,102.572142074 -481.25,102.572142074 -487.5,91.7468245269 -475.0,91.7468245269 -462.5,91.7468245269 -468.75,80.9215069796 -475.0,91.7468245269 -481.25,80.9215069796 -468.75,80.9215069796 -475.0,70.0961894323 -481.25,80.9215069796 -487.5,91.7468245269 -493.75,102.572142074 -500.0,113.397459622 -506.25,102.572142074 -512.5,113.397459622 -518.75,102.572142074 -506.25,102.572142074 -512.5,91.7468245269 -518.75,102.572142074 -525.0,113.397459622 -531.25,102.572142074 -537.5,113.397459622 -543.75,102.572142074 -531.25,102.572142074 -537.5,91.7468245269 -525.0,91.7468245269 -512.5,91.7468245269 -518.75,80.9215069796 -525.0,91.7468245269 -531.25,80.9215069796 -518.75,80.9215069796 -525.0,70.0961894323 -512.5,70.0961894323 -500.0,70.0961894323 -487.5,70.0961894323 -475.0,70.0961894323 -481.25,59.270871885" stroke="#000" stroke-linecap="round" stroke-linejoin="round"/><polyline fill="none" points="-481.25,59.270871885 -487.5,70.0961894323 -493.75,59.270871885 -481.25,59.270871885 -487.5,48.4455543377 -493.75,59.270871885 -500.0,70.0961894323 -506.25,59.270871885 -512.5,70.0961894323 -518.75,59.270871885 -506.25,59.270871885 -512.5,48.4455543377 -500.0,48.4455543377 -487.5,48.4455543377 -493.75,37.6202367904 -500.0,48.4455543377 -506.25,37.6202367904 -493.75,37.6202367904 -500.0,26.7949192431 -487.5,26.7949192431 -475.0,26.7949192431 -462.5,26.7949192431 -450.0,26.7949192431 -437.5,26.7949192431 -425.0,26.7949192431 -412.5,26.7949192431 -400.0,26.7949192431 -387.5,26.7949192431 -375.0,26.7949192431 -362.5,26.7949192431 -350.0,26.7949192431 -337.5,26.7949192431 -325.0,26.7949192431 -312.5,26.7949192431 -300.0,26.7949192431 -306.25,15.9696016958 -312.5,26.7949192431 -318.75,15.9696016958 -306.25,15.9696016958 -312.5,5.1442841485 -318.75,15.9696016958 -325.0,26.7949192431 -331.25,15.9696016958" stroke="#000" stroke-linecap="round" stroke-linejoin="round"/><polyline fill="none" points="-331.25,15.9696016958 -337.5,26.7949192431 -343.75,15.9696016958 -331.25,15.9696016958 -337.5,5.1442841485 -325.0,5.1442841485 -312.5,5.1442841485 -318.75,-5.68103339881 -325.0,5.1442841485 -331.25,-5.68103339881 -318.75,-5.68103339881 -325.0,-16.5063509461 -331.25,-5.68103339881 -337.5,5.1442841485 -343.75,15.9696016958 -350.0,26.7949192431 -356.25,15.9696016958 -362.5,26.7949192431 -368.75,15.9696016958 -356.25,15.9696016958 -362.5,5.1442841485 -368.75,15.9696016958 -375.0,26.7949192431 -381.25,15.9696016958 -387.5,26.7949192431 -393.75,15.9696016958 -381.25,15.9696016958 -387.5,5.1442841485 -375.0,5.1442841485 -362.5,5.1442841485 -368.75,-5.68103339881 -375.0,5.1442841485 -381.25,-5.68103339881 -368.75,-5.68103339881 -375.0,-16.5063509461 -362.5,-16.5063509461 -350.0,-16.5063509461 -337.5,-16.5063509461 -325.0,-16.5063509461 -331.25,-27.3316684934 -337.5,-16.5063509461 -343.75,-27.3316684934 -331.25,-27.3316684934" stroke="#000" stroke-linecap="round" stroke-linejoin="round"/><polyline fill="none" points="-331.25,-27.3316684934 -337.5,-38.1569860407 -343.75,-27.3316684934 -350.0,-16.5063509461 -356.25,-27.3316684934 -362.5,-16.5063509461 -368.75,-27.3316684934 -356.25,-27.3316684934 -362.5,-38.1569860407 -350.0,-38.1569860407 -337.5,-38.1569860407 -343.75,-48.982303588 -350.0,-38.1569860407 -356.25,-48.982303588 -343.75,-48.982303588 -350.0,-59.8076211353 -356.25,-48.982303588 -362.5,-38.1569860407 -368.75,-27.3316684934 -375.0,-16.5063509461 -381.25,-5.68103339881 -387.5,5.1442841485 -393.75,15.9696016958 -400.0,26.7949192431 -406.25,15.9696016958 -412.5,26.7949192431 -418.75,15.9696016958 -406.25,15.9696016958 -412.5,5.1442841485 -418.75,15.9696016958 -425.0,26.7949192431 -431.25,15.9696016958 -437.5,26.7949192431 -443.75,15.9696016958 -431.25,15.9696016958 -437.5,5.1442841485 -425.0,5.1442841485 -412.5,5.1442841485 -418.75,-5.68103339881 -425.0,5.1442841485 -431.25,-5.68103339881 -418.75,-5.68103339881 -425.0,-16.5063509461" stroke="#000" stroke-linecap="round" stroke-linejoin="round"/><polyline fill="none" points="-425.0,-16.5063509461 -431.25,-5.68103339881 -437.5,5.1442841485 -443.75,15.9696016958 -450.0,26.7949192431 -456.25,15.9696016958 -462.5,26.7949192431 -468.75,15.9696016958 -456.25,15.9696016958 -462.5,5.1442841485 -468.75,15.9696016958 -475.0,26.7949192431 -481.25,15.9696016958 -487.5,26.7949192431 -493.75,15.9696016958 -481.25,15.9696016958 -487.5,5.1442841485 -475.0,5.1442841485 -462.5,5.1442841485 -468.75,-5.68103339881 -475.0,5.1442841485 -481.25,-5.68103339881 -468.75,-5.68103339881 -475.0,-16.5063509461 -462.5,-16.5063509461 -450.0,-16.5063509461 -437.5,-16.5063509461 -425.0,-16.5063509461 -431.25,-27.3316684934 -437.5,-16.5063509461 -443.75,-27.3316684934 -431.25,-27.3316684934 -437.5,-38.1569860407 -443.75,-27.3316684934 -450.0,-16.5063509461 -456.25,-27.3316684934 -462.5,-16.5063509461 -468.75,-27.3316684934 -456.25,-27.3316684934 -462.5,-38.1569860407 -450.0,-38.1569860407 -437.5,-38.1569860407 -443.75,-48.982303588" stroke="#000" stroke-linecap="round" stroke-linejoin="round"/><polyline fill="none" points="-443.75,-48.982303588 -450.0,-38.1569860407 -456.25,-48.982303588 -443.75,-48.982303588 -450.0,-59.8076211353 -437.5,-59.8076211353 -425.0,-59.8076211353 -412.5,-59.8076211353 -400.0,-59.8076211353 -387.5,-59.8076211353 -375.0,-59.8076211353 -362.5,-59.8076211353 -350.0,-59.8076211353 -356.25,-70.6329386826 -362.5,-59.8076211353 -368.75,-70.6329386826 -356.25,-70.6329386826 -362.5,-81.4582562299 -368.75,-70.6329386826 -375.0,-59.8076211353 -381.25,-70.6329386826 -387.5,-59.8076211353 -393.75,-70.6329386826 -381.25,-70.6329386826 -387.5,-81.4582562299 -375.0,-81.4582562299 -362.5,-81.4582562299 -368.75,-92.2835737772 -375.0,-81.4582562299 -381.25,-92.2835737772 -368.75,-92.2835737772 -375.0,-103.108891325 -381.25,-92.2835737772 -387.5,-81.4582562299 -393.75,-70.6329386826 -400.0,-59.8076211353 -406.25,-70.6329386826 -412.5,-59.8076211353 -418.75,-70.6329386826 -406.25,-70.6329386826 -412.5,-81.4582562299 -418.75,-70.6329386826 -425.0,-59.8076211353" stroke="#000" stroke-linecap="round" stroke-linejoin="round"/><polyline fill="none" points="-425.0,-59.8076211353 -431.25,-70.6329386826 -437.5,-59.8076211353 -443.75,-70.6329386826 -431.25,-70.6329386826 -437.5,-81.4582562299 -425.0,-81.4582562299 -412.5,-81.4582562299 -418.75,-92.2835737772 -425.0,-81.4582562299 -431.25,-92.2835737772 -418.75,-92.2835737772 -425.0,-103.108891325 -412.5,-103.108891325 -400.0,-103.108891325 -387.5,-103.108891325 -375.0,-103.108891325 -381.25,-113.934208872 -387.5,-103.108891325 -393.75,-113.934208872 -381.25,-113.934208872 -387.5,-124.759526419 -393.75,-113.934208872 -400.0,-103.108891325 -406.25,-113.934208872 -412.5,-103.108891325 -418.75,-113.934208872 -406.25,-113.934208872 -412.5,-124.759526419 -400.0,-124.759526419 -387.5,-124.759526419 -393.75,-135.584843966 -400.0,-124.759526419 -406.25,-135.584843966 -393.75,-135.584843966 -400.0,-146.410161514 -406.25,-135.584843966 -412.5,-124.759526419 -418.75,-113.934208872 -425.0,-103.108891325 -431.25,-92.2835737773 -437.5,-81.4582562299 -443.75,-70.6329386826" stroke="#000" stroke-linecap="round" stroke-linejoin="round"/><polyline fill="none" points="-443.75,-70.6329386826 -450.0,-59.8076211353 -456.25,-48.982303588 -462.5,-38.1569860407 -468.75,-27.3316684934 -475.0,-16.5063509461 -481.25,-5.68103339881 -487.5,5.1442841485 -493.75,15.9696016958 -500.0,26.7949192431 -506.25,37.6202367904 -512.5,48.4455543377 -518.75,59.270871885 -525.0,70.0961894323 -531.25,80.9215069796 -537.5,91.7468245269 -543.75,102.572142074 -550.0,113.397459622 -556.25,124.222777169 -562.5,135.048094716 -568.75,145.873412263 -575.0,156.698729811 -581.25,167.524047358 -587.5,178.349364905 -593.75,189.174682453 -600.0,200.0 -587.5,200.0 -575.0,200.0 -562.5,200.0 -550.0,200.0 -537.5,200.0 -525.0,200.0 -512.5,200.0 -500.0,200.0 -487.5,200.0 -475.0,200.0 -462.5,200.0 -450.0,200.0 -437.5,200.0 -425.0,200.0 -412.5,200.0 -400.0,200.0 -387.5,200.0" stroke="#000" stroke-linecap="round" stroke-linejoin="round"/><polyline fill="none" points="-387.5,200.0 -375.0,200.0 -362.5,200.0 -350.0,200.0 -337.5,200.0 -325.0,200.0 -312.5,200.0 -300.0,200.0 -287.5,200.0 -275.0,200.0 -262.5,200.0 -250.0,200.0 -237.5,200.0 -225.0,200.0 -212.5,200.0 -200.0,200.0" stroke="#000" stroke-linecap="round" stroke-linejoin="round"/></svg>