<?xml version="1.0" ?><!DOCTYPE svg  PUBLIC '-//W3C//DTD SVG 1.1//EN'  'http://www.w3.org/Graphics/SVG/1.1/DTD/svg11.dtd'><svg height="571.000" viewBox="-411.000 -13.000 424.000 571.000" width="424.000" xmlns="http://www.w3.org/2000/svg"><line fill="none" stroke="none" stroke-linecap="round" stroke-width="2.0" x1="0.0" x2="0.0" y1="0.0" y2="0.0"/><polygon fill="none" fill-rule="evenodd" points="0.0,0.0 0.0,0.0 0.0,0.0" stroke-linejoin="round"/><polygon fill="none" fill-rule="evenodd" points="0.0,0.0 0.0,0.0 0.0,0.0" stroke-linejoin="round"/><polygon fill="none" fill-rule="evenodd" points="0.0,0.0 0.0,0.0 0.0,0.0" stroke-linejoin="round"/><line fill="none" stroke="none" stroke-linecap="round" stroke-width="2.0" x1="0.0" x2="0.0" y1="0.0" y2="0.0"/><polyline fill="none" points="-200.0,200.0 -212.5,221.650635095 -187.5,221.650635095 -200.0,243.301270189 -212.5,221.650635095 -225.0,243.301270189 -200.0,243.301270189 -175.0,243.301270189 -187.5,264.951905284 -162.5,264.951905284 -175.0,286.602540378 -187.5,264.951905284 -200.0,286.602540378 -212.5,264.951905284 -225.0,243.301270189 -237.5,264.951905284 -212.5,264.951905284 -225.0,286.602540378 -237.5,264.951905284 -250.0,286.602540378 -225.0,286.602540378 -200.0,286.602540378 -175.0,286.602540378 -150.0,286.602540378 -162.5,308.253175473 -137.5,308.253175473 -150.0,329.903810568 -162.5,308.253175473 -175.0,329.903810568 -150.0,329.903810568 -125.0,329.903810568 -137.5,351.554445662 -112.5,351.554445662 -125.0,373.205080757 -137.5,351.554445662 -150.0,373.205080757 -162.5,351.554445662 -175.0,329.903810568 -187.5,351.554445662 -162.5,351.554445662 -175.0,373.205080757 -187.5,351.554445662 -200.0,373.205080757" stroke="#000" stroke-linecap="round" stroke-linejoin="round"/><polygon fill="none" fill-rule="evenodd" points="0.0,0.0 0.0,0.0 0.0,0.0" stroke-linejoin="round"/><polygon fill="none" fill-rule="evenodd" points="0.0,0.0 0.0,0.0 0.0,0.0" stroke-linejoin="round"/><line fill="none" stroke="none" stroke-linecap="round" stroke-width="2.0" x1="0.0" x2="0.0" y1="0.0" y2="0.0"/><polyline fill="none" points="-200.0,373.205080757 -212.5,351.554445662 -225.0,329.903810568 -237.5,308.253175473 -250.0,286.602540378 -262.5,308.253175473 -237.5,308.253175473 -250.0,329.903810568 -262.5,308.253175473 -275.0,329.903810568 -250.0,329.903810568 -225.0,329.903810568 -237.5,351.554445662 -212.5,351.554445662 -225.0,373.205080757 -237.5,351.554445662 -250.0,373.205080757 -262.5,351.554445662 -275.0,329.903810568 -287.5,351.554445662 -262.5,351.554445662 -275.0,373.205080757 -287.5,351.554445662 -300.0,373.205080757 -275.0,373.205080757 -250.0,373.205080757 -225.0,373.205080757 -200.0,373.205080757 -175.0,373.205080757 -150.0,373.205080757 -125.0,373.205080757 -100.0,373.205080757 -112.5,394.855715851 -87.5,394.855715851 -100.0,416.506350946 -112.5,394.855715851 -125.0,416.506350946 -100.0,416.506350946 -75.0,416.506350946 -87.5,438.156986041 -62.5,438.156986041 -75.0,459.807621135 -87.5,438.156986041" stroke="#000" stroke-linecap="round" stroke-linejoin="round"/><polyline fill="none" points="-87.5,438.156986041 -100.0,459.807621135 -112.5,438.156986041 -125.0,416.506350946 -137.5,438.156986041 -112.5,438.156986041 -125.0,459.807621135 -137.5,438.156986041 -150.0,459.807621135 -125.0,459.807621135 -100.0,459.807621135 -75.0,459.807621135 -50.0,459.807621135 -62.5,481.45825623 -37.5,481.45825623 -50.0,503.108891325 -62.5,481.45825623 -75.0,503.108891325 -50.0,503.108891325 -25.0,503.108891325 -37.5,524.759526419 -12.5,524.759526419 -25.0,546.410161514 -37.5,524.759526419 -50.0,546.410161514 -62.5,524.759526419 -75.0,503.108891325 -87.5,524.759526419 -62.5,524.759526419 -75.0,546.410161514 -87.5,524.759526419 -100.0,546.410161514 -112.5,524.759526419 -125.0,503.108891325 -137.5,481.45825623 -150.0,459.807621135 -162.5,481.45825623 -137.5,481.45825623 -150.0,503.108891325 -162.5,481.45825623 -175.0,503.108891325 -150.0,503.108891325 -125.0,503.108891325" stroke="#000" stroke-linecap="round" stroke-linejoin="round"/><polyline fill="none" points="-125.0,503.108891325 -137.5,524.759526419 -112.5,524.759526419 -125.0,546.410161514 -137.5,524.759526419 -150.0,546.410161514 -162.5,524.759526419 -175.0,503.108891325 -187.5,524.759526419 -162.5,524.759526419 -175.0,546.410161514 -187.5,524.759526419 -200.0,546.410161514 -212.5,524.759526419 -225.0,503.108891325 -237.5,481.45825623 -250.0,459.807621135 -262.5,438.156986041 -275.0,416.506350946 -287.5,394.855715851 -300.0,373.205080757 -312.5,394.855715851 -287.5,394.855715851 -300.0,416.506350946 -312.5,394.855715851 -325.0,416.506350946 -300.0,416.506350946 -275.0,416.506350946 -287.5,438.156986041 -262.5,438.156986041 -275.0,459.807621135 -287.5,438.156986041 -300.0,459.807621135 -312.5,438.156986041 -325.0,416.506350946 -337.5,438.156986041 -312.5,438.156986041 -325.0,459.807621135 -337.5,438.156986041 -350.0,459.807621135 -325.0,459.807621135 -300.0,459.807621135 -275.0,459.807621135" stroke="#000" stroke-linecap="round" stroke-linejoin="round"/><polyline fill="none" points="-275.0,459.807621135 -250.0,459.807621135 -262.5,481.45825623 -237.5,481.45825623 -250.0,503.108891325 -262.5,481.45825623 -275.0,503.108891325 -250.0,503.108891325 -225.0,503.108891325 -237.5,524.759526419 -212.5,524.759526419 -225.0,546.410161514 -237.5,524.759526419 -250.0,546.410161514 -262.5,524.759526419 -275.0,503.108891325 -287.5,524.759526419 -262.5,524.759526419 -275.0,546.410161514 -287.5,524.759526419 -300.0,546.410161514 -312.5,524.759526419 -325.0,503.108891325 -337.5,481.45825623 -350.0,459.807621135 -362.5,481.45825623 -337.5,481.45825623 -350.0,503.108891325 -362.5,481.45825623 -375.0,503.108891325 -350.0,503.108891325 -325.0,503.108891325 -337.5,524.759526419 -312.5,524.759526419 -325.0,546.410161514 -337.5,524.759526419 -350.0,546.410161514 -362.5,524.759526419 -375.0,503.108891325 -387.5,524.759526419 -362.5,524.759526419 -375.0,546.410161514 -387.5,524.759526419" stroke="#000" stroke-linecap="round" stroke-linejoin="round"/><polyline fill="none" points="-387.5,524.759526419 -400.0,546.410161514 -375.0,546.410161514 -350.0,546.410161514 -325.0,546.410161514 -300.0,546.410161514 -275.0,546.410161514 -250.0,546.410161514 -225.0,546.410161514 -200.0,546.410161514 -175.0,546.410161514 -150.0,546.410161514 -125.0,546.410161514 -100.0,546.410161514 -75.0,546.410161514 -50.0,546.410161514 -25.0,546.410161514 -8.31335000839e-13,546.410161514 -12.5,524.759526419 -25.0,503.108891325 -37.5,481.45825623 -50.0,459.807621135 -62.5,438.156986041 -75.0,416.506350946 -87.5,394.855715851 -100.0,373.205080757 -112.5,351.554445662 -125.0,329.903810568 -137.5,308.253175473 -150.0,286.602540378 -162.5,264.951905284 -175.0,243.301270189 -187.5,221.650635095 -200.0,200.0" stroke="#000" stroke-linecap="round" stroke-linejoin="round"/></svg>