<?xml version="1.0" ?><!DOCTYPE svg  PUBLIC '-//W3C//DTD SVG 1.1//EN'  'http://www.w3.org/Graphics/SVG/1.1/DTD/svg11.dtd'><svg height="168.000" viewBox="-262.000 -155.000 524.000 168.000" width="524.000" xmlns="http://www.w3.org/2000/svg"><line fill="none" stroke="none" stroke-linecap="round" stroke-width="2.0" x1="0.0" x2="0.0" y1="0.0" y2="0.0"/><polygon fill="none" fill-rule="evenodd" points="0.0,0.0 0.0,0.0 0.0,0.0" stroke-linejoin="round"/><polyline fill="none" points="-250.0,-0.0 -231.481481481,-0.0 -222.222222222,-16.0375074775 -212.962962963,-0.0 -194.444444444,2.05596856412e-15 -185.185185185,-16.0375074775 -194.444444444,-32.075014955 -175.925925926,-32.075014955 -166.666666667,-48.1125224325 -157.407407407,-32.075014955 -138.888888889,-32.075014955 -148.148148148,-16.0375074775 -138.888888889,2.13162820728e-14 -120.37037037,2.74841877652e-14 -111.111111111,-16.0375074775 -101.851851852,3.5527136788e-14 -83.3333333333,4.27230267624e-14 -74.0740740741,-16.0375074775 -83.3333333333,-32.075014955 -64.8148148148,-32.075014955 -55.5555555556,-48.1125224325 -64.8148148148,-64.15002991 -83.3333333333,-64.15002991 -74.0740740741,-80.1875373874 -83.3333333333,-96.2250448649 -64.8148148148,-96.2250448649 -55.5555555556,-112.262552342 -46.2962962963,-96.2250448649 -27.7777777778,-96.2250448649 -18.5185185185,-112.262552342 -27.7777777778,-128.30005982 -9.25925925926,-128.30005982 -8.881784197e-15,-144.337567297 9.25925925926,-128.30005982 27.7777777778,-128.30005982 18.5185185185,-112.262552342 27.7777777778,-96.2250448649 46.2962962963,-96.2250448649 55.5555555556,-112.262552342 64.8148148148,-96.2250448649 83.3333333333,-96.2250448649 74.0740740741,-80.1875373874 83.3333333333,-64.15002991" stroke="#000" stroke-linecap="round" stroke-linejoin="round"/><polyline fill="none" points="83.3333333333,-64.15002991 64.8148148148,-64.15002991 55.5555555556,-48.1125224325 64.8148148148,-32.075014955 83.3333333333,-32.075014955 74.0740740741,-16.0375074775 83.3333333333,1.45661260831e-13 101.851851852,1.52857150805e-13 111.111111111,-16.0375074775 120.37037037,1.59872115546e-13 138.888888889,1.6706800552e-13 148.148148148,-16.0375074775 138.888888889,-32.075014955 157.407407407,-32.075014955 166.666666667,-48.1125224325 175.925925926,-32.075014955 194.444444444,-32.075014955 185.185185185,-16.0375074775 194.444444444,1.88293824976e-13 212.962962963,1.95489714951e-13 222.222222222,-16.0375074775 231.481481481,2.02504679692e-13 250.0,2.09700569666e-13" stroke="#000" stroke-linecap="round" stroke-linejoin="round"/></svg>